<?xml version="1.0" encoding="utf-8"?>
<!-- Generator: Adobe Illustrator 21.1.0, SVG Export Plug-In . SVG Version: 6.00 Build 0)  -->
<svg version="1.1" id="Layer_1" xmlns="http://www.w3.org/2000/svg" xmlns:xlink="http://www.w3.org/1999/xlink" x="0px" y="0px"
	 viewBox="0 0 612 792" style="enable-background:new 0 0 612 792;" xml:space="preserve">
<style type="text/css">
	.st0{clip-path:url(#SVGID_2_);fill:#D7CDC5;}
	.st1{clip-path:url(#SVGID_2_);fill:#7B6E66;}
	.st2{clip-path:url(#SVGID_4_);fill:#7B6E66;}
</style>
<g>
	<defs>
		<rect id="SVGID_1_" x="-114" y="102.6" width="701.6" height="599.4"/>
	</defs>
	<clipPath id="SVGID_2_">
		<use xlink:href="#SVGID_1_"  style="overflow:visible;"/>
	</clipPath>
	<path class="st0" d="M323.6,561.7c88.9,0,160.9-72,160.9-160.9c0-88.9-72-160.9-160.9-160.9s-160.9,72-160.9,160.9
		C162.7,489.6,234.7,561.7,323.6,561.7"/>
	<path class="st0" d="M462.4,577.7c1-0.9,2.1-1.8,3.5-3C462.6,574.3,462.1,574.8,462.4,577.7 M447.5,588.8c0.8,0.3,1.1,0.5,1.6,0.7
		c-0.3,0.5-0.5,0.9-0.9,1.5c2.9-1,5.8-3.4,5.4-4.3c-0.5,0.3-1,0.5-1.6,0.8c0-0.4,0-0.6,0-0.7c0-0.1-0.1-0.3-0.2-0.4
		C450.5,587.1,449.2,587.9,447.5,588.8 M441.8,592.2c-1.1,0.8-2.1,1.6-3.4,2.5C441.5,594.5,442,594.1,441.8,592.2 M409.3,622.5
		c0,0.2,0.1,0.3,0.1,0.5c-1.4,0.3-2.8,0.5-4.7,0.9c4.2,0.8,8-1.1,7.6-3.8c-1.1,0.5-2.1,1.1-3.1,1.6c-0.8-1.9-5.8-0.9-8.6,1.9
		c0.4-0.1,0.8-0.3,1.2-0.5c0.4-0.2,0.8-0.5,1.2-0.5c0.8,0,1.6,0.3,2.4,0.3C406.7,622.8,408,622.6,409.3,622.5 M411.4,634.5
		c-0.2,0.1-0.3,0.3-0.5,0.5l-0.1,0.8c0.3-0.2,0.6-0.5,1-0.9C411.6,634.7,411.5,634.6,411.4,634.5 M380.4,639.5
		c-3.1,0.4-6.1,1.1-9.2,1.6c0.4,0.8,0.6,1.4,0.9,1.9c0.2,0.3,0.6,0.9,0.8,0.9c2.5-0.5,4.9-1.1,7.4-1.6c0,0,0-0.2,0-0.3
		c-0.5-0.1-1-0.2-1.4-0.3c0.7-0.6,1.4-1,2.2-1.1c0.7,0,1.5,0.7,2.1,0.6c3.8-0.7,7.5-1.7,11.3-2.4c2.1-0.4,4-1.9,6.5-0.7
		c0.8,0.4,2.2-0.4,3.4-0.6c1.3-0.2,2.7,0,3.9-0.5c1-0.4,1.7-1.3,2.5-2l0.3-1.6c-0.9,0.2-1.8,0.1-2.6,0.3c-0.9,0.2-1.7,0.7-2.6,0.9
		c-5.3,1.4-11,1.3-15.7,5.1c-0.2-0.5-0.3-0.9-0.4-1.3C386.8,640.2,383.6,639.1,380.4,639.5 M397,624.4c1.6,0.3,2-0.1,2.3-2.2
		c-0.7,0.1-1.3,0.1-2.4,0.2C399.3,623.6,396.6,623.7,397,624.4 M153.8,588.2c-0.2,0.1-0.3,0.3-0.5,0.4c0.3,0.5,0.5,1.2,1,1.6
		c1.6,1.1,3.4,2.1,5.1,3.2c0.2-1-2.2-4.7-3-4.5c0.2,0.5,0.4,0.9,0.7,1.4c-0.1,0.1-0.3,0.3-0.4,0.4
		C155.7,589.8,154.7,589,153.8,588.2 M134.3,570.2c1.7,1.8,3.4,3.5,5,5.3c-0.7-2.6-3.3-3.6-4.4-5.8
		C134.8,569.8,134.6,570,134.3,570.2 M139.4,575.6C139.4,575.6,139.5,575.6,139.4,575.6c0-0.1,0-0.1,0-0.2
		C139.4,575.5,139.4,575.6,139.4,575.6 M139.4,575.6C139.4,575.6,139.5,575.6,139.4,575.6C139.5,575.6,139.5,575.6,139.4,575.6
		L139.4,575.6z M125.8,548.7c-0.1,0.6-0.4,1.4-0.1,1.8c1.6,2.4,3.3,4.6,5,6.9c0.2,0.2,0.3,0.6,0.4,0.8c0.7,1.4,1.4,2.9,2.1,4.3
		c1.2,2.3,2.4,4.6,3.7,6.8c0.7,1.2,1.1,2.9,3.1,2.8c0.3,0,0.7,0.2,0.8,0.2c0.1,1.6,0.2,3,0.4,4.4c-0.6-0.4-1-0.7-1.5-1.1
		c0.3,0.8,0.6,1.5,0.9,2.3c0.1-0.1,0.3-0.3,0.4-0.4c0.6,0.2,1.4,0.2,1.8,0.7c1.2,1.4,2.1,3,3.2,4.4c1.6,2.1,3.3,4.1,4.9,6.1
		c0.2-0.2,0.4-0.3,0.6-0.5c-1.4-2.2-2.8-4.3-4.2-6.6c0.2-0.3,0.6-0.7,0.9-1.2c0.1-0.3,0.1-0.8,0-0.9c-0.2-0.2-0.8-0.4-1-0.3
		c-1.5,1.5-1.9-0.4-3-0.9c0.6-0.7,1.1-1.3,1.6-1.9c-3.6-5-7.3-10.2-11-15.4c0.2,0,0.6,0.1,1.1,0.1V559c-0.1,0.2-0.3,0.3-0.4,0.5
		c-0.9-0.4-2.1-0.5-2.7-1.2c-1.2-1.3-2.1-2.9-3-4.3c0.4-0.5,0.7-0.8,1-1.2c-1-0.9-1.2-2.7-2.8-1.6c-0.6-0.9-1-1.7-1.5-2.5
		C126.2,548.7,126,548.7,125.8,548.7 M78.6,469.6c-1-3.1,0.1-6.5-1.9-9.5c-0.9-1.3-0.7-3.4-0.9-5.1c-0.2-1.7-0.3-3.5-0.7-5.2
		c-0.8-2.9-1.6-5.6-0.1-8.5c0.2-0.4-0.1-1-0.2-1.5c-0.5,0.3-0.9,0.6-1.3,0.9c-0.4-5.7-0.9-11.2-1.3-16.9c1.3-0.7,0.6-2.3,0.6-3.6
		c0-2.6-0.4-5.2-0.5-7.8c-0.1-2.2,0-4.5,0-6.7c-0.2,0-0.4,0-0.6,0c0,0.3-0.1,0.6-0.1,0.9c-0.1,4.2-0.2,8.4-0.3,12.7
		c-0.1,5.1-0.4,10.3-0.3,15.4c0.1,3.8,0.7,7.6,1.1,11.5c0.4,4.6,0.7,9.3,1.2,13.9c0.4,3.8,1,7.5,1.7,11.2c1,5.1,2,10.3,3.4,15.4
		c1,3.7,2.5,7.2,4,10.8c0.9,2.2,2.1,4.3,3.1,6.4c0.5,1.1,0.7,2.4,2.4,2.1c0.2,0,0.8,0.9,0.7,1.1c-1.7,2.6,1.4,3.7,1.9,5.7
		c0.5,2,2.2,3.8,3.4,5.7c0.4,0.6,1,1,1.4,1.5c0.2-0.2,0.4-0.3,0.6-0.5c-4.6-6.7-6.8-14.4-9.4-22.2c-0.2,0.7-0.3,1.1-0.5,1.7
		c-0.3-0.4-0.6-0.6-0.7-0.9c-0.6-2.8-1.1-5.5-1.7-8.3c0-0.2,0.1-0.4,0.1-0.6c-0.1-1.1-0.2-2.3-0.5-3.4
		C81.7,480.4,80.3,474.9,78.6,469.6 M82.4,365.5c0.1-0.6,0.2-1.2,0.3-2.2c-1.8,1.4-2.2,2.7-0.9,4.6C82,366.8,82.2,366.1,82.4,365.5
		 M81.4,374.6c0-1.9,2.4-3.3,0.5-5.3C80.2,370.9,79.4,372.5,81.4,374.6 M94.5,324.4c1.1-1.3,1.9-2.3,2.7-3.3
		C95.4,320.9,94.9,321.5,94.5,324.4 M158.2,228.8c-1.2,1.5-2.2,2.6-3.1,3.7c0.3,0.2,0.5,0.4,0.8,0.6
		C156.3,231.5,158.8,231.6,158.2,228.8 M377.3,164.2c0.6-1.3-3-0.9-0.7-2.6c-2-0.4-3.7-0.7-5.4-1.1c-0.2-0.6-0.6-1.1-1.1-1.2
		c-2.1-0.7-4.3-1.2-6.4-1.8c-2.4-0.7-4.9-1.4-7.2-2.4c-3.2-1.4-6.7-0.6-9.9-2.4c-2.1-1.1-5.1-0.7-7.7-1c-0.7-0.6-1.4-1.1-2.2-1.2
		c-4.6-0.6-9.2-1.1-13.8-1.6c-0.5-0.1-1,0-1.5,0.1c-1.3,0.3-2.5,0.8-3.8,1.2c0-0.2-0.1-0.3-0.1-0.5c-0.3,0.4-0.6,0.8-1.2,1.6
		c-0.6-1.9-1.7-2.5-3.4-2.4c-2,0.2-4.1,0-6.1,0.3c-3.7,0.4-7.3,1-10.9,1.5c0.1,0.2,0.3,0.5,0.2,0.4c-3.4,0.5-6.8,1-10.2,1.5
		c0,0.3,0,0.6,0,0.9c1.5,0.1,3,0.3,4.4,0.4c-2.2,0-1.3,1.4-1.2,2.6c2.4-0.5,4.3-2.6,7-1.9c0.6,0.2,1.4-0.1,2.1-0.2
		c0,0,0-0.5-0.1-0.7c-0.7,0.1-1.3,0.1-2,0.2c0.2-0.6,0.6-0.9,1.1-1c2.6-0.7,4.9,0.9,7.5,1.7c-1.2,0.5-2.3,0.9-3.5,1.4
		c0,0.2,0,0.5,0,0.7c4.2,0.6,8.4-0.4,12.7,0.4c3,0.6,6.2-0.1,9.3-0.2c0-0.2,0-0.5,0-0.7c-0.4-0.1-0.8-0.3-1.2-0.4
		c0.1-0.2,0.1-0.4,0.2-0.6c1.5,0.3,3,0.6,4.5,0.9c0,0.1-0.1,0.3-0.1,0.4c-0.9,0.1-1.8,0.2-2.7,0.3c0,0.2,0,0.4,0,0.6
		c1.7,0.3,3.4,0.5,5.3,0.8c1.4-0.8,3,0.4,4.6,0.5c-0.1-0.2-0.1-0.4-0.2-0.6c0.8-0.2,1.6-0.5,2.5-0.8c-0.1,0.9-0.1,1.3-0.1,1.8
		c1.3-0.3,2.9-1.1,3.7-0.6c2.6,1.7,5.5,1,8.3,1.6c0.5,0.1,1.1-0.4,1.7-0.6c0-0.2-0.1-0.3-0.1-0.5c-1.3,0-2.6,0-3.9,0.1
		c-1.4,0.1-2.7,0.5-3.3-1.6C354.4,158.5,365.9,161.4,377.3,164.2 M359,163.7c1.5,1.9-0.6,1.5-1.4,2.8c1.6,0.1,2.7,0.1,3.8,0.2
		c0.3-0.9,0.4-1.6,0.6-2.2C361.2,164.3,360.4,164.1,359,163.7 M528.7,300.9c0.2-0.1,0.4-0.2,0.5-0.3c-0.6-1.5-1.1-3-1.7-4.5
		c-0.3,0.1-0.5,0.2-0.8,0.3C527.4,297.9,528.1,299.4,528.7,300.9 M87.3,456c-0.4-1.7-0.8-3.2-1.2-4.7C85,452.7,85.4,454.8,87.3,456
		 M124.3,540.3L124.3,540.3C124.3,540.4,124.3,540.4,124.3,540.3 M216.4,622.7c-0.9-0.8-1.9-1.5-2.8-2.3c-0.4,0.3-0.8,0.7-1.2,1
		c1.3,0.6,2.5,1.1,3.7,1.7C216.2,623,216.3,622.8,216.4,622.7 M531.1,368.7c-1.1,1.1-1.8,1.9-2.6,2.7c1.3,2.4,2.1,5,2.7,7.7
		c0.1,0.6,0.5,1.1,0.7,1.7c0.1,0,0.3-0.1,0.4-0.1v-3.4c-0.4,0.3-0.6,0.5-0.6,0.5C531.5,374.9,531.3,372,531.1,368.7 M528.4,371.4
		C528.4,371.4,528.4,371.4,528.4,371.4C528.4,371.4,528.4,371.4,528.4,371.4C528.4,371.4,528.4,371.4,528.4,371.4 M528.4,371.4
		C528.4,371.4,528.4,371.4,528.4,371.4C528.4,371.4,528.4,371.4,528.4,371.4L528.4,371.4z M529.5,364.4c-0.1-0.6-0.1-1.1-0.2-1.7
		c0,2,0,4,0,6.3c1.3-1.2,1.3-1.2,1.3-5.6c0-0.1-0.1-0.2-0.3-0.3c-0.2,0.5-0.3,0.9-0.5,1.3C529.7,364.4,529.6,364.4,529.5,364.4
		 M529.4,362.6C529.4,362.5,529.3,362.6,529.4,362.6c0,0.1,0,0.1,0,0.2C529.4,362.7,529.4,362.6,529.4,362.6 M529.4,362.5
		C529.4,362.5,529.3,362.5,529.4,362.5C529.3,362.5,529.3,362.6,529.4,362.5L529.4,362.5z M519.6,317.7c-0.3,0.1-0.6,0.2-0.8,0.3
		c-0.5-1.4-0.9-2.8-1.4-4.3c0.3-0.1,0.6-0.2,0.8-0.3C518.7,314.9,519.1,316.3,519.6,317.7 M444.6,200.3c-0.2,0.2-0.3,0.3-0.5,0.5
		c-1.6,0.1-2-1.3-2.5-2.4c0.2-0.2,0.3-0.3,0.5-0.5C442.9,198.7,443.7,199.5,444.6,200.3 M414.3,191.8c-3.8-0.2-3.8-0.3-3.5-2.8
		C412.1,190,413.2,190.9,414.3,191.8 M363.8,198.6c-2.5,1.1-5.3,0.7-7.4-1.2C359,197.8,361.3,198.2,363.8,198.6 M347,195.6
		c-0.8,1.7-1.8,1.5-2.8,1.3c-0.7-0.2-1.5-0.3-2.5-0.5c-1.3-0.7-2.8-1.5-4.3-2.4c0.1-0.2,0.2-0.5,0.3-0.7
		C340.8,194,343.8,194.8,347,195.6 M315.4,194.9h-6.6c0-0.2,0-0.4,0-0.6h6.6C315.4,194.5,315.4,194.7,315.4,194.9 M297.8,194.9
		c-1,0.1-1.9,0.2-3.2,0.3c0.9,0.2,1.6,0.3,2.3,0.5c0,0.2-0.1,0.5-0.1,0.7c-1.7-0.3-3.4-0.6-5.1-0.9c0.1-0.3,0.1-0.6,0.2-0.8
		c2-0.1,3.9-0.2,5.9-0.3C297.8,194.5,297.8,194.7,297.8,194.9 M185.2,250.9c-1.1,0.9-2.1,1.8-3.2,2.7
		C182.3,251.8,183.2,250.6,185.2,250.9 M146.7,296.9c-1.6,2.6-3.2,5.2-4.8,7.8c-0.2-0.1-0.3-0.1-0.5-0.2
		C142.2,301.4,144,298.9,146.7,296.9 M138.2,310.2c0.7-1.3,1.3-2.4,2.1-3.9C140.6,308.9,140,309.9,138.2,310.2 M118.7,483.2
		c-0.9-0.8-2.1-1.5-2.6-2.5c-0.5-1.2-0.4-2.7-0.6-4.6C117.4,477.9,119.1,482.1,118.7,483.2 M116.1,471.9c0.1,0.6-0.5,1.4-0.9,2.1
		c-0.5-0.4-1.3-0.7-1.6-1.2c-0.4-1-0.7-2.1-0.7-3.2c0-0.6,0.6-1.1,0.9-1.7c0.2,0.1,0.4,0.2,0.7,0.3
		C115.1,469.4,115.8,470.6,116.1,471.9 M104.5,411.4v-1.7c0.4-0.1,0.7-0.2,1-0.2c1.4,0.1,2.3-0.3,2.1-1.9c0-0.3,0.5-0.7,0.8-1.1
		c0.3,0.4,0.9,0.7,0.9,1.1C109.8,410.6,108.3,411.8,104.5,411.4 M106.8,313.8c-0.1,0-0.3,0-0.4,0.1c-0.1-0.7-0.3-1.3-0.5-2.4
		c-0.7,1-1.2,1.8-1.8,2.7c-0.2-2.1,0.5-3,2.7-3.7V313.8z M106.1,401.7c-0.4,0.7-0.7,1.6-1,1.6c-2.1,0-2.3,1.3-2.1,3.2
		c-0.7-0.1-1.6-0.1-1.6-0.3c-0.1-1.1-0.3-2.3,0.1-3.2C102.3,401.4,104,401.5,106.1,401.7 M101.2,327.6c-0.4,1.4,0.9,3.7-2.4,3.7
		c0.6-1.6,1.1-3.1,1.8-5.2C101,326.9,101.3,327.3,101.2,327.6 M95.2,339c-0.2,0-0.5,0.1-0.7,0.1c-0.6-1.2-1.8-2.3-0.2-4.2
		C94.7,336.6,95,337.8,95.2,339 M93,346.1c1.4,2.7,0.2,5-0.9,7.4C90.9,352.2,91.6,347.1,93,346.1 M122.3,532.3
		c0.2-0.1,0.4-0.3,0.6-0.4c0.9,1.7,1.8,3.4,2.7,5.1c-0.3,0.1-0.5,0.3-0.8,0.4C123.9,535.8,123.1,534,122.3,532.3 M124.2,483.1
		c0.2-0.1,0.4-0.1,0.5-0.2c0.5,0.4,1,0.7,1.4,1.1c0.1-0.1,0.2-0.1,0.3-0.2c-0.4-0.8-0.8-1.6-1.2-2.5c1.7,0.7,1.7,1.2,1,7.5
		C125.4,486.6,124.8,484.8,124.2,483.1 M126.7,505.3c1.5,0.3,2.6,0.5,3.6,0.7c-0.6,0.6-1.1,1.2-1.9,2
		C127.9,507.1,127.4,506.3,126.7,505.3 M138.1,497.4c-1.2-2.7-2.4-5.3-3.6-7.9c0.1-0.1,0.3-0.1,0.4-0.2c0.7,1.2,1.2,2.3,2,3.4
		c0.4,0.7,0.6,2,2.1,1.2c0.3-0.2,1.2,0.8,1.8,1.2c-0.1,0.1-0.2,0.3-0.3,0.4c-0.5-0.2-1-0.5-1.4-0.4c-0.3,0.1-0.7,0.9-0.6,1.1
		c2.3,3.6,4.7,7.1,7,10.6c0,0,0.1,0,0.4-0.1c-0.2-1-0.3-2.1-0.5-3.1c0.1,0,0.1-0.1,0.2-0.1c0.4,0.6,0.9,1.3,1.2,2
		c1.7,3.3,3.9,6.4,6,9.5c1.2,1.9,2.2,4,3.1,6.1c0.2,0.5-0.2,1.3-0.3,2.2c0.4,0,0.9,0.1,2,0.2c-1,0.5-1.4,0.8-1.7,0.9
		c-1.8-1.5-3.6-3-5.4-4.5c0.8-0.2,2.1-0.5,2.1-0.6c-0.1-1-0.3-2-0.7-2.8c-0.5-0.9-1.3-1.6-2-2.4c-0.5-0.6-1.5-1.2-0.4-2.2
		c0.2-0.2,0-1-0.3-1.2c-1.4-0.9-3.1-1.4-4.3-2.5c-1.1-0.9-1.8-2.3-2.6-3.6c-0.5-0.7-1-1.4-1.2-2.2c-0.5-2.3-3.3-2.3-4-4.6
		C137.5,497.8,137.8,497.6,138.1,497.4 M150.1,523.2c0.6-0.3,1.5-0.8,1.6-0.7c0.6,0.8,1.1,1.7,1.6,2.6c-0.2,0.1-0.4,0.2-0.5,0.3
		c-0.5-0.3-1-0.6-1.4-0.9C150.9,524.1,150.6,523.8,150.1,523.2 M156,525.6c1.6-0.2,3-0.7,3.6,1.1c-0.6,0.4-1.1,0.6-1.8,1
		C157.3,527.2,156.7,526.5,156,525.6 M159.8,524.2c0.1-0.2,0.2-0.4,0.3-0.7c1,0.3,2.1,0.5,2.9,1c2.2,1.6,3.8,4.8,3.4,6.9
		c-1.7-2.4-3.1-4.5-4.9-7c0.1,1,0.2,1.4,0.3,1.9c-0.1,0.1-0.2,0.1-0.3,0.2C160.9,525.8,160.4,525,159.8,524.2 M163.2,529.8
		c0.2-0.1,0.4-0.3,0.5-0.4c1.3,2,2.6,4,3.9,6.1C165.3,534.2,164.2,532,163.2,529.8 M162.9,568.6c0.2-0.1,0.3-0.2,0.5-0.4
		c1,1.2,1.9,2.5,2.9,3.7c-0.2,0.2-0.4,0.3-0.6,0.5C164.8,571.2,163.8,569.9,162.9,568.6 M171.3,546.2c0.5-0.1,0.9-0.2,1.3-0.3v-2
		c1.9,0.1,2.2,0.4,2.1,1.9c0,0.3,0.3,0.5,0.5,0.8c2.6,2.9,5.2,5.8,7.8,8.7c-0.1,0.1-0.3,0.3-0.4,0.4c-1.4-1-2.8-2.1-4.3-3
		c-2-1.2-3-3.5-4.8-5C173,547.2,172.2,546.8,171.3,546.2 M159.3,523.2c-2.8-3-4.4-6.5-6.2-10.3C156.3,514,159.4,519.4,159.3,523.2
		 M153.3,511.7c-0.2,0.1-0.4,0.2-0.5,0.3c-1.7-2.2-4-4.1-4.8-6.5c-0.9-2.6-2.2-4.8-3.6-7c-0.5-0.9-0.7-1.9-1.1-2.9
		c0.3-0.1,0.5-0.2,0.8-0.3C146.7,501,150.6,506,153.3,511.7 M187.6,554.7c3.1,2.9,5.8,5.4,8.6,8c-0.1,0.2-0.2,0.4-0.3,0.6
		c-1.4-0.5-3.7-0.6-4.1-1.5C190.8,559.3,186.8,558.8,187.6,554.7 M267.7,603.1c2.3-0.2,3.5,0.4,4.4,2.1
		C269.7,606,267.9,605.2,267.7,603.1 M319.8,615.4c-0.1-0.1,0.3-0.7,0.4-0.7c1.2,0.1,2.4,0.2,3.6,0.3c0,0.1-0.1,0.3-0.1,0.4
		c-1,0.2-2,0.5-3,0.6C320.4,616.2,320,615.7,319.8,615.4 M334.5,611.3c3.1-0.7,6.1-1.8,9.3-0.4c-3.1,0.3-6.1,0.6-9.2,0.9
		C334.6,611.7,334.5,611.5,334.5,611.3 M341.9,628.8c1.8-0.2,3.7-0.4,5.7-0.6C346.7,629.5,344.4,629.8,341.9,628.8 M350.3,615
		c-1.2,0.2-2.4,0.5-3.6,0.7c-0.2,0-0.5-0.3-0.9-0.6c1.7-0.4,3.1-0.8,4.6-1.2c0-0.2-0.1-0.3-0.1-0.5c-0.7-0.2-1.3-0.4-2.5-0.8
		c1.8-0.3,3-1.7,4.5-0.4c0.2,0.1,0.9-0.4,1.3-0.5c0.8-0.2,1.6-0.3,2.5-0.5c-0.3,1.4-0.4,2.3-0.6,3.3
		C353.9,614.6,352.1,614.7,350.3,615 M372.1,632.3c0.7-0.4,1.6-1.1,2.5-1.4c1.3-0.3,2.6-0.4,4-0.4c0.6,0,1.2,0.3,2,0.5
		c-5.1,0.7-5.6,1-4.6,2.4c-1,0.3-1.8,0.6-2.1,0.7C373,633.2,372.4,632.5,372.1,632.3 M367.8,613.5c0-0.3,0-0.5,0.1-0.8
		c2.4,1.4,4.1-0.2,6-0.8c0.2-0.1,0.4-0.2,0.6-0.1c3.4,1.2,4.1-2.4,6.8-3.2c2.6,1.6,5-2.5,8.5-1.3c-1,0.7-1.7,1.2-2.4,1.7
		c0,0.1,0.1,0.2,0.1,0.2c1.6-0.4,3.2-0.7,4.8-1.1c0,0.1,0,0.2,0.1,0.3c-0.9,0.3-1.9,0.4-2.7,0.9c-0.7,0.3-2,0.1-1.8,1.5
		c0,0.2-1.2,0.7-1.6,0.6c-2.3-0.7-4.4-0.1-6.6,0.7c0.6,0.1,1.3,0.1,1.9,0.2c-1.6,0.6-3.1,1.6-4.9,0.3c-0.3-0.2-0.9,0.1-1.3,0.2
		c-1.5,0.5-3,1.3-4.6,1.5C369.7,614.7,368.8,613.9,367.8,613.5 M376.4,602.3c-1.7,0.4-3.4,0.8-5.1,1.1c-0.1-0.3-0.2-0.6-0.2-0.8
		c1.7-0.4,3.4-0.8,5.1-1.3C376.2,601.7,376.3,602,376.4,602.3 M395.5,607.9c2.3-0.6,4.6-1.1,7.1-1.8c-0.8,1.4-4.5,2.6-6.9,2.3
		C395.6,608.3,395.5,608.1,395.5,607.9 M403.6,605.4c1-0.4,1.6-0.7,2.2-0.8c1.4-0.1,2.7,0,4.4,0c0,0.2,0.2,0.8,0.4,1.5
		c-0.8,0.4-1.6,0.9-2.4,1.3C406.9,606.9,405.5,606.3,403.6,605.4 M477.6,559.3c1.2-0.8,2.4-1.7,3.8-2.6
		C481.3,559.2,479.6,560.3,477.6,559.3 M500.9,530.7c0.2-3.5,1.4-6.2,4.7-7.6c-0.7,1.7-1,1.8-2.1,2.8c-0.5,0.5-0.8,1.5-0.7,2.2
		C502.9,529.6,502,530.2,500.9,530.7 M510.3,514c0.5-0.8,0.9-1.8,1.5-2.5c0.7-0.9,2-1.3,1.7-2.8c0-0.1,0.7-0.3,1.1-0.5
		c0.2,0.2,0.3,0.4,0.5,0.6c-1.4,1.9-2.8,3.7-4.2,5.6C510.6,514.2,510.5,514.1,510.3,514 M534.3,460.5c-0.2,1.9-0.4,3.6-0.6,5.4
		C532.4,462.5,532.8,460.5,534.3,460.5 M539.1,347.9c0.2-0.6,0.6-1.3,0.5-1.3c-1.2-0.8-0.3-1.5-0.1-2.3c0.2-0.6-0.1-1.4-0.1-2.1
		c-0.1-1-0.1-2-0.2-3c-0.1-0.8-0.2-1.7-0.6-2.4c-0.4-0.9-1.2-1.6-1.6-2.4c-0.2-0.4,0-1.1,0-1.6c0-1.7,0.2-3.8-0.8-5.1
		c-1.8-2.4-0.6-4.8-0.8-7.2c-0.1-1.1,0-1.4-1-2.2c-1.1-0.8-1.6-2.6-2.5-4.3h1.5c-0.2-1-0.5-1.9-0.7-3c-0.6,0.5-0.9,0.8-1.8,1.6
		c0-2.6,0.1-4.8-0.1-6.9c-0.1-0.8-0.8-1.6-1.3-2.3c-0.2-0.2-0.9-0.1-1-0.3c-0.7-1.6-1.6-3.2-1.9-4.9c-0.4-2.4-1.6-4.3-3.5-5.7
		c-1.3-1-0.9-1.5,0.6-2.1c-0.8-1-1.5-1.7-2.2-2.5c0-0.4,0.2-1.2-0.1-1.6c-1.2-1.8-2.7-3.5-3.9-5.3c-0.5-0.6-0.8-1.5-0.9-2.2
		c-0.1-1.1-0.1-2-1.2-2.8c-1.4-1-2.4-2.6-3.5-3.9c0.9,0.4,1.7,0.7,2.5,1c0.2-0.2,0.4-0.5,0.5-0.7c-1-1.3-2.1-2.7-3.2-4.2h2.9
		c-1.5-1-3.2-1.6-2.2-3.6c0.1-0.2-0.2-0.7-0.4-1c-1-1.6-2.3-3.2-3.1-4.9c-0.9-1.9-2.2-3.2-3.7-4.5c-1-0.9-1.3-2.5-2.2-4.3
		c1.3,0.6,2,0.9,2.7,1.2c-1.6-2.1-3.3-4-5.1-5.8c-0.9-0.8-2.3-1.1-3-2c-1.4-1.7-2.5-3.7-3.7-5.6c-0.2,0.3-0.5,0.6-0.5,0.6
		c-1.9-1.6-1.4-5-4.8-5.2c-0.3,0-0.7-0.4-0.9-0.7c-0.7-1-1.3-2.1-2-3.1c-0.2,0.1-0.3,0.2-0.5,0.3c0.6,0.8,1.2,1.6,2.1,2.9
		c-0.9,0.1-1.8,0.5-2.3,0.3c-1-0.5-1.8-1.5-2.7-2.2c-1.1-0.9-2.3-1.9-3.4-2.8c-0.1-0.1-0.5,0.1-0.7,0.1c-0.3,0-0.7,0-1-0.2
		c-0.5-0.3-1-0.7-1.7-1.1c-0.1,1.1-0.2,1.8-0.3,2.5c-1.1-0.2-2.3-0.1-3.2-0.5c-0.7-0.3-1.7-1.2-0.2-2.2c-1.4-1.3-2.7-2.5-4.3-3.9
		c0.7-0.2,1.2-0.3,1.8-0.5c-5.6-2.8-5.6-2.8-5.8-4.4c0.7,0.9,1.3,1.5,1.9,2.2c0-1.8-4.6-5-5.8-4.9c-1.6-1.5-2.8-2.6-3.8-3.5
		c-0.8,0.6-1.3,1-2,1.5c-0.1-0.6-0.2-0.8-0.1-1c1-2.5-0.3-2.9-2.5-3.1c-1.6-0.1-3.4-0.4-4.5-2.7c1.3,0.5,2.1,0.8,2.8,1
		c-0.9-2-1.8-4.1-2.7-6.1c-0.2-0.5-0.3-1.1-0.6-1.3c-2.1-1.7-4.3-3.4-7.2-3.6c-0.4,0-0.7-0.3-1-0.5c0.2,0.1,0.4,0.2,0.6,0.3
		c0.6-0.4,1.3-0.7,1.9-1.1c-0.4-0.2-0.8-0.5-1.1-0.7c0.4,0.2,0.8,0.4,1.2,0.7c0,0,0,0,0,0c1.1,0.7,2.3,1.4,3.4,2.1
		c0.1-0.2,0.2-0.3,0.3-0.5c-1.1-0.8-2.3-1.7-3.4-2.5c-0.8-0.6-1.5-1.3-2.4-1.9c-3.1-1.9-6.3-3.8-9.4-5.7c-0.3-0.2-0.7-0.6-0.8-1
		c-0.5-3.2-0.6-3.3-2.9-2.6c-1.8-1.1-3.1-1.9-4.5-2.7c-1.5-0.9-3-1.7-4.6-2.6c0.1,0.6,0.1,1,0.1,1.6c-0.6-0.1-0.9-0.2-1.7-0.4
		c0.7,0.6,1.1,0.9,1.5,1.3c-1.4,0-3.5-0.1-3.7-0.8c-0.8-2.3-2.9-2-4.3-3.2c-0.5,1.4-0.4,1.3-1.5,0.6c-1.3-0.8-2.6-1.7-4.1-2.1
		c-3.2-0.9-6.2-2.5-9.7-1.9c-0.5,0.1-1.1-0.4-2-0.8c0.8-0.2,1.2-0.3,1.6-0.4c0-0.2,0-0.4-0.1-0.5c-0.6,0.1-1.1,0.2-1.7,0.4
		c-0.7,0.2-1.3,0.5-2,0.6c-0.8,0.1-1.6,0.1-2.4,0.1v-1.6c0.8,0.1,1.5,0.2,2.3,0.3c0.1-0.2,0.1-0.3,0.2-0.5c-0.9-0.3-1.7-0.7-2.6-1
		c-1-0.3-2-0.7-3-1c-0.4-0.1-0.8,0-1.2,0.1c0,0.2,0,0.3,0,0.5c0.4,0.2,0.8,0.5,1.4,0.8c-0.8,0.2-1.4,0.3-2.3,0.5
		c1.2,0.4,1.9,0.7,3,1.2c-0.8,0.2-1.1,0.3-1.4,0.4c0,0.1,0,0.2,0,0.4c1,0.1,1.9,0.2,2.9,0.2c0,0.3,0,0.7,0.1,0.7
		c2.3,0.6,3.5,3.2,6.1,3.5c0.4,0,0.7,0.4,1.1,0.6c0,0.1-0.1,0.3-0.1,0.4h-2.1c0.6,1.2,2.4,0.8,2.4,2.4c0.3-0.1,0.6-0.2,0.9-0.2
		c0.7,0,1.5-0.1,2.1,0.1c0.6,0.2,1,0.8,1.5,1.2c0.1-0.1,0.2-0.2,0.4-0.3c0.2,0.6,0.4,1.2,0.5,1.7c-1.7,0.4-3.4,0.9-5.1,1.3
		c-0.9-2.1-2.7-1.8-4.4-1.8c-1.7,0-3.4,0-4.9,0c0.2,0.3,0.5,0.7,1,1.3c-0.8,0-1.2,0-1.6,0c-0.4,0-0.7,0-1.3,0.1
		c0.4,0.4,0.6,0.6,0.9,1c-1.9-0.3-2.5-1.1-2-2.7c-0.6-0.2-1.2-0.3-2.3-0.6c1.2-0.1,1.9-0.2,2.6-0.3c0.1-0.2,0.1-0.4,0.2-0.6
		c-1.5-0.5-3.1-1.1-4.6-1.6c-1.7-0.5-3.3-0.9-5.1-1.4c0.3-0.6,0.5-1.1,0.7-1.8c-0.8-0.1-1.5-0.1-2-0.3c-1.1-0.3-2.2-1.3-3.1-1.1
		c-0.7,0.2-1.2,1.6-1.8,2.5c0,0.1,0,0.2,0.1,0.3c2.5-0.7,8.8,1.1,11.4,5.1c-0.1,0-0.3,0.1-0.4,0c-0.5-0.2-1-0.5-1.6-0.7
		c-0.4-0.2-1-0.4-1.4-0.3c-1.2,0.3-1,0.2-1.6-0.8c-0.5-0.9-1.5-1.7-2.4-2c-1-0.2-2.1,0.3-2.8,0.5c-0.2,0.8-0.2,1.7-0.5,1.8
		c-1.3,0.5-2.3,2.4-4.1,1c-0.1-0.1-0.1-0.3-0.2-0.6c0.5-0.1,1-0.2,1.5-0.3c-0.6-0.4-1.1-0.7-1.6-1.1c0.5-0.2,1-0.5,1.4-0.7
		c0-0.2-0.1-0.4-0.1-0.6c-1.9,0-3.7,0-5.6,0c-0.3,0-0.7-0.1-0.9-0.3c-0.9-1-1.5-0.4-2.3,0.3c-0.6,0.6-1.8,1.3-2.4,1.1
		c-1.4-0.5-2.7-1.4-4.4-2.4c1.3-0.4,2.4-0.7,3.7-1.1c-1.5-0.9-3-1.7-4.4-2.6c-2.8-1.7-3.2-2.6-1.7-4.4c-3.5-0.7-6.4-3.5-10.2-2.2
		c-0.1,0-0.3-0.1-0.4-0.2c0-0.1,0-0.3,0-0.4c1.2-0.3,2.4-0.5,4.1-0.9c-1-0.1-1.7-0.1-2.2-0.3c-2-0.8-3.6,1.8-5.8,0.5
		c-1.1-0.6-2.7-0.4-4.1-0.6c-2.2-0.4-4,0.9-6.1,1.2c-0.1,0-0.1,0.4-0.1,0.7c1.1,0.1,2.1,0.2,3.1,0.3c0,0.2,0,0.4,0,0.6
		c-4,0.3-8,0.7-12,1c0.4,0.9,0.8,1.8,1.3,2.9c-2.2,0-4.4-0.1-6.6,0c-2.2,0.2-4.5,0.7-6.9,1.1c-1.6-1.6-1.6-1.6-11.4-0.3
		c0.2-0.3,0.4-0.5,0.8-0.9c-1.7,0.1-3-1.1-4.8,0.4c-1.5,1.3-3.9,1.4-5.9,2c0,0.1,0,0.3-0.1,0.4c0.8,0.3,1.5,0.6,2.3,0.9
		c0,0.2,0,0.3,0,0.5h-4.7c0,0.1,0,0.2,0,0.3c0.8,0.4,1.6,0.7,2.4,1.1c0,0.2,0,0.4,0,0.6c-1,0-2.2,0.3-3-0.1
		c-0.5-0.3-0.5-1.6-0.8-2.6c-1,0.5-2.8-0.4-3.7,1.5c-0.1,0.2-0.8,0.1-1.3,0c-0.1,0,0-0.5-0.1-0.9c-2.5,0.7-5,0.4-7.2-1.2
		c-0.1,0.2-0.2,0.5-0.3,0.7c0.6,0.5,1.2,0.9,2.2,1.8h-5c0.4-0.9,0.6-1.3,0.9-2c-3.7,1.1-7.2,2.1-10.7,3.1c-0.1-0.2-0.1-0.3-0.2-0.5
		c0.3-0.4,0.6-0.8,0.9-1.2c0-0.2-0.1-0.3-0.1-0.5c-1,0.2-2.1,0.3-3,0.6c-0.6,0.2-1,0.8-1.4,1.2c-0.1-0.1-0.2-0.3-0.3-0.4
		c0.1-0.3,0.1-0.6,0.2-1.1c-2.7,1.2-5.6,0.5-7.9,2.4c-0.2,0.2-0.7,0-1,0.1c-0.6,0.2-1.2,0.5-1.7,0.7c0.2,0.5,0.4,1.1,0.8,1.6
		c0.2,0.3,0.7,0.4,1.2,0.7c-1.2,0.4-1.9,0.7-2.5,0.9c-0.7,0.3-1.4,0.6-2.3,0.9c1,1.6-0.2,2-1.3,2.3c0.2,0.5,0.3,0.9,0.6,1.5
		c-1.4-0.2-2.6-0.5-3.7-0.6c-1.1-0.1-2.2-0.1-3.3-0.2c-0.4,0-2.5,0.1-2.6,0.2c0.4,0.1,0.7,0.1,1.3,0.2c-0.4,0.4-0.6,0.7-0.8,0.9
		c1.7,2.2,3.6,0.1,5.5,0.3c-4.4,3.9-9.9,4.8-14.8,5.9c-0.5,0.8-0.8,1.3-1.2,1.8c-0.1-0.1-0.2-0.1-0.3-0.2c0.3-0.9,0.6-1.8,0.9-2.6
		c-0.2-0.1-0.3-0.2-0.5-0.3c-2.2,1.5-4.4,3.1-6.6,4.6c0,0.1,0.1,0.2,0.1,0.3c0.6-0.1,1.1-0.3,2.1-0.5c-2,1.9-2.9,1.8-4.9,1.9
		c-1.4,0-2.9,1.2-4.3,1.9c0.9,0.8,0,1.5-0.4,1.8c-1.6,1.2-3.3,2.2-5,3.3c-0.1,0.1-0.4,0-1.2-0.2c2.3-0.8,1.9-1.9,1.1-3.3
		c-2.3,1.6-4.5,3.2-6.8,4.8c-0.7,0.5-1.4,0.9-2.2,1.2c-1.4,0.6-3.1,2.9-3.3,4.7c0.9-0.9,1.8-2,2-1.2c-1.3,1.3-2.6,2.6-3.8,3.9
		c-1.1-1.4-2.3,1.4-3.9,1.4c-0.2,0-0.4,1.2-0.7,1.7c-0.2,0.4-0.4,0.8-0.7,1.1c-0.8,0.7-1.7,1.3-2.4,1.8c-2.9,0.7-2.7,4.2-4.7,5.4
		c-0.1-0.1-0.3-0.2-0.4-0.3c0.6-1.4,1.3-2.8,1.9-4.3c-0.3,0-0.4-0.1-0.4,0c-0.2,0.2-0.3,0.4-0.5,0.6c-1.2,1.3-1.8,3.2-4.2,3
		c-0.6-0.1-1.3,0.8-2,1.3c0.8,0.7,1.3,1.2,1.9,1.8c-1.9,1.8-3.7,3.4-5.4,5.1c-0.9,0.9-1.6,2.1-2.5,3.2c-0.4,0.5-0.9,1.3-1.4,1.4
		c-1.2,0.1-2.1,0.3-1.7,1.8c0,0.2-0.4,0.5-0.7,0.7c-0.5,0.5-1.1,1-1.5,1.4c0.6,0.8,1,1.3,1.6,1.9c-0.9,0.2-1.7,0.1-2,0.4
		c-0.8,0.9-1.5,1.7-2.9,0.9c-0.2-0.1-1.4,1.6-2.1,2.4c-0.4,0.4-0.9,0.8-1.3,1.2c-0.1,0.1-0.2,0.3-0.2,0.5c0.3,0.1,0.6,0.2,0.9,0.4
		c-1.1,0.9-2.3,1.6-3.3,2.6c-0.9,0.9-1.6,2-2.4,3c-0.6,0.7-1,1.6-1.6,2.3c-1.1,1-2.8,1.7-3.6,2.9c-0.8,1.2-1.6,2.2-2.9,2.9
		c-0.6,0.3-1.2,1.2-1.2,1.8c0.1,1.8-0.5,2.6-2.2,2.7c-0.3,0-0.8,0.2-1,0.4c-1.8,2-3.5,4.1-5.3,6.3c0.6-0.1,1-0.1,1.2-0.1
		c1.2,3.5,0,6.2-2.6,8.7c-0.2-0.6-0.3-0.9-0.6-1.8c-0.6,1.1-1.2,1.8-1.5,2.5c-1.3,3.2-2,6.7-4.7,9.2c-0.6,0.5-1,1.5-1.6,1.5
		c-2.6,0.3-1.7,2.4-2.3,3.8c0.5-0.1,0.8-0.4,1.1-0.7c0.4-0.4,0.9-0.7,1.3-1.1c-0.1,0.6-0.1,1.3-0.3,1.9c-0.9,2.3-2,4.5-2.9,6.8
		c-0.6,1.5-0.8,3.1-2.6,3.9c-0.6,0.3-0.9,1.5-1.1,2.3c-0.3,1.2-0.2,2.5-0.7,3.6c-1.1,2.5-2.1,5.2-4.9,6.5c-0.2,0.1-0.4,0.7-0.3,0.9
		c0.7,1.3,0.4,2.4-0.6,3.4c-0.1,0.1,0.1,0.5,0,0.7c-0.1,0.8-0.2,1.5-0.4,2.3c-0.2,0.9-1.1,2.1-0.8,2.4c1.5,1.6,0.2,1.9-0.9,2.4
		c-0.1-0.6-0.2-1.1-0.4-1.8c-0.6,0.4-1.1,0.7-1.6,1c0.2,0,0.3,0.1,0.5,0.1c-0.3,2.1-0.6,4.3-0.9,6.6c-1.2,0.2-1.9,1.1-2.1,2.6
		c-0.3,2.3-0.7,4.6-1.1,6.9c-0.1,0.4-0.5,0.7-0.8,1.1c-0.2,0.2-0.5,0.6-0.5,0.7c0.1,0.3,0.5,0.5,0.8,0.6c0.5,0.2,1.4,0,1.6,0.3
		c0.8,1.2,1.4,2.5,1.7,3.1c-0.6-0.7-1.6-1.8-2.6-2.9c-1.9,1.2-0.5,3.4-2.4,3.2c-0.1,1.2,0,2.5-0.2,3.7c-0.1,0.7-0.5,1.4-0.8,2.2
		c-0.4,1.3-0.9,2.7,1,3.3c0.2,0.1,0.4,0.4,0.5,0.7c0.4,0.6,0.7,1.2,1.2,2.1c-0.8,0.8-1.8,1.9-2.9,3c-0.2-0.5-0.3-0.9-0.5-1.8
		c-0.4,2.2-0.7,4-1,5.8c-0.3-0.3-0.6-0.5-0.9-0.7c-0.5,4.9-1,9.7-1.5,14.5c-2.5-1.2-0.4-3.5-1.6-5.7c-0.3,2.3-0.2,4.1-0.8,5.7
		c-0.9,2.7-0.8,5.4-0.8,8.1c0,2.5-0.3,4.9-0.3,7.4c0,1.2,0.1,2.5,0.5,3.6c0.5,1.4,1,2.4-1.1,3c0.4,0.7,0.8,1.2,1,1.8
		c0.2,0.5,0.7,1.2,0.5,1.5c-1.6,2.2-0.1,4.4,0,6.5c0,0.3,0.7,0.6,1.3,1.1c-0.1,0.8-0.2,2.1-0.4,3.4c-0.2,0-0.4-0.1-0.5-0.1
		c-0.1-0.8-0.2-1.6-0.2-2.4c-0.2,0-0.4,0-0.6,0c-0.1,1-0.3,2.1-0.2,3.1c0.2,2.7,0.7,5.5,0.7,8.2c0,3.2-0.2,6.3,2.6,9
		c-0.6-3-1.1-5.7-1.6-8.5c-0.1-0.6,0.2-1.2,0.3-1.9c0.6,0.3,1.4,0.5,1.6,1c0.4,0.9,0.4,2.1,0.6,3.1c0.4,1.4,0.8,2.7,1.3,4.3
		c-0.1,1.1-0.3,2.5-0.4,4c0,0.2,0.9,0.4,1.2,0.5c0.2,1,0.5,2.1,0.7,3.2c0.2,0.9,0.3,1.9,0.5,2.8l0,0c0,0,0,0,0,0.1c0,0,0,0,0,0
		c2.5,2.5,2.6,9.4,1.8,10.7c0.7,3,1.3,5.6,1.9,8.2c0.1,0.5,0.3,1,0.5,1.5c0.7,1.8,2.5,3.4,0.8,5.5c1.8,0.3,3.7,2.9,3.9,4.6
		c0.2,1.7,0.1,3.6,1,4.9c1.8,2.9,2.9,5.9,3.1,9.3c0,0.4,0.1,0.9,0.3,1.3c0.8,1.7,1.5,3.4,2.4,5c0.9,1.6,2,3,2.8,4.6
		c0.5,1,1.1,2.4,0.8,3.4c-0.5,1.6-0.9,3.2,0,4.5c1.1,1.7,2.7,3.1,4.1,4.6c0.1-0.1,0.3-0.2,0.4-0.3c-0.2-0.6-0.4-1.2-0.6-1.8
		c2.1,0.4,2.6,2.8,2.2,3.4c-1.2,1.5-0.2,2.3,0.3,3.3c1.2,2.4,2.4,4.8,3.8,7.2c2.1,3.5,4.3,6.8,6.4,10.1c0.8-0.3,1.5-0.7,2.4-1.1
		c0,0,0-0.1,0-0.1c0-0.1,0-0.3,0.1-0.5c1.8,1.4,3.2,4.1,3.4,6c0,0.7,0.2,1.6,0.6,2.1c1.7,2.2,3.5,4.4,5.4,6.4
		c1.1,1.1,2.5,1.8,3.9,2.7c-0.6,1.1-0.5,1.2,0.6,1.3c0.4,0,0.9,0.2,1.2,0.4c1.3,1.5,2.6,3.1,3.9,4.6c1.5,1.7,3,3.4,4.5,5.1
		c0.8,0.9,1.7,1.9,2.6,2.8c0.8,0.8,2,1.3,2.6,2.1c0.9,1.3,1.7,2.4,3.3,2.9c0.5,0.1,0.8,0.7,1.1,1.1c0.4,0.5,0.6,1.2,1.1,1.6
		c1.5,1.5,3.1,2.9,4.7,4.3c3.3,3,6.7,6,10,8.9c0.4,0.4,1.1,0.9,1,1.2c-0.2,1.4,0.6,1.2,1.5,1.3c3.7,0.5,5.8,3.5,9,5.4
		c-0.7,0.2-1.1,0.3-1.4,0.4c1.4,1,2.8,2.1,4.2,3c1,0.6,2.1,1.3,3.3,1.5c2.1,0.4,2.3,0.6,1.8,2.6c1.2,0.6,2.9,0.8,3.5,1.8
		c0.9,1.5,1.7,1.3,2.9,0.5c1,2,2.1,3.6,4.4,3.7c0.4,0,0.7,0.3,1,0.5c1.1,0.6,2.3,1.1,3.4,1.8c0.8,0.5,1.4,1.2,2.2,1.9
		c0.6,0.1,1.7,0.2,2.9,0.4c-0.5,0.4-0.8,0.7-1,0.9c0.7,0.5,1.3,0.9,1.9,1.3c0,0,0,0,0,0c0,0,0,0,0,0c0,0,0,0,0,0
		c1.2,0.5,2.3,1.1,3.5,1.6c1.9,0.7,4,1,5.9,1.8c6.5,2.9,12.9,6.1,19.4,9c4.5,1.9,9.2,3.4,13.8,5c0.7,0.3,2.2-0.1,2.3,0.3
		c0.9,2,2,1.7,3.4,0.8c0.2-0.1,0.6,0.1,1,0.2c-0.9,1.3-0.3,1.6,0.8,1.6c0.6,0,1.3-0.2,1.6,0c2.3,1.6,5.1,1.7,7.6,1.8
		c3.2,0.1,5.5,1.4,7.9,3.3c0.9-1.1,1.6-0.7,2.8-0.1c1.5,0.8,3.3,0.8,5,1.1c0.6,0.1,1.3-0.1,1.9,0c0.8,0.2,1.5,0.9,2.2,0.8
		c2.5-0.1,4.8,0.4,7,1.5c0.5,0.2,1.1,0.3,1.6,0.2c2-0.2,4-0.6,6,0.3c0.5,0.2,1.1,0.2,1.7,0.3c4,0.2,8,0.5,12,0.7
		c1,0,2.1-0.3,3.1-0.4c-1.1-0.7-2.1-1-3.1-1.2c-1.1-0.2-2.2-0.2-3.2-0.3c0.7-0.2,1.5-0.3,2.2-0.3c5.1,0.3,10.3,0.6,15.4,0.8
		c2.3,0.1,4.6-0.2,6.9-0.3c0-0.3,0-0.6,0-1c-0.9-0.1-1.9-0.1-2.8-0.2c0-0.2,0-0.4,0-0.6c1.9-0.1,3.9-0.2,5.8-0.3
		c0.2,0,0.5,0.6,0.8,1.1c1.3,0.2,2.9,0.4,4.5,0.6c-0.1-0.2-0.1-0.3-0.2-0.5c0.9-0.4,1.8-1,2.7-1.2c1.5-0.4,3-0.6,4.5-0.8
		c0.4-0.1,0.9,0.2,1.2,0.4c1.1,0.6,3.2-0.1,3.3-0.6c1.7-0.6,3.2-1.2,4.8-1.7c0.4-0.1,0.8-0.1,1.2-0.1c0.6,0,1.2-0.1,1.7-0.1
		c-0.1-0.7-0.2-1.5-0.4-2.2c-0.1-0.3-0.3-0.6-0.6-1c1-0.4,1.8-0.8,2.9-1.2c-0.3-0.6-0.6-1.1-0.8-1.5c-0.8,0.5-1.3,1.1-1.9,1.1
		c-3,0-3-0.1-4.1,3.1c-4.3-2.7-9.1-1.6-13.8-2.1c3.4-2.4,6.7-4.6,11.5-3c-1.2,0.2-2.1,0.3-3,0.4c0,0.2,0,0.4,0,0.6
		c0.6,0,1.3,0.3,1.8,0.1c1.5-0.3,2.9-0.9,4.4-1.3c2.4-0.6,4.8-1.2,7.2-1.8c0.6-0.1,1.2-0.2,1.9-0.2c3.2-0.2,5.8-1.2,7.7-4
		c1.3,0.2,2.5,0.5,3.8,0.7c0.5,0.1,1-0.1,1.4-0.1c0-0.2,0-0.4,0-0.7h-3.2c0.6-0.5,0.9-0.8,1.2-1.1l-0.2-0.3
		c-0.9,0.2-1.7,0.4-2.6,0.6c0.5-0.9,2.4-0.9,2-2.2h-7.5c-0.1,1.1-1,1.4-2.4,1.1c-0.6-0.1-1.8,0.1-2,0.5c-0.8,1.6-2.1,1.6-3.7,1.5
		c0.9-1,1.6-1.8,2.4-2.6c-2.9-0.5-6.7,0.9-8.6,2.9c-0.6,0.6-1.7,0.7-2.5,1c-0.1-0.2-0.1-0.3-0.2-0.5c0.2-0.3,0.4-0.5,0.6-0.8
		c-0.6-0.4-1.1-0.9-1.6-1.2c-0.5-0.3-1.3-0.3-1.6-0.7c-0.6-0.7-3.3-1.1-3.8-0.3c-0.9,1.4-2,1.5-3.8,1.1c1.5-1,2.6-2.1,3.9-2.6
		c2.9-1,5.9,0,9-1.2c2.3-0.9,5.3-0.3,8-0.4c0.3,0,0.5-0.3,1-0.5c-0.7-0.3-1.2-0.5-1.7-0.7c1.8-1,3.7-0.6,3.3-3c0-0.3,0.6-0.7,0.9-1
		c1.3-1.3,2.9-1.6,4.8-1.1c0,0.4,0,0.8-0.1,1.4c2-1,4.6-1.5,5.5-2.9c1.4-2.2,2.6-1.1,4-1c0.4-0.3,0.9-0.4,1.4-0.4c0.5,0,1,0.1,1.5,0
		c1.2-0.4,2.3-0.9,3.4-1.3c0.1,0.2,0.1,0.4,0.2,0.6c-1.4,0.5-2.8,1-4.2,1.5c0.1,0.2,0.1,0.5,0.2,0.7c1-0.2,2.1-0.2,3-0.6
		c2.5-1,4.9-2.1,7.3-3.2c0.4-0.2,0.7-0.7,1-1c0,0-0.3-0.4-0.3-0.4c-0.4,0.2-0.8,0.5-1.6,1c0.1-0.7,0.1-1.4,0.3-1.5
		c0.7-0.3,1.5-0.4,2.3-0.5c0.7-0.1,1.5-0.1,2.2-0.2c0.5-0.1,0.9-0.3,1.4-0.5c0.8-0.4,1.6-0.8,2.4-1.2c-0.1-0.2-0.1-0.3-0.2-0.5
		c-0.7,0.1-1.4,0.3-2.4,0.5c2-2.2,6.2,0.2,6.7-3.6c0.8-0.1,1.5-0.2,2.2-0.3c0-0.1,0-0.3,0-0.4c-0.5-0.2-0.9-0.5-1.8-0.9
		c1.3-1,2.3-1.8,3.1-2.5c-0.4-0.6-0.7-1.1-0.9-1.5c-1.4,0.6-2.9,1.4-4.5,1.7c-1.6,0.3-3.3,0.1-5.2,0.1c0,0-0.1-0.4-0.2-0.7
		c-1.1,0.4-2.1,0.8-3.2,1.2c-0.1-0.2-0.2-0.5-0.2-0.7c2.5-0.8,4.9-1.7,7.5-2.4c1.5-0.4,3.1-0.9,4.7-0.9c1.3,0,6-1.4,6.2-2.5
		c0.2-1.3,1-1.4,1.8-1.8c1.1-0.5,2.1-1.1,3.2-1.5c0.8-0.4,1.7-0.6,2.5-0.9c0.1,0.2,0.2,0.4,0.2,0.6c-1.5,0.8-3.1,1.5-4.9,2.4
		c0.9,0.3,1.6,0.6,2,0.7c0.7-0.5,1.2-1,1.8-1.4c0.1,0.3,0.1,0.6,0.2,1c1.1-0.4,2.1-0.8,3.2-1.3c0-0.1-0.1-0.3-0.1-0.4
		c-0.7,0.1-1.4,0.2-2.7,0.4c2-1.1,3.6-1.9,5.1-2.8c1.3-0.8,2.2-1,2.9,0.8c0.2-0.3,0.3-0.5,0.3-0.6c0.2-1.8,0.2-3.8,2.4-4.2
		c2.8-0.5,4.2-2.8,6-4.5c0.3-0.3,0.9-0.8,1.3-0.7c1.9,0.3,2.5-1,3.1-2.3c-0.9,0-1.6-0.1-2.9-0.2c1.7-1.3,3.1-2.4,4.4-3.4
		c0.1,0.1,0.2,0.3,0.3,0.4c-0.4,0.4-0.9,0.8-1.5,1.4c1.3,1,2.4,1.8,3.4,2.6c0.7-0.2,1.3-0.3,2.1-0.5c-0.6,1.2-1.1,2.1-1.6,3.1
		c0.2,0.1,0.4,0.2,0.6,0.3c2.6-1.2,2-4.6,4-6.3c-0.3,0-0.6-0.1-1.4-0.2c1.1-0.7,1.7-1.1,2.3-1.5c1.2-0.9,2.5-1.7,3.7-2.8
		c0.8-0.8,1.3-1.7,2.8-1.5c1.2,0.1,2.5-0.6,3.7-1c0.3-0.1,0.8-0.6,0.8-0.8c-0.6-1.4,0.6-1.4,1.3-1.7c0.5-0.2,0.9-0.6,1.3-0.9
		c-0.1-0.2-0.2-0.4-0.3-0.6c-0.8,0.4-1.7,0.6-2.5,1.1c-0.9,0.5-1.7,1.2-2.8,2c0.5-2.3,1.7-3.3,3.4-3.9c0.5-0.2,1-0.4,1.3-0.8
		c0.9-1.2,1.8-2.4,2.7-3.5c0.3-0.3,0.9-0.3,1.3-0.4c0,0.5,0.1,1,0,1.4c-0.2,0.7-0.6,1.4-1,2.3c1.7-0.4,2.3-2.8,4.2-1.2
		c0.8-0.8,1.5-1.6,2.6-2.8c-0.4,1.2-0.7,1.9-0.9,2.6c1.4-1.5,2.1-3.3,3.4-4.7c1.4-1.5,3.3-2.6,5-3.9c-0.1-0.1-0.2-0.2-0.2-0.3
		c-0.5,0.3-0.9,0.5-1.4,0.8c1.2-1.2,0.5-3.6,2.7-4c0.1,0,0.1-1,0.1-1.5c-0.5,0-1.2-0.3-1.5,0c-0.9,0.6-1.6,1.4-2.4,2.1
		c-0.1-0.6,0-1,0.3-1.2c1.7-1.2,3.4-2.3,5-3.6c0.7-0.5,1.7-1.3,1.7-2c0.1-1.7,0.1-2,1.6-2.9c-0.1,0.5-0.1,0.9-0.2,1.4
		c1.2-1.2,1.9-2.5,2.7-3.8c0.2-0.4,0.8-1.1,1-1c1.2,0.5,1.3-0.1,1.4-1.1c0.1-0.7,0.4-1.6,0.9-1.9c2-1.2,2.9-3.2,4-5.1
		c0.2-0.4-0.1-1.1-0.2-2c1.2-1.1,2.7-2.5,4.1-4c0.4-0.5,0.3-1.4,0.5-2.1c0.2-0.8,0.3-2.1,0.8-2.4c3.4-1.8,2.7-5.9,5.2-8.3
		c-0.5-0.2-0.9-0.3-1.6-0.5c1.9-1.3,0.9-4,3.1-5.1c0.1-0.1-0.2-1.1-0.4-1.8c-0.2,0-0.5,0-0.7,0c0.5-0.6,0.9-1.5,1.5-1.7
		c2.3-0.7,3.6-1.9,3-4.4c0-0.2,0.3-0.5,0.6-0.9c0.7,0.5,1.3,0.9,1.9,1.4c1.4-1.8,3.9-2.6,4.2-5.7c-0.8,1-1.3,1.7-2.2,2.8
		c-0.3-4.4,3.6-6.1,4.6-9.1c-0.9-0.4-1.6-0.6-2.3-0.9c0.3-1.1,0.6-2.2,0.9-3.2c0.5-0.5,1.1-0.9,1.3-1.5c0.7-1.9,0.4-4.3,2.9-5.3
		c0.2-0.1,0.1-0.9,0.1-1.4c-0.5,0.1-1.2,0-1.5,0.3c-0.5,0.4-0.8,1.1-1.2,1.7c-0.1-0.1-0.3-0.1-0.4-0.2c0.5-1.9,0.9-3.9,1.6-5.8
		c0.2-0.5,1.2-0.6,1.8-0.9c0.1,0.2,0.3,0.3,0.4,0.5c1.7-3.9,3.5-7.9,5.2-11.8c-0.3-0.1-0.5-0.2-0.8-0.3c-0.6,1.1-1.2,2.3-1.8,3.5
		c0.2-2.3,0.9-4.6,0.3-6.3c-0.9-2.7,2.7-3.2,2-5.5c0-0.1,0-0.1,0-0.2c-1.1-2.9,0.5-5.5,1-8.3c0.5-3.2,2.1-6.5-0.2-9.8
		c-0.4-0.6,0.3-2.2,0.7-3.2c0.5-1.2,0.8-2.2-0.8-2.7c1.7-2.1,1.7-2.1-0.7-3.3c-0.1,1.2-0.2,2.3-0.2,3c-0.7,0.2-1.3,0.3-2,0.5
		c-0.2-0.2-0.5-0.6-1.2-1.4v4.4c-0.2,0-0.4,0-0.6,0c-0.1-1.3-0.1-2.6-0.2-4.1c-0.9,0.3-1.5,0.5-2.2,0.7c-0.4-2-0.9-3.8-1.2-5.7
		c-0.2-1.2,0.1-2.5,0.1-3.7c0-0.2-0.1-0.3-0.2-0.6c-0.5,0.2-1,0.5-1.5,0.7c-0.1-1.2-0.2-2.2-0.3-3.1c-0.5,1.5-1.7,3.1-1.5,4.6
		c0.3,2.3-0.7,4.1-1.2,6.1c-0.8,3.2-0.8,6.6-1.4,9.9c-0.5,2.9-1.1,5.8-1.8,8.6c-0.4,1.7-1.1,3.3-1.6,5c-2.5,8.3-5.1,16.7-7.6,25
		c-1.6,5.1-4.5,9.6-5.5,14.9c-0.4,2.1-1.9,4-3,5.9c-0.8,1.4-0.5,1.8,1,1.7c-0.1,0.3-0.2,0.5-0.3,0.6c-1.7,2.6-3.4,5.1-5.2,7.6
		c-0.4,0.5-1.1,0.7-2.1,1.2c0.4,0.3,0.8,0.7,1.4,1.3c-0.1,0.3-0.2,1.3-0.5,1.4c-1.8,0.4-1,1.5-0.3,3c-1.3-0.5-2.1-0.8-2.9-1.1
		c-0.2-0.4-0.3-0.8-0.5-1.2c-0.3,0.7-0.6,1.3-0.9,2c-0.7,1.5-1.1,3.4-2.3,4.4c-2.6,2.3-2.8,5.6-4.5,8.3c-0.6,0.9-1.3,1.8-1.9,2.6
		c-0.1-0.1-0.2-0.2-0.4-0.3c0.1-0.4,0.2-0.8,0.4-1.6c-0.7,0.6-1.2,1-1.5,1.4c-2.4,2.7-4.8,5.5-7.1,8.3c-1.6,2-2.9,4.5-4.8,6.1
		c-2.6,2.1-5.2,4.2-6.8,7.2c-0.2,0.4-0.7,0.6-1,0.8c-1.6,1.2-3.2,2.3-4.8,3.4c0.1,0.2,0.3,0.4,0.4,0.6l1.8-1.1
		c-0.2,0.5-0.5,0.9-0.9,1.1c-2,1.2-4.5,1.7-6.1,3.7c-0.6,0.8-1.3,1.7-2.1,2.3c-3.9,2.9-7.8,5.6-11.6,8.5c-0.4,0.3-0.4,1.1-0.8,1.6
		c-0.5,0.6-1.1,1-1.7,1.5c-0.6-1.2-1.3-0.2-1.8,0.1c-1.9,1.1-3.7,2.4-5.6,3.6c-0.1,0-0.1,0.2-0.1,0.3c0.3,0.2,0.6,0.3,1.2,0.6
		c-0.6,0.3-0.9,0.6-1.2,0.7c-2.4,0.4-4.2,1.7-5.9,3.2c-0.5,0.4-1.2,0.7-1.9,1c-1.8,0.7-3.6,1.1-5.3,1.9c-7.2,3.2-14.3,6.6-21.5,9.8
		c-2.8,1.2-5.7,2.3-8.7,3c-2.9,0.7-5.3,2.5-8.5,2.9c-7,0.9-13.8,2.9-20.6,4.5c-0.4,0.1-0.8,0.6-1.1,1c-0.2,0.2-0.4,0.6-0.7,0.7
		c-1.7,0.4-3.4,1.1-5.2-0.3c-0.5-0.4-1.7-0.9-2.2,0.6c-0.2,0.5-1.5,0.6-2.2,0.9c0-0.1-0.1-0.2-0.1-0.4c0.3-0.2,0.5-0.4,1.3-1
		c-1.2,0.1-1.8,0.2-2.4,0.3c-1.3,0.3-2.6,0.8-4,1c-1.3,0.2-2.6,0.3-3.9,0.5c-0.7,0.1-1.5,0.2-2.1,0c-1.1-0.4-2-0.8-2.9,0.5
		c-0.2,0.3-1.4,0.3-1.6,0.1c-1.4-1.7-3.1-0.8-4.8-1c0.2,0.4,0.4,0.7,0.5,0.9c-3.1,0.8-6.1,0.3-9-0.8c-0.3-0.1-1,0.3-1.4,0.6
		c-1,0.7-1.8,0.9-2.7-0.1c-0.2-0.3-0.7-0.5-1-0.6c-4.5-0.4-9-0.7-13.5-1.3c-5.6-0.7-11.3-1.7-16.9-2.7c-4.2-0.8-8.3-1.8-12.4-3.1
		c-8.6-2.8-17.3-5.5-25.7-8.8c-6.7-2.7-13-6.2-19.4-9.4c-0.1,0-0.2,0-0.4,0c0.1,0.3,0.2,0.5,0.5,1.2c-1.1-0.6-1.9-0.9-2.7-1.3
		c0.1-0.2,0.2-0.4,0.3-0.6c0.4,0.1,0.9,0.2,1.3,0.3c0-0.1,0.1-0.2,0.1-0.3c-1.2-0.6-2.3-1.3-3.6-2c0.1,0.6,0.1,1,0.2,1.7
		c-1.1-0.4-2-0.6-2.9-0.9c0.1-0.2,0.1-0.3,0.2-0.5c0.7-0.1,1.4-0.2,2.4-0.3c-2.2-1.4-4-2.6-5.9-3.7c-2-1.2-4-2.3-6-3.4
		c-0.6-0.4-1-1.1-1.6-1.7c-7.3-5.9-14.8-11.5-21.7-17.7c-11.5-10.5-21.7-22.1-30-35.3c-4.8-7.6-9.4-15.4-13.6-23.4
		c-3.4-6.5-6.2-13.2-8.7-20c-3.7-10.3-6.9-20.7-8.5-31.6c-1.2-7.9-2.7-15.8-3.2-23.8c-0.8-14.4-0.7-28.9,1.6-43.2
		c1.3-7.8,2.9-15.6,4.8-23.3c3-11.9,7.3-23.4,12.6-34.5c6.3-13.5,14.2-26,23.4-37.7c14.1-18.2,31-33.4,50.3-46
		c10.6-6.9,21.7-12.8,33.5-17.3c7.5-2.8,15.1-5.5,22.8-7.8c4.8-1.4,9.6-2.8,14.6-3.6c2.6-0.4,5.1-1,7.7-1.3c8-0.8,16.1-1.6,24.1-2.2
		c4.2-0.3,8.4-0.5,12.6-0.3c4.1,0.1,8.3,0.7,12.4,1.2c6.7,0.8,13.5,1.3,20.1,2.7c9.1,2,18.2,4.4,27,7.2c10.9,3.4,21.2,8.2,31.3,13.5
		c2.3,1.2,4.1,3.5,7.1,2.8c0.2,2.5,2.5,2.3,3.8,3.5c0.3-0.5,0.5-0.9,0.6-1.2c0.2,0,0.3,0,0.5,0c0.1,0.7,0.2,1.4,0.4,2.2
		c1.6,1.6,4.2,2.1,6,3.9c1.5,1.5,3.4,2.6,5.2,3.7c3.5,2.1,5.9,6.2,10.5,6.6c0.1,0,0.2,0.4,0.3,0.6c0.9,1.3,1.8,2.7,2.9,3.9
		c0.5,0.6,1.3,0.8,1.9,1.4c6.6,6.9,13.3,13.8,19.9,20.8c1.6,1.8,3.2,3.7,4.5,5.7c1.2,2,4,2.7,4.2,5.5c0,0.6,1.2,1,1.7,1.7
		c1.3,1.7,2.5,3.5,3.7,5.2c0.6,0.8,1.2,1.6,1.5,2.5c1.2,3.1,2.6,6,5.3,8.1c0.3,0.2,0.4,0.6,0.5,1c0.2,0.6,0.3,1.3,0.6,1.8
		c1.4,2.3,2.8,4.5,4.2,6.7c0.1,0.2,0.2,0.5,0.2,0.5c-1.3,0.9,0,1.3,0.4,1.8c0.2,0.3,0.4,0.6,0.6,0.9c2,5.1,4,10.2,6,15.3
		c0.6,1.4,1.5,2.7,2.2,4.1h0.1c0.3-0.8,0.5-1.5,1-2.9c0.8,2.1,1.4,3.8,2,5.4c-0.2,0.1-0.4,0.2-0.7,0.2c-0.2-0.9-0.5-1.8-0.8-2.8
		c-0.5,0-1,0-1.6,0c0,0,0,0,0,0.1c0,0,0,0,0-0.1h0c0.6,2.3,1.2,4.6,1.8,6.8c0.6-0.3,1-0.5,1.4-0.7c0.2,0.4,0.5,0.7,0.4,1.1
		c-0.1,1.4,0,2.6,1.8,2.9c0.3,0.1,0.5,1,0.7,1.5c-0.2,0.1-0.4,0.2-0.6,0.4c-0.7-0.6-1.5-1.2-2.3-1.9c0,0.4-0.2,0.8-0.1,1.1
		c1,3.5,2.1,7.1,3.1,10.6c0.2,0.8,0.2,1.7,0.6,2.3c0.9,1.3,1.1,2.5,0.9,4c-0.1,0.8,0,1.7,0.2,2.5c0.5,2.7,1,5.3,1.5,8
		c0.3,1.6,0,3.2,1.1,4.8c0.5,0.7,0.2,2.2,1.1,3.3c0.5,0.6,0.5,2.7,0,3.1c-1.4,1.1-0.8,2.4-0.8,3.6c0.1,2.8,0.4,5.6,0.6,8.4
		c0,0.6,0.1,1.3,0.1,2.1c0.4-0.3,0.5-0.4,0.6-0.5c0.2-2.3,0.3-4.6,0.4-6.9c0-0.2-0.1-0.4-0.2-0.6c-0.7-2,0.2-5.4,2.1-6.6
		c-0.5-0.3-1-0.5-1.2-0.9c-0.3-0.4-0.8-1.2-0.7-1.4c1.2-1.9,0.8-3.5-0.6-5c0.5-0.6,0.9-1.2,1.3-1.7c0-0.5,0.1-1,0-1.5
		c-0.4-2.4-1.3-4.9-1.1-7.2c0.2-2.5-0.8-4.5-1.7-6.5c-0.6-1.3-0.8-2.1,0.3-2.7c-0.8-2-1.6-3.9-2.3-5.8c-0.1-0.2,0.6-0.6,1-0.9
		c0.3,0.7,2.9,0.6,0.9,2.3c-0.2,0.1-0.1,0.7,0,0.9c1.6,3.8,2.7,7.8,2.9,12c0,0.2,0.7,0.4,1,0.6c-0.2-1.8-0.6-3.7-0.7-5.5
		c-0.1-1.9,0.1-3.7,0.2-5.6c1,2.9,1.8,5.8,2.2,8.7c0.7,5.2,1.2,10.5,1.9,15.7c0.1,0.8,0.6,1.5,1,2.3c-1.3,1.4,0.5,3.2,0.5,4.7
		c0.7,0.5,1.5,1.2,1.4,1.7c-0.2,1.2,0.2,2.4-1.1,3.7c-1.6,1.6,0,3.9,0.5,5.9c0,0.1,0.4,0.3,0.6,0.3c0.2,0,0.5-0.3,0.5-0.5
		c0-1.7,0-3.4,0-5.1c0.1-0.1,0.2-0.1,0.4-0.2c0.4,0.8,0.8,1.7,1.2,2.5c0.4-2.5,0.8-5,1.2-7.5c0.3,0.1,0.8,0.2,1.2,0.2
		c-0.4-2.5-0.7-5-1.1-7.4c0.1,0,0.3-0.1,0.4-0.1c0.3,0.3,0.5,0.5,1.2,1.1c0.6-5.4,0.8-10.3-0.3-15.4c-0.6,0.2-1.1,0.3-1.7,0.4
		c0.1-0.4,0-0.8,0.2-0.9c1.1-1.2,1.6-2.4,0.5-3.8c-0.2-0.2,0.1-0.7,0.1-1.1c0-1-0.1-2-0.2-3c0-0.4-0.2-1.1,0-1.3
		C541.7,350.6,540.2,349.2,539.1,347.9"/>
	<path class="st1" d="M356.9,150.2c-0.2-0.1-0.3-0.3-0.5-0.7c-0.1-0.3-0.2-0.8-0.3-1.4c-0.1-0.6-0.1-1.3-0.1-2.2
		c0-0.9,0.1-1.7,0.4-2.4c0.3-0.7,0.6-1.3,1-1.9c0.4-0.6,0.9-1.1,1.5-1.7c0.6-0.5,1.1-1.1,1.7-1.7c0.2-0.3,0.5-0.5,0.7-0.7
		c0.2-0.2,0.5-0.4,0.7-0.6c-0.2,0.9-0.5,1.9-0.7,2.8s-0.4,1.8-0.6,2.6c-0.2,0.8-0.4,1.5-0.5,2.1c-0.1,0.6-0.3,1.1-0.3,1.4
		c-0.4,1.4-0.7,2.5-1.1,3.3c-0.3,0.8-0.8,1.2-1.3,1.2C357.3,150.4,357.1,150.3,356.9,150.2 M357.4,130.3c-0.3-0.7-0.5-1.6-0.5-2.8
		c0-0.9,0.1-1.9,0.4-2.9c0.3-1,0.6-2,1.1-2.8c0.5-0.9,1-1.6,1.6-2.1c0.6-0.5,1.3-0.8,1.9-0.8c0.4,0,0.8,0.2,1.1,0.7
		c0.3,0.4,0.6,1.1,0.7,2.1c0,0.2,0,0.4,0.1,0.7c0,0.2,0,0.5,0.1,0.7c0.1,0.2,0.1,0.5,0.2,0.7c0.1,0.2,0.2,0.3,0.4,0.3
		c0.2,0,0.3,0.2,0.3,0.5c0,0.3,0,0.6-0.1,1s-0.2,0.8-0.3,1.2c-0.2,0.4-0.3,0.7-0.4,1c-0.1,0.2-0.3,0.6-0.6,1c-0.3,0.4-0.6,0.8-1,1.2
		c-0.4,0.4-0.9,0.7-1.4,1c-0.5,0.3-1,0.5-1.6,0.5C358.4,131.3,357.7,131,357.4,130.3 M365.1,137.3c0.2-0.8,0.4-1.8,0.7-3
		c0.6-0.4,1.4-0.9,2.3-1.5c0.9-0.6,1.8-1.3,2.7-2.1c0.9-0.8,1.9-1.7,2.8-2.6c0.9-0.9,1.7-1.9,2.3-2.9c0.2-0.4,0.3-0.6,0.3-0.8
		c0-0.2-0.2-0.3-0.4-0.4c-0.2,0-0.4,0-0.7,0.1c-0.3,0.1-0.5,0.4-0.7,0.7c-0.3,0.4-0.7,0.9-1.3,1.5c-0.6,0.6-1.2,1.2-2,1.9
		c-0.7,0.7-1.5,1.3-2.3,1.9c-0.8,0.6-1.6,1.2-2.4,1.6c0.2-1.1,0.5-2.2,0.8-3.4c0.3-1.1,0.5-2.2,0.7-3.2c0.2-1,0.4-1.8,0.6-2.5
		c0.1-0.7,0.3-1.1,0.3-1.3c0.1-0.5,0.2-0.9,0.3-1.2c0.1-0.3,0.2-0.5,0.2-0.7c0.1-0.2,0.2-0.3,0.2-0.5c0.1-0.2,0.2-0.4,0.3-0.7
		c0-0.1-0.1-0.2-0.4-0.4c-0.3-0.1-0.6-0.2-1-0.2c-0.7,0-1.2,0.2-1.5,0.5c-0.3,0.3-0.6,1-0.9,1.9c-0.1,0.1-0.1,0.3-0.1,0.5
		c0,0.2-0.1,0.3-0.1,0.5c-0.1-0.4-0.2-0.9-0.4-1.4c-0.2-0.5-0.4-1-0.7-1.4c-0.3-0.5-0.7-0.8-1.1-1.1c-0.4-0.3-1-0.5-1.6-0.5
		c-1.3,0-2.4,0.4-3.5,1.2c-1,0.8-1.9,1.8-2.6,2.9c-0.7,1.1-1.3,2.4-1.6,3.7c-0.4,1.3-0.6,2.5-0.6,3.5c0,2.1,0.4,3.6,1.1,4.7
		c0.7,1.1,1.7,1.6,2.9,1.6c1.3,0,2.4-0.3,3.4-1s1.9-1.5,2.6-2.4c-0.1,0.4-0.2,0.8-0.3,1.3c-0.1,0.5-0.3,1-0.4,1.5
		c-0.5,0.4-1.1,0.9-1.6,1.4c-0.6,0.5-1.2,1-1.8,1.6c-1.3,1.1-2.3,2-3.2,2.7c-0.8,0.7-1.5,1.4-1.9,2.1c-0.5,0.7-0.8,1.3-1,2.1
		c-0.2,0.7-0.3,1.6-0.3,2.7c0,0.8,0.1,1.7,0.3,2.6c0.2,0.9,0.5,1.8,1,2.6c0.4,0.8,1,1.5,1.6,2c0.6,0.5,1.4,0.8,2.3,0.8
		c0.6,0,1.1-0.3,1.6-0.8c0.5-0.5,0.9-1.3,1.4-2.1c0.4-0.9,0.8-1.8,1.1-2.9s0.6-2.2,0.9-3.3c0.3-1.1,0.5-2.1,0.7-3.1
		c0.2-1,0.4-1.8,0.5-2.5C364.7,138.8,364.9,138.1,365.1,137.3 M348.4,134c0.7-0.4,1.3-0.8,2-1.4c0.7-0.6,1.3-1.2,2-2
		c0.6-0.7,1.2-1.4,1.8-2.2c0.5-0.7,1-1.4,1.4-2c0.4-0.6,0.7-1.1,0.9-1.5c0.2-0.4,0.3-0.8,0.3-1.1s-0.1-0.5-0.2-0.6
		c-0.1-0.1-0.3-0.1-0.5,0c-0.2,0.1-0.5,0.3-0.7,0.7c-0.4,0.5-0.9,1.3-1.6,2.2c-0.7,0.9-1.4,1.8-2.2,2.6c-0.8,0.8-1.5,1.6-2.3,2.2
		c-0.8,0.6-1.4,0.9-1.9,0.9s-0.8-0.2-0.8-0.7c0-0.4,0-1,0.2-1.6c0.3-0.9,0.6-1.8,0.8-2.6c0.2-0.8,0.4-1.5,0.5-2l0.5-1.8
		c0.2-0.9,0.3-1.7,0.3-2.4c0-0.7-0.2-1.4-0.4-1.9c-0.2-0.5-0.6-1-1-1.3c-0.4-0.3-0.9-0.5-1.4-0.5c-0.6,0-1.2,0.1-1.8,0.4
		c-0.6,0.3-1.2,0.6-1.7,1c-0.5,0.4-1,0.9-1.5,1.4c-0.5,0.5-0.9,1-1.2,1.5c0.2-0.5,0.3-0.9,0.4-1.4c0.1-0.4,0.2-0.7,0.3-1.1
		c0.1-0.3,0.2-0.6,0.3-0.8c-0.2-0.1-0.3-0.2-0.6-0.3c-0.2-0.1-0.4-0.1-0.6-0.1c-0.2,0-0.4,0-0.7,0c-0.2,0-0.5,0.1-0.7,0.2
		c-0.2,0.1-0.4,0.1-0.6,0.2c-0.2,0.1-0.4,0.2-0.6,0.4c-0.3,1-0.5,2-0.7,2.9c-0.2,0.9-0.4,1.6-0.5,2.3c-0.2,0.8-0.3,1.5-0.5,2.1
		c-0.2,0.8-0.4,1.6-0.6,2.5c-0.2,0.9-0.4,1.7-0.6,2.5c-0.2,0.8-0.4,1.5-0.5,2c-0.1,0.6-0.2,0.9-0.3,1.1c-0.1,0.2,0.1,0.4,0.4,0.4
		c0.3,0,0.7-0.1,1.2-0.2c0.5-0.2,0.9-0.4,1.3-0.6c0.4-0.3,0.7-0.5,0.7-0.8c0.1-0.4,0.2-0.8,0.3-1.2c0.1-0.4,0.2-0.9,0.3-1.5
		c0.1-0.6,0.3-1.2,0.4-1.9c0.2-0.7,0.4-1.5,0.6-2.4c0.5-0.7,0.9-1.3,1.4-2c0.5-0.6,1-1.2,1.4-1.7c0.5-0.5,1-0.9,1.4-1.2
		s0.9-0.4,1.4-0.4c0.4,0,0.6,0.2,0.7,0.6c0.1,0.4,0.1,0.9,0.1,1.5c-0.1,0.6-0.2,1.3-0.3,2.1c-0.2,0.8-0.4,1.5-0.6,2.3
		c-0.2,0.8-0.4,1.5-0.6,2.1c-0.2,0.6-0.3,1.2-0.4,1.5c-0.1,0.6-0.2,1.1-0.1,1.6c0.1,0.5,0.3,1,0.5,1.3c0.3,0.4,0.6,0.7,1.1,0.9
		c0.5,0.2,1,0.3,1.6,0.3C347.1,134.6,347.8,134.4,348.4,134 M325,120.6c-0.3,1.1-0.6,2.3-0.8,3.5c-0.2,1.2-0.4,2.5-0.5,3.6
		c-0.1,1.2-0.1,2.1,0,2.8c0,0.5,0.2,0.9,0.4,1.3c0.2,0.4,0.6,0.8,0.9,1.1c0.4,0.3,0.8,0.6,1.2,0.7c0.5,0.2,0.9,0.3,1.4,0.2
		c0.6,0,1.3-0.4,2.2-1.1c0.9-0.7,1.9-1.5,2.8-2.5c1-1,1.9-2,2.7-3c0.8-1.1,1.5-2,1.9-2.7c0.2-0.3,0.3-0.6,0.3-0.9
		c0-0.2-0.1-0.4-0.2-0.5c-0.2-0.1-0.3-0.1-0.6,0c-0.2,0.1-0.5,0.3-0.7,0.5c-0.4,0.5-0.9,1.2-1.6,2.1c-0.7,0.9-1.5,1.7-2.4,2.5
		c-0.9,0.8-1.7,1.6-2.5,2.2c-0.8,0.6-1.5,0.9-2.1,0.9c-0.2,0-0.4-0.1-0.5-0.2c-0.2-0.1-0.3-0.3-0.5-0.7c-0.1-0.3-0.2-0.7-0.1-1.2
		c0.1-0.5,0.2-1.1,0.3-1.7c0.1-0.6,0.3-1.2,0.5-1.8c0.2-0.6,0.4-1.2,0.5-1.7c0.1-0.5,0.3-1.1,0.6-1.9c0.3-0.8,0.5-1.5,0.8-2.3
		c0.2-0.7,0.5-1.4,0.6-1.9c0.2-0.5,0.2-0.8,0.2-0.9c-0.1,0-0.3,0-0.6,0c-0.3,0-0.7,0.1-1.1,0.1c-0.4,0.1-0.8,0.2-1.2,0.3
		c-0.4,0.1-0.6,0.2-0.8,0.4C325.8,118.7,325.4,119.5,325,120.6 M332,108.4c0-0.4-0.1-0.7-0.2-1c-0.1-0.3-0.3-0.5-0.5-0.7
		c-0.2-0.2-0.5-0.2-0.8-0.2s-0.7,0.2-1.1,0.6c-0.4,0.3-0.8,0.7-1,1.1c-0.3,0.5-0.4,0.9-0.4,1.4s0.3,1,0.9,1.4
		c0.2,0.2,0.4,0.2,0.7,0.2c0.3-0.1,0.6-0.2,0.9-0.3c0.3-0.2,0.5-0.4,0.8-0.7c0.2-0.3,0.4-0.6,0.5-0.9
		C331.9,109.1,332,108.8,332,108.4 M304.8,132.3c0.3-0.6,0.8-1.2,1.3-2.1c0.5-0.8,1-1.7,1.6-2.6c0.6-0.9,1.1-1.8,1.6-2.7
		c0.5-0.8,0.9-1.6,1.3-2.2c0.4-0.6,0.6-1,0.7-1.2c0.2,0.1,0.5,0.1,0.7,0.2c0.2,0.1,0.5,0.2,0.9,0.2c0.2,0,0.4,0,0.6,0
		c0.1,0,0.2,0,0.3,0s0.1,0,0.2,0c0.1,0,0.2,0,0.3,0c0.2,0,0.4,0.1,0.5,0.3s0.2,0.4,0.2,0.7c0,0.4-0.1,0.9-0.4,1.4
		c-0.3,0.6-0.7,1.2-1.1,2c-0.2,0.4-0.4,0.8-0.6,1.2c-0.2,0.4-0.5,0.8-0.7,1.2c-0.2,0.4-0.4,0.8-0.5,1.1c-0.2,0.4-0.2,0.7-0.3,1
		c0,0.4,0,0.9,0.1,1.3c0.1,0.5,0.3,0.9,0.6,1.3c0.3,0.4,0.7,0.7,1.1,1c0.5,0.3,1.1,0.4,1.8,0.4c0.7,0,1.4-0.2,2.2-0.6
		c0.8-0.4,1.5-0.9,2.3-1.6c0.8-0.6,1.5-1.4,2.2-2.1c0.7-0.8,1.3-1.5,1.9-2.3c0.6-0.7,1-1.4,1.4-2c0.4-0.6,0.7-1,0.8-1.3
		c0.2-0.4,0.3-0.7,0.3-1c0-0.2-0.1-0.4-0.3-0.5c-0.2-0.1-0.4-0.1-0.6,0c-0.2,0.1-0.4,0.2-0.5,0.5c-0.2,0.2-0.4,0.6-0.8,1.1
		s-0.8,1-1.3,1.7c-0.5,0.6-1,1.2-1.6,1.9c-0.6,0.6-1.2,1.2-1.7,1.8c-0.6,0.5-1.2,1-1.7,1.3c-0.6,0.3-1.1,0.5-1.5,0.5
		c-0.6,0-1-0.1-1.1-0.3c-0.1-0.2-0.2-0.5-0.3-0.9c-0.1-0.5,0.1-1.2,0.5-1.8c0.4-0.7,0.8-1.3,1.1-1.8c0.6-0.9,1.2-1.7,1.6-2.4
		c0.4-0.7,0.6-1.4,0.5-2.1c0-0.3-0.1-0.7-0.2-1.1c-0.1-0.4-0.2-0.8-0.4-1.1c-0.2-0.3-0.4-0.6-0.7-0.9c-0.3-0.2-0.7-0.3-1.1-0.3
		c-0.4,0-0.7,0-0.8,0.1c-0.2,0.1-0.5,0.1-0.9,0.1c-0.3,0-0.5,0-0.7-0.1c-0.1-0.1-0.2-0.1-0.3-0.2c0.3-0.4,0.5-0.9,0.6-1.5
		c0.1-0.5,0.1-1,0.1-1.4c-0.1-0.5-0.2-1-0.6-1.5c-0.3-0.5-0.9-0.7-1.6-0.7c-0.4,0-0.8,0.2-1.3,0.6c-0.4,0.4-0.8,0.8-1.2,1.4
		c-0.4,0.5-0.6,1.1-0.9,1.7c-0.2,0.6-0.3,1-0.2,1.4c0.1,0.4,0.1,0.7,0.2,0.8c0.1,0.1,0.3,0.3,0.6,0.6c-0.2,0.3-0.4,0.8-0.8,1.5
		c-0.4,0.7-0.7,1.4-1.2,2.3c-0.4,0.8-0.9,1.7-1.3,2.7c-0.5,0.9-0.9,1.8-1.3,2.6c-0.4,0.8-0.7,1.5-1,2.1l-0.6,1.1
		c-0.2,0.3-0.2,0.6-0.2,0.8c0.1,0.2,0.2,0.4,0.3,0.4c0.2,0.1,0.4,0.1,0.6,0c0.2-0.1,0.4-0.3,0.6-0.6
		C304.3,133.2,304.5,132.9,304.8,132.3 M294.4,121.8c1-1,1.9-1.5,2.8-1.5c0.6,0,1,0.2,1.2,0.7c0.2,0.5,0.3,1.1,0.3,1.9
		c0,0.6-0.2,1.3-0.4,2c-0.3,0.7-0.6,1.4-0.9,2c-0.4,0.7-0.8,1.3-1.2,1.9s-0.9,1.2-1.3,1.7c-0.7-0.4-1.2-0.7-1.7-1
		c-0.5-0.3-0.8-0.5-1.1-0.5c-0.3,0-0.5,0-0.8,0.1c-0.3,0.1-0.5,0.2-0.7,0.4c0.2-0.8,0.4-1.6,0.5-2.2c0.1-0.6,0.3-1.2,0.4-1.6
		C292.4,124,293.4,122.8,294.4,121.8 M285.3,151.2c0.4-0.1,0.7-0.5,0.9-1.3c0.5-2.7,0.9-5.1,1.3-7.2s0.8-3.9,1.1-5.4
		c0.4-1.7,0.7-3.2,1-4.6c0-0.1,0-0.2,0.1-0.3c0-0.1,0-0.2,0.1-0.3c0.1,0.3,0.2,0.6,0.3,0.9c0.1,0.3,0.3,0.6,0.5,0.9
		c0.2,0.3,0.5,0.5,0.8,0.6c0.3,0.1,0.7,0.2,1.2,0.2c0.5,0,1-0.1,1.5-0.3c0.5-0.2,1-0.5,1.5-0.9c0.2,0.1,0.4,0.2,0.5,0.2
		c0.1,0.1,0.3,0.1,0.4,0.2c0.2,0.1,0.3,0.1,0.6,0.1c0.2,0,0.5,0,0.9,0c0.7,0,1.5-0.2,2.3-0.6c0.8-0.4,1.5-0.9,2.3-1.5
		c0.7-0.6,1.4-1.3,2.1-2c0.7-0.7,1.3-1.4,1.8-2.1c0.5-0.7,1-1.3,1.3-1.8c0.4-0.5,0.6-0.9,0.7-1.2c0.2-0.4,0.2-0.6,0.2-0.9
		c0-0.2-0.1-0.4-0.2-0.5c-0.1-0.1-0.3-0.1-0.5,0c-0.2,0.1-0.4,0.3-0.6,0.6c-0.2,0.2-0.4,0.5-0.7,1c-0.3,0.5-0.7,1-1.2,1.5
		c-0.5,0.6-1,1.1-1.6,1.7c-0.6,0.6-1.2,1.2-1.8,1.7c-0.6,0.5-1.3,0.9-1.9,1.3c-0.7,0.3-1.3,0.5-1.9,0.5c-0.1,0-0.2,0-0.3,0
		c0,0-0.1,0-0.1,0s0,0,0,0c0,0-0.1,0-0.2-0.1c0.5-0.7,1-1.4,1.5-2.1c0.5-0.8,0.9-1.5,1.2-2.3c0.4-0.8,0.6-1.6,0.8-2.3
		c0.2-0.8,0.3-1.5,0.3-2.2c0-0.6,0-1.3,0-1.9c-0.1-0.6-0.2-1.2-0.4-1.7c-0.2-0.5-0.5-0.9-0.9-1.3c-0.4-0.3-0.9-0.5-1.5-0.5
		c-0.5,0-1,0.1-1.5,0.3c-0.5,0.2-1,0.5-1.5,0.8c-0.5,0.3-1,0.7-1.4,1.1c-0.5,0.4-0.9,0.8-1.3,1.3c0-0.1,0-0.2,0-0.3
		c0-0.1,0-0.2,0.1-0.3c0.1-0.9,0.1-1.6-0.1-2c-0.2-0.4-0.6-0.6-1.4-0.7c-0.3,0-0.6,0-0.9,0.1c-0.3,0.1-0.6,0.2-0.9,0.3
		c-0.3,0.1-0.7,0.4-1,0.6c0.5,0.5,0.7,1,0.6,1.7c-0.1,0.6-0.2,1.5-0.5,2.6c-0.2,1-0.5,2-0.7,3.1c-0.3,1.1-0.5,2.1-0.7,3.1
		c-0.3,1.1-0.5,2.2-0.8,3.3c-0.3,1.1-0.7,2.6-1.1,4.3c-0.4,1.4-0.8,3.3-1.4,5.4c-0.5,2.2-1.2,4.7-1.9,7.6c0.1,0.3,0.2,0.6,0.4,0.8
		c0.2,0.2,0.3,0.4,0.5,0.5c0.2,0.2,0.4,0.3,0.6,0.4C284.4,151.3,284.9,151.3,285.3,151.2 M282.5,114.9c0.2,0,0.4,0,0.6,0
		c0.2,0,0.4,0,0.7-0.1c0.8-0.2,1.4-0.3,1.7-0.5c0.4-0.2,0.6-0.4,0.8-0.5c0.1-0.1,0.3-0.4,0.5-1s0.5-1.3,0.7-2.2
		c0.2-0.9,0.2-1.8,0.2-2.8c-0.1-1-0.4-2-0.9-2.9c-1.4-2.4-4.3-3.1-8.7-2.2c-0.8,0.2-1.7,0.5-2.7,1.1c-1,0.6-2,1.4-2.8,2.3
		c-0.9,1-1.5,2.1-2.1,3.3c-0.5,1.3-0.6,2.7-0.4,4.2c0.2,1.1,0.5,2.1,1,3c0.5,0.9,1,1.8,1.6,2.6c0.6,0.8,1.2,1.5,1.8,2.2
		c0.6,0.7,1.1,1.3,1.6,1.9c0.4,0.6,0.9,1.3,1.3,2.1c0.4,0.8,0.8,1.7,1,2.6c0.3,0.9,0.4,1.9,0.4,2.9c0,1-0.3,2-0.7,3
		c-1.4,3.2-3.1,4.7-5.1,4.7c-0.8,0-1.5-0.3-2-0.8c-0.5-0.5-0.9-1.1-1.1-1.7c-0.3-0.7-0.4-1.4-0.5-2.1c0-0.7,0-1.3,0.1-1.9
		c0.1-0.2,0.1-0.4,0.2-0.6c0.2-0.4,0.5-0.8,0.9-1.3c-0.3-0.1-0.6-0.2-1-0.1c-0.3,0-0.7,0-1,0.1c-0.4,0.1-0.7,0.2-1.1,0.3
		c-0.3,0.1-0.6,0.3-0.9,0.5c-0.2,0.1-0.5,0.3-0.7,0.5c-0.2,0.2-0.5,0.4-0.7,0.7c-0.3,1-0.4,1.9-0.2,2.8c0.1,0.9,0.4,1.7,0.7,2.4
		c0.3,0.8,0.8,1.5,1.4,2.2c0.5,0.6,1.1,1,1.7,1.3c0.6,0.3,1.3,0.5,1.9,0.6c0.6,0.1,1.2,0.1,1.8,0c0.6-0.1,1-0.1,1.5-0.2
		c0.5-0.1,1.2-0.3,2-0.7c0.8-0.4,1.6-1,2.4-1.8s1.5-1.9,2.2-3.3c0.7-1.4,1.1-3,1.4-5.1c0.2-1.4,0.2-2.7,0-3.8
		c-0.2-1.1-0.5-2.2-0.9-3.1c-0.4-0.9-0.9-1.8-1.4-2.5c-0.5-0.7-1.1-1.4-1.6-2s-1.1-1.1-1.5-1.6c-0.5-0.5-0.8-0.9-1-1.3
		c-0.2-0.3-0.3-0.6-0.5-0.9c-0.2-0.4-0.4-0.7-0.5-1.1c-0.2-0.4-0.3-0.9-0.4-1.4s-0.1-1-0.1-1.6c0.1-0.7,0.3-1.4,0.7-2.1
		c0.4-0.7,0.9-1.3,1.5-1.9c0.6-0.6,1.3-1.1,2-1.5c0.7-0.4,1.4-0.7,2.1-0.9c0.7-0.2,1.3-0.3,1.8-0.2c0.5,0,0.9,0.2,1.2,0.6
		c0.5,0.6,0.8,1.3,0.9,2c0.1,0.7,0.1,1.4,0,2.1c-0.1,0.7-0.3,1.3-0.5,2c-0.2,0.6-0.5,1.2-0.7,1.7c-0.2,0.5-0.4,0.9-0.6,1.3
		c-0.2,0.3-0.3,0.6-0.2,0.6C282.1,114.8,282.3,114.9,282.5,114.9"/>
	<path class="st1" d="M309.6,671.1c-0.2-0.2-0.3-0.3-0.5-0.4c-0.2-0.1-0.4-0.2-0.6-0.2c-0.2,0-0.4,0-0.6,0c-0.2,0-0.3,0-0.5,0.1
		c-0.2,0.1-0.4,0.2-0.5,0.3c-1.3,4.9-2.3,9.1-3.1,12.3c-0.8,3.3-1.5,5.8-2,7.7c-0.6,2.2-1,3.9-1.4,5.1c-0.1,0.6-0.3,1.2-0.4,1.7
		c-0.1,0.4-0.1,0.9-0.1,1.3c0,0.4,0.1,0.7,0.2,0.8c0.1,0.1,0.2,0.2,0.4,0.3c0.2,0,0.4,0.1,0.6,0.1c0.2,0,0.5,0,0.8-0.1
		c0.3-0.1,0.6-0.1,0.9-0.2c0.2-0.1,0.5-0.1,0.8-0.2c0.3-0.1,0.5-0.2,0.7-0.3c-0.1-0.4-0.1-0.8-0.1-1.3s0-0.9,0.1-1.4
		c0.1-0.5,0.1-1,0.2-1.5c0.2-0.7,0.5-2.1,0.9-4c0.4-1.6,0.9-4,1.7-7c0.7-3.1,1.7-7.1,2.9-12.2C309.9,671.5,309.7,671.3,309.6,671.1
		 M318.8,671.1c-0.2-0.2-0.3-0.3-0.5-0.4c-0.2-0.1-0.4-0.2-0.6-0.2c-0.2,0-0.4,0-0.6,0c-0.2,0-0.3,0-0.5,0.1
		c-0.2,0.1-0.4,0.2-0.5,0.3c-1.3,4.9-2.3,9.1-3.1,12.3c-0.8,3.3-1.5,5.8-2,7.7c-0.6,2.2-1,3.9-1.4,5.1c-0.1,0.6-0.3,1.2-0.4,1.7
		c-0.1,0.4-0.1,0.9-0.1,1.3c0,0.4,0.1,0.7,0.2,0.8c0.1,0.1,0.2,0.2,0.4,0.3c0.2,0,0.4,0.1,0.6,0.1c0.2,0,0.5,0,0.8-0.1
		c0.3-0.1,0.6-0.1,0.9-0.2c0.2-0.1,0.5-0.1,0.8-0.2c0.3-0.1,0.5-0.2,0.7-0.3c-0.1-0.4-0.1-0.8-0.1-1.3s0-0.9,0.1-1.4
		c0.1-0.5,0.1-1,0.2-1.5c0.2-0.7,0.5-2.1,0.9-4c0.4-1.6,0.9-4,1.7-7c0.7-3.1,1.7-7.1,2.9-12.2C319,671.5,318.9,671.3,318.8,671.1
		 M328.1,676.9c0.2-0.3,0.5-0.6,0.8-1c0.3-0.4,0.7-0.7,1.1-1c0.4-0.3,0.8-0.6,1.2-0.8c0.4-0.2,0.8-0.3,1.2-0.3c0.4,0,0.7,0.1,1,0.4
		c0.2,0.2,0.3,0.5,0.3,1c0.1,0.5,0,1.2-0.1,1.9c-0.1,0.7-0.3,1.5-0.5,2.3c-0.2,0.8-0.6,1.6-1,2.3c-1,1.7-1.9,2.9-2.6,3.5
		c-0.8,0.6-1.3,0.8-1.6,0.6c-0.1-0.1-0.1-0.3-0.2-0.5c0-0.2,0-0.4,0-0.7s0.2-0.7,0.4-1.1c-0.2,0.1-0.4,0.1-0.7,0.1
		c-0.2,0-0.4,0.1-0.5,0.1c-0.2,0.1-0.3,0.1-0.5,0.1c-0.1,0-0.1-0.2-0.1-0.6c0.1-0.5,0.2-1,0.3-1.7c0.1-0.7,0.3-1.4,0.5-2.1
		c0.2-0.7,0.4-1.4,0.5-1.9C327.8,677.4,327.9,677.2,328.1,676.9 M315.2,680.5c-0.1,0.3,0,0.6,0.1,0.7c0.1,0.2,0.3,0.2,0.5,0.2
		c0.2,0,0.4-0.2,0.7-0.4c0.2-0.2,0.4-0.6,0.8-1c0.4-0.5,0.8-1,1.3-1.6c0.5-0.6,1-1.2,1.5-1.9c0.5-0.6,1-1.2,1.5-1.8
		c0.5-0.5,1-1,1.4-1.3c0.4-0.3,0.8-0.5,1.1-0.5c0.3,0,0.6,0.1,0.8,0.2c0.2,0.1,0.3,0.3,0.4,0.6c0.1,0.2,0.1,0.5,0.1,0.8
		c0,0.3,0,0.6,0,0.8c-0.1,0.4-0.1,0.8-0.2,1c-0.1,0.3-0.1,0.5-0.1,0.7l-0.1,0.6c0,0.2-0.1,0.4-0.1,0.7c-0.3,1.3-0.5,2.3-0.7,3.1
		c-0.2,0.8-0.3,1.4-0.4,1.9c-0.1,0.5-0.1,0.8-0.1,1c0,0.2,0,0.3,0,0.3c0.1,0,0.2,0,0.3,0c0.1,0,0.3,0,0.6,0c0.3,0,0.6-0.1,1-0.2
		c-0.6,0.9-0.8,1.6-0.7,2.1c0.1,0.5,0.4,0.9,0.8,1.2c0.5,0.3,1.1,0.5,1.8,0.7c0.6,0.1,1.4-0.2,2.4-0.7c1-0.5,1.9-1.2,2.9-2.2
		c1-1,1.9-2.1,2.7-3.5c0.8-1.4,1.4-2.9,1.8-4.6c0.3-1.2,0.4-2.3,0.3-3.2c-0.1-0.9-0.3-1.6-0.6-2.2c-0.3-0.6-0.7-1-1.1-1.2
		c-0.4-0.3-0.8-0.4-1.2-0.4c-0.8,0.1-1.6,0.2-2.5,0.5c-0.7,0.3-1.5,0.7-2.3,1.3c-0.8,0.6-1.5,1.4-2.2,2.5c0-0.7,0-1.4-0.1-1.8
		c-0.1-0.5-0.3-0.9-0.4-1.2c-0.2-0.4-0.4-0.6-0.6-0.8c-0.2-0.2-0.5-0.3-0.9-0.3c-0.3-0.1-0.7-0.1-1-0.1c-0.4,0-0.7,0.1-1.1,0.2
		c-0.4,0.1-0.7,0.2-0.9,0.4c-0.4,0.3-0.9,0.7-1.5,1.4c-0.6,0.7-1.2,1.4-1.9,2.2c-0.6,0.8-1.3,1.6-1.9,2.4c-0.6,0.8-1.1,1.5-1.5,2
		C315.4,679.8,315.2,680.1,315.2,680.5 M346.1,685.6c0.1,0,0.2,0,0.3,0c0.9,0,1.9,0,3-0.1c0.9-0.1,1.9-0.1,3.1-0.2
		c1.2-0.1,2.4-0.2,3.7-0.4c0.4-0.5,0.6-0.9,0.8-1.2c0.1-0.2,0.2-0.4,0.2-0.6c0.1-0.2,0.1-0.4,0.1-0.6c0-0.2,0-0.4,0-0.6
		c0-0.2-0.1-0.4-0.1-0.7c-0.6,0.2-1.3,0.4-2,0.6c-0.7,0.2-1.4,0.3-2,0.5c-0.7,0.1-1.5,0.3-2.3,0.4c-1.4,0.2-2.7,0.2-3.9,0.2
		c0.5-1.1,1.1-2.2,1.6-3.2c0.5-1,0.9-1.9,1.3-2.7c0.7-1.4,1.2-2.7,1.6-3.9c0.4-1.2,0.8-2.2,1-3.2c0.3-0.9,0.5-1.8,0.6-2.5
		c0.1-0.8,0.2-1.4,0.3-2c0.1-0.9,0-1.4-0.3-1.7s-0.9-0.3-1.6-0.1c-0.2,0.1-0.5,0.1-0.8,0.2c-0.3,0.1-0.7,0.1-1.1,0.2
		c-0.4,0.1-0.9,0.2-1.5,0.4c0.2,0.4,0.3,1,0.3,1.6c0,0.7,0,1.3-0.1,2c-0.1,0.7-0.2,1.5-0.4,2.4c-0.1,0.6-0.3,1.4-0.6,2.3
		c-0.3,0.9-0.6,1.9-1,3c-0.4,1.1-0.8,2.2-1.3,3.4s-1,2.4-1.5,3.6c-0.3,0-0.5,0-0.8-0.1c-0.2,0-0.5,0-0.7,0c-0.4,0-0.8,0-1.1-0.1
		c-0.3,0-0.6,0-0.9,0.1c-0.3,0.1-0.5,0.3-0.8,0.5c-0.2,0.2-0.5,0.6-0.7,1.1c-0.1,0.2,0,0.4,0.4,0.5c0.4,0.1,0.8,0.1,1.5,0.2
		c0.6,0.1,1.3,0.2,2,0.2c-0.5,1.1-1,2.3-1.5,3.3c-0.5,1.1-1,2-1.4,2.9c-0.4,0.9-0.8,1.7-1.1,2.3c-0.3,0.7-0.6,1.2-0.7,1.6
		c-0.3,0.8-0.5,1.6-0.5,2.4c0,0.8,0.2,1.5,0.7,2c0.5,0.6,1.2,1.1,2.3,1.4c1,0.4,2.4,0.6,4.2,0.6c2.3,0,4.4-0.2,6.3-0.5
		c1.8-0.3,3.4-0.8,4.8-1.4c1.3-0.6,2.4-1.3,3.1-2.2c0.7-0.8,1.2-1.7,1.3-2.7c0.1-0.8-0.1-1.6-0.5-2.1c-0.4-0.6-0.9-1-1.5-1.3
		c-0.6-0.3-1.1-0.6-1.7-0.7c-0.6-0.2-0.9-0.3-1.1-0.3c-0.4-0.1-0.8,0-1.2,0.1c-0.4,0.1-0.8,0.4-1.2,1l-2,2.7
		c0.3-0.1,0.6-0.1,0.9-0.2c0.2,0,0.5-0.1,0.6-0.1c0.2,0,0.4,0,0.5,0c0.7-0.1,1.3,0,1.7,0.2c0.4,0.2,0.6,0.5,0.8,0.7
		c0.2,0.3,0.2,0.6,0.2,1c-0.1,0.7-0.5,1.3-1.3,1.7c-0.8,0.5-1.8,0.8-3,1.1c-1.1,0.3-2.3,0.4-3.6,0.5c-1.2,0.1-2.3,0.1-3.2,0.1
		c-0.5,0-1-0.1-1.4-0.2c-0.4-0.1-0.8-0.3-1.1-0.5c-0.3-0.2-0.5-0.5-0.7-0.9c-0.1-0.4-0.2-0.8-0.1-1.3c0.1-0.5,0.2-1.1,0.6-1.9
		c0.3-0.8,0.7-1.7,1.2-2.6c0.5-1,1-2,1.6-3.2c0.6-1.1,1.1-2.3,1.7-3.4C345.8,685.6,346,685.6,346.1,685.6"/>
	<path class="st1" d="M557.9,437.7c0.6,0.3,1.2,0.8,2.1,1.3c0.8,0.5,1.7,1,2.6,1.6c0.9,0.6,1.8,1.1,2.7,1.6c0.8,0.5,1.6,0.9,2.2,1.3
		c0.6,0.4,1,0.6,1.2,0.7c-0.1,0.2-0.1,0.5-0.2,0.7c-0.1,0.2-0.2,0.5-0.2,0.9c0,0.2,0,0.4,0,0.6c0,0.1,0,0.2,0,0.3c0,0.1,0,0.1,0,0.2
		c0,0.1,0,0.2,0,0.3c0,0.2-0.1,0.4-0.3,0.5c-0.2,0.1-0.4,0.2-0.7,0.2c-0.4,0-0.9-0.1-1.4-0.4c-0.6-0.3-1.2-0.7-2-1.1
		c-0.4-0.2-0.8-0.4-1.2-0.6c-0.4-0.2-0.8-0.5-1.2-0.7c-0.4-0.2-0.8-0.4-1.1-0.5c-0.4-0.2-0.7-0.2-1-0.3c-0.4,0-0.9,0-1.3,0.1
		c-0.5,0.1-0.9,0.3-1.3,0.6c-0.4,0.3-0.7,0.7-1,1.1c-0.3,0.5-0.4,1.1-0.4,1.8c0,0.7,0.2,1.4,0.6,2.2c0.4,0.8,0.9,1.5,1.6,2.3
		c0.6,0.8,1.4,1.5,2.1,2.2c0.8,0.7,1.5,1.3,2.3,1.9c0.7,0.6,1.4,1,2,1.4c0.6,0.4,1,0.7,1.3,0.8c0.4,0.2,0.7,0.3,1,0.3
		c0.2,0,0.4-0.1,0.5-0.3c0.1-0.2,0.1-0.4,0-0.6c-0.1-0.2-0.2-0.4-0.5-0.5c-0.2-0.2-0.6-0.4-1.1-0.8s-1-0.8-1.7-1.3
		c-0.6-0.5-1.2-1-1.9-1.6c-0.6-0.6-1.2-1.2-1.8-1.7c-0.5-0.6-1-1.2-1.3-1.7c-0.3-0.6-0.5-1.1-0.5-1.5c0-0.6,0.1-1,0.3-1.1
		c0.2-0.1,0.5-0.2,0.9-0.3c0.5-0.1,1.2,0.1,1.8,0.5c0.7,0.4,1.3,0.8,1.8,1.1c0.9,0.6,1.7,1.2,2.4,1.6c0.7,0.4,1.4,0.6,2.1,0.5
		c0.3,0,0.7-0.1,1.1-0.2c0.4-0.1,0.8-0.2,1.1-0.4c0.3-0.2,0.6-0.4,0.9-0.7c0.2-0.3,0.3-0.7,0.3-1.1c0-0.4,0-0.7-0.1-0.8
		c-0.1-0.2-0.1-0.5-0.1-0.9c0-0.3,0-0.5,0.1-0.7c0.1-0.1,0.1-0.2,0.2-0.3c0.4,0.3,0.9,0.5,1.5,0.6c0.5,0.1,1,0.1,1.4,0.1
		c0.5-0.1,1-0.2,1.5-0.6c0.5-0.3,0.7-0.9,0.7-1.6c0-0.4-0.2-0.8-0.6-1.3c-0.4-0.4-0.8-0.8-1.4-1.2c-0.5-0.4-1.1-0.6-1.7-0.9
		c-0.6-0.2-1-0.3-1.4-0.2c-0.4,0.1-0.7,0.1-0.8,0.2c-0.1,0.1-0.3,0.3-0.6,0.6c-0.3-0.2-0.8-0.4-1.5-0.8c-0.7-0.4-1.4-0.7-2.3-1.2
		c-0.8-0.4-1.7-0.9-2.7-1.3s-1.8-0.9-2.6-1.3c-0.8-0.4-1.5-0.7-2.1-1l-1.1-0.6c-0.3-0.2-0.6-0.2-0.8-0.2c-0.2,0.1-0.4,0.2-0.4,0.3
		c-0.1,0.2-0.1,0.4,0,0.6c0.1,0.2,0.3,0.4,0.6,0.6C557,437.2,557.3,437.4,557.9,437.7 M571.2,431.8c-0.2,0.2-0.6,0.2-1.1,0.2
		c-0.5-0.1-1.1-0.3-1.8-0.8c-0.7-0.5-1.5-1.3-2.4-2.5c-0.3-0.4-0.6-0.8-0.8-1.1c-0.3-0.4-0.5-0.7-0.8-1.1c1.1,0.2,2.2,0.5,3.1,0.9
		c0.9,0.4,1.6,0.8,2.3,1.2c0.6,0.4,1.1,0.9,1.4,1.3c0.3,0.5,0.5,0.8,0.5,1.2C571.5,431.4,571.4,431.6,571.2,431.8 M566,441.9
		c0.2,0,0.4-0.1,0.5-0.2c0.1-0.1,0.1-0.3,0.1-0.5c0-0.2-0.2-0.4-0.4-0.6c-0.7-0.5-1.4-1.2-2.3-2.1c-0.9-0.8-1.8-1.7-2.6-2.7
		c-0.8-1-1.5-2-2.1-3c-0.6-1-0.9-2-0.9-2.9c0-0.4,0.1-0.9,0.2-1.3c0.1-0.4,0.3-0.8,0.6-1.1s0.7-0.6,1.1-0.8c0.5-0.2,1-0.3,1.7-0.4
		c0.3,0.4,0.6,0.9,1,1.4c0.4,0.5,0.8,1.1,1.2,1.7c0.4,0.5,0.8,1.1,1.3,1.7c0.5,0.6,1,1.2,1.6,1.7c0.6,0.5,1.2,1,1.9,1.4
		c0.7,0.4,1.5,0.6,2.3,0.7c0.8,0.1,1.4-0.2,1.9-0.6c0.5-0.5,0.8-1.2,0.8-2.3c0-1.1-0.3-2.2-1-3.3c-0.7-1.1-1.5-2.1-2.6-2.9
		c-1-0.9-2.2-1.6-3.4-2.2c-1.2-0.6-2.4-0.9-3.5-1c-1.4-0.1-2.5,0-3.5,0.3c-1,0.3-1.7,0.8-2.3,1.4c-0.6,0.6-1,1.2-1.3,1.9
		c-0.3,0.7-0.4,1.3-0.4,1.9c0,1.1,0.3,2.3,0.8,3.5c0.5,1.2,1.3,2.4,2.2,3.6c0.9,1.2,1.9,2.3,3,3.3c1.1,1,2.3,2,3.5,2.8
		C565.5,441.8,565.8,441.9,566,441.9 M557.2,412.3c-0.4,0.2-0.7,0.4-0.9,0.8c-0.2,0.3-0.4,0.7-0.5,1c-0.1,0.4-0.1,0.7-0.1,1.1
		c0,1.1,0.3,2.3,1,3.3c0.7,1.1,1.5,2.1,2.5,3c1,0.9,2.1,1.8,3.3,2.6c1.2,0.8,2.2,1.5,3.2,2c0.3,0.2,0.6,0.2,0.8,0.2
		c0.2,0,0.4-0.1,0.5-0.2c0.1-0.1,0.1-0.3,0.1-0.5c0-0.2-0.1-0.3-0.3-0.5c-0.6-0.5-1.3-1-2.3-1.7c-1-0.7-1.9-1.4-2.8-2.2
		c-0.9-0.8-1.7-1.6-2.3-2.4c-0.7-0.8-1-1.6-1-2.3c0-0.9,0.7-1.2,2-0.9l5.5,1.4c0.7,0.2,1.5,0.3,2.3,0.3c0.8,0.1,1.5,0,2.2-0.1
		c0.7-0.1,1.2-0.4,1.7-0.8c0.4-0.4,0.7-1,0.7-1.7c0-0.6-0.2-1.3-0.5-1.9c-0.3-0.6-0.7-1.2-1.1-1.8c-0.5-0.6-1-1.1-1.6-1.7
		c-0.6-0.5-1.2-1-1.7-1.5c0.7,0.1,1.3,0.1,1.9,0.1c0.6,0,1.1-0.1,1.6-0.3c0.5-0.2,0.8-0.4,1.1-0.7c0.3-0.3,0.4-0.7,0.4-1.2
		c0-0.6-0.1-1.2-0.4-1.8c-0.3-0.6-0.6-1.2-1.1-1.8c-0.5-0.6-1-1.2-1.6-1.8c-0.6-0.6-1.2-1.1-1.9-1.7c0.8,0.2,1.5,0.4,1.9,0.5
		c1.5,0.3,2.3,0,2.3-0.9c0-0.2,0-0.4-0.1-0.7c-0.1-0.2-0.1-0.5-0.2-0.9c-0.1-0.4-0.3-0.8-0.5-1.2c-0.2,0.1-0.4,0.1-0.7,0.1
		s-0.6,0-0.9-0.1c-0.3-0.1-0.7-0.1-1-0.2l-10.7-2.6c-0.6-0.1-1.1-0.2-1.4-0.1c-0.3,0.1-0.5,0.2-0.6,0.4c-0.1,0.2-0.1,0.4-0.1,0.6
		c0,0.2,0.1,0.4,0.1,0.5l0.9,2.1c0.2,0.1,0.4,0.1,0.6,0.1c0.2,0,0.4,0.1,0.6,0.1c0.2,0.1,0.4,0.1,0.7,0.2h-0.1
		c2.2,0.5,4.1,1.1,5.5,1.8c1.4,0.7,2.5,1.4,3.3,2.1c0.8,0.7,1.3,1.4,1.6,1.9c0.3,0.6,0.4,1,0.4,1.2c0,0.3-0.1,0.6-0.3,0.8
		c-0.2,0.2-0.5,0.3-1.1,0.3c-0.7,0-1.6-0.1-2.6-0.3c-1-0.2-2-0.4-3-0.7c-1-0.3-1.9-0.6-2.8-0.8c-0.8-0.3-1.5-0.5-1.8-0.6
		c-0.8-0.2-1.3-0.2-1.5-0.1c-0.2,0.2-0.3,0.5-0.3,1.1c0,0.2,0.1,0.4,0.1,0.7c0.1,0.5,0.3,1,0.5,1.5c2.5,0.4,4.5,1,6.1,1.7
		c1.6,0.7,2.9,1.5,3.8,2.2c0.9,0.8,1.6,1.4,2,2.1c0.4,0.6,0.6,1.1,0.6,1.3c0,0.5-0.2,0.8-0.6,1c-0.4,0.2-0.9,0.2-1.6,0
		c-0.6-0.1-1.2-0.3-2-0.5s-1.5-0.4-2.3-0.6c-0.8-0.2-1.5-0.3-2.3-0.5c-0.7-0.1-1.4-0.2-2-0.2C558,412,557.5,412.1,557.2,412.3
		 M557.2,382.1c-0.4,0.2-0.7,0.4-0.9,0.8s-0.4,0.7-0.5,1c-0.1,0.4-0.1,0.7-0.1,1.1c0,1.1,0.3,2.3,1,3.3c0.7,1.1,1.5,2.1,2.5,3
		c1,0.9,2.1,1.8,3.3,2.6c1.2,0.8,2.2,1.5,3.2,2c0.3,0.2,0.6,0.2,0.8,0.2c0.2,0,0.4-0.1,0.5-0.2c0.1-0.1,0.1-0.3,0.1-0.5
		c0-0.2-0.1-0.3-0.3-0.5c-0.6-0.5-1.3-1-2.3-1.7c-1-0.7-1.9-1.4-2.8-2.2c-0.9-0.8-1.7-1.6-2.3-2.4s-1-1.6-1-2.3c0-0.9,0.7-1.2,2-0.9
		l5.5,1.4c0.7,0.2,1.5,0.3,2.3,0.3c0.8,0.1,1.5,0,2.2-0.1c0.7-0.2,1.2-0.4,1.7-0.8c0.4-0.4,0.7-1,0.7-1.7c0-0.6-0.2-1.3-0.5-1.9
		c-0.3-0.6-0.7-1.2-1.1-1.8c-0.5-0.6-1-1.1-1.6-1.7c-0.6-0.5-1.2-1-1.7-1.5c0.7,0.1,1.3,0.1,1.9,0.1c0.6,0,1.1-0.1,1.6-0.3
		c0.5-0.2,0.8-0.4,1.1-0.7c0.3-0.3,0.4-0.7,0.4-1.2c0-0.6-0.1-1.2-0.4-1.8c-0.3-0.6-0.6-1.2-1.1-1.8c-0.5-0.6-1-1.2-1.6-1.8
		c-0.6-0.6-1.2-1.1-1.9-1.7c0.8,0.2,1.5,0.4,1.9,0.5c1.5,0.3,2.3,0,2.3-0.9c0-0.2,0-0.4-0.1-0.7c-0.1-0.2-0.1-0.5-0.2-0.9
		c-0.1-0.4-0.3-0.8-0.5-1.2c-0.2,0.1-0.4,0.1-0.7,0.1c-0.3,0-0.6,0-0.9-0.1c-0.3-0.1-0.7-0.1-1-0.2l-10.7-2.6
		c-0.6-0.1-1.1-0.2-1.4-0.1c-0.3,0.1-0.5,0.2-0.6,0.4c-0.1,0.2-0.1,0.4-0.1,0.6c0,0.2,0.1,0.4,0.1,0.5l0.9,2.1
		c0.2,0.1,0.4,0.1,0.6,0.1s0.4,0.1,0.6,0.1c0.2,0.1,0.4,0.1,0.7,0.2h-0.1c2.2,0.5,4.1,1.1,5.5,1.8c1.4,0.7,2.5,1.4,3.3,2.1
		c0.8,0.7,1.3,1.4,1.6,1.9c0.3,0.6,0.4,1,0.4,1.2c0,0.3-0.1,0.6-0.3,0.8c-0.2,0.2-0.5,0.3-1.1,0.3c-0.7,0-1.6-0.1-2.6-0.3
		c-1-0.2-2-0.4-3-0.7c-1-0.3-1.9-0.6-2.8-0.8c-0.8-0.3-1.5-0.5-1.8-0.6c-0.8-0.2-1.3-0.2-1.5-0.1c-0.2,0.2-0.3,0.5-0.3,1.1
		c0,0.2,0.1,0.4,0.1,0.7c0.1,0.5,0.3,1,0.5,1.5c2.5,0.4,4.5,1,6.1,1.7c1.6,0.7,2.9,1.5,3.8,2.2c0.9,0.8,1.6,1.4,2,2.1
		c0.4,0.6,0.6,1.1,0.6,1.3c0,0.5-0.2,0.8-0.6,1c-0.4,0.2-0.9,0.2-1.6,0c-0.6-0.1-1.2-0.3-2-0.5c-0.7-0.2-1.5-0.4-2.3-0.6
		c-0.8-0.2-1.5-0.3-2.3-0.5c-0.7-0.1-1.4-0.2-2-0.2C558,381.8,557.5,381.9,557.2,382.1 M556.8,350.9c0.5,0.8,1.3,1.6,2.3,2.2
		c-1,0.3-1.7,0.7-2.2,1.1c-0.5,0.4-0.8,1-0.8,1.7c0,0.8,0.3,1.7,1,2.6c0.7,0.9,1.5,1.9,2.5,2.8c1,0.9,2.1,1.8,3.2,2.6
		c1.2,0.8,2.3,1.5,3.3,2c0.2,0.1,0.5,0.2,0.7,0.2c0.2,0,0.4-0.1,0.5-0.2c0.1-0.1,0.1-0.3,0.1-0.4c-0.1-0.2-0.2-0.4-0.5-0.6
		c-0.1-0.1-0.4-0.3-0.8-0.6c-0.5-0.3-1-0.7-1.6-1.2c-0.6-0.5-1.2-1-1.9-1.5c-0.7-0.6-1.3-1.1-1.8-1.7c-0.6-0.6-1-1.1-1.4-1.6
		c-0.4-0.5-0.6-1-0.6-1.4c0-0.2,0-0.4,0.1-0.6c0.1-0.2,0.3-0.3,0.5-0.5c0.3-0.1,0.6-0.2,1.1-0.3c0.5-0.1,1.1-0.2,2-0.2
		c0.2,0.1,0.4,0.3,0.6,0.5c0.2,0.2,0.5,0.3,0.9,0.5c0.4,0.2,0.8,0.3,1.4,0.5c0.5,0.2,1.2,0.4,1.9,0.6c0.9,0.3,1.8,0.4,2.7,0.5
		c0.9,0.1,1.5,0.1,2,0.1c0.2,0,0.4-0.2,0.5-0.5c0-0.1,0-0.2,0.1-0.4c0-0.2,0-0.3,0-0.6c0-0.5-0.1-0.9-0.3-1.2s-0.6-0.5-1.2-0.8
		c-0.3-0.2-0.8-0.4-1.4-0.6c-0.6-0.2-1.2-0.5-1.9-0.7c-0.7-0.2-1.5-0.4-2.3-0.5c-0.8-0.2-1.7-0.2-2.6-0.2c-0.5,0-0.9,0-1.4,0.1
		c-0.8-0.5-1.5-1.1-2.1-1.8c-0.5-0.7-0.8-1.3-0.8-2.1c0-1.1,0.3-1.8,0.9-2.2c0.6-0.4,1.6-0.5,2.8-0.3c0.5,0.1,1.3,0.2,2.2,0.5
		c0.8,0.2,1.8,0.5,3.1,1c1.3,0.4,2.8,1,4.7,1.7c0.1-0.2,0.1-0.5,0.1-0.7c0-0.3,0-0.5,0-0.8c-0.1-0.3-0.1-0.6-0.2-0.9
		c-0.2-0.7-0.6-1.3-1.2-1.7c-0.6-0.4-1.3-0.7-2.1-1c-0.1-0.1-0.5-0.2-1-0.3c-0.5-0.2-1.2-0.3-2-0.5c-0.8-0.2-1.6-0.4-2.5-0.5
		c-0.9-0.1-1.8-0.2-2.6-0.2c-0.5,0-1,0.1-1.5,0.2c-0.6,0.1-1.1,0.4-1.6,0.8c-0.5,0.4-0.9,0.9-1.2,1.5c-0.3,0.7-0.5,1.5-0.5,2.5
		C556,349.1,556.3,350.1,556.8,350.9 M575.3,338.7c0,0.2,0,0.4,0,0.6c0,0.2,0,0.4,0.1,0.7c0.2,0.8,0.3,1.4,0.5,1.7
		c0.2,0.4,0.4,0.6,0.5,0.8c0.1,0.1,0.4,0.3,1,0.5s1.3,0.5,2.2,0.7c0.9,0.2,1.8,0.2,2.8,0.2c1-0.1,2-0.4,2.9-0.9
		c2.4-1.4,3.1-4.3,2.2-8.7c-0.2-0.8-0.5-1.7-1.1-2.7c-0.6-1-1.4-2-2.3-2.8c-1-0.9-2.1-1.5-3.3-2.1c-1.3-0.5-2.7-0.6-4.2-0.4
		c-1.1,0.2-2.1,0.5-3,1c-0.9,0.5-1.8,1-2.6,1.6c-0.8,0.6-1.5,1.2-2.2,1.8c-0.7,0.6-1.3,1.1-1.9,1.6c-0.6,0.4-1.3,0.9-2.1,1.3
		c-0.8,0.4-1.7,0.8-2.6,1c-0.9,0.3-1.9,0.4-2.9,0.4c-1,0-2-0.3-3-0.7c-3.2-1.4-4.7-3.1-4.7-5.1c0-0.8,0.3-1.5,0.8-2
		c0.5-0.5,1.1-0.9,1.7-1.1c0.7-0.3,1.4-0.4,2.1-0.5c0.7,0,1.3,0,1.9,0.1c0.2,0.1,0.4,0.1,0.6,0.2c0.4,0.2,0.8,0.5,1.3,0.9
		c0.1-0.3,0.2-0.6,0.1-1c0-0.3,0-0.7-0.1-1c-0.1-0.4-0.2-0.7-0.3-1.1c-0.1-0.3-0.3-0.6-0.5-0.9c-0.1-0.2-0.3-0.5-0.5-0.7
		c-0.2-0.2-0.4-0.5-0.7-0.7c-1-0.3-1.9-0.4-2.8-0.2c-0.9,0.1-1.7,0.4-2.4,0.7c-0.8,0.3-1.5,0.8-2.2,1.4c-0.6,0.5-1,1.1-1.3,1.7
		c-0.3,0.6-0.5,1.3-0.6,1.9c-0.1,0.6-0.1,1.2,0,1.8c0.1,0.6,0.1,1,0.2,1.5c0.1,0.5,0.3,1.2,0.7,2c0.4,0.8,1,1.6,1.8,2.4
		s1.9,1.5,3.3,2.2c1.4,0.7,3,1.1,5.1,1.4c1.4,0.2,2.7,0.2,3.8,0c1.1-0.2,2.2-0.5,3.1-0.9c0.9-0.4,1.8-0.9,2.5-1.4
		c0.7-0.5,1.4-1.1,2-1.6s1.1-1.1,1.6-1.5c0.5-0.5,0.9-0.8,1.3-1c0.3-0.2,0.6-0.3,0.9-0.5c0.4-0.2,0.7-0.4,1.1-0.5
		c0.4-0.2,0.9-0.3,1.4-0.4s1-0.1,1.6-0.1c0.7,0.1,1.4,0.3,2.1,0.7c0.7,0.4,1.3,0.9,1.9,1.5c0.6,0.6,1.1,1.3,1.5,2
		c0.4,0.7,0.7,1.4,0.9,2.1c0.2,0.7,0.3,1.3,0.2,1.8c0,0.5-0.2,0.9-0.6,1.2c-0.6,0.5-1.3,0.8-2,0.9c-0.7,0.1-1.4,0.1-2.1,0
		c-0.7-0.1-1.3-0.3-2-0.5c-0.6-0.2-1.2-0.5-1.7-0.7c-0.5-0.2-0.9-0.4-1.3-0.6c-0.3-0.2-0.6-0.3-0.6-0.2
		C575.4,338.3,575.4,338.5,575.3,338.7"/>
</g>
<g>
	<defs>
		<rect id="SVGID_3_" x="-114" y="102.6" width="701.6" height="599.4"/>
	</defs>
	<clipPath id="SVGID_4_">
		<use xlink:href="#SVGID_3_"  style="overflow:visible;"/>
	</clipPath>
	<path class="st2" d="M54.3,368.8c-0.6-0.3-1.2-0.8-2.1-1.3c-0.8-0.5-1.7-1-2.6-1.6c-0.9-0.6-1.8-1.1-2.7-1.6
		c-0.8-0.5-1.6-1-2.2-1.3c-0.6-0.4-1-0.6-1.2-0.7c0.1-0.2,0.1-0.5,0.2-0.7c0.1-0.2,0.2-0.5,0.2-0.9c0-0.2,0-0.4,0-0.6
		c0-0.1,0-0.2,0-0.3c0-0.1,0-0.1,0-0.2c0-0.1,0-0.2,0-0.3c0-0.2,0.1-0.4,0.3-0.5c0.2-0.1,0.4-0.2,0.7-0.2c0.4,0,0.9,0.1,1.4,0.4
		c0.6,0.3,1.2,0.7,2,1.1c0.4,0.2,0.8,0.4,1.2,0.6c0.4,0.2,0.8,0.5,1.2,0.7c0.4,0.2,0.8,0.4,1.1,0.5c0.4,0.2,0.7,0.2,1,0.3
		c0.4,0,0.9,0,1.3-0.1c0.5-0.1,0.9-0.3,1.3-0.6c0.4-0.3,0.7-0.7,1-1.1c0.3-0.5,0.4-1.1,0.4-1.8c0-0.7-0.2-1.4-0.6-2.2
		c-0.4-0.8-0.9-1.5-1.6-2.3c-0.6-0.8-1.4-1.5-2.1-2.2c-0.8-0.7-1.5-1.3-2.3-1.9c-0.7-0.6-1.4-1-2-1.4c-0.6-0.4-1-0.7-1.3-0.8
		c-0.4-0.2-0.7-0.3-1-0.3c-0.2,0-0.4,0.1-0.5,0.3s-0.1,0.4,0,0.6s0.2,0.4,0.5,0.5c0.2,0.2,0.6,0.4,1.1,0.8c0.5,0.3,1,0.8,1.7,1.3
		c0.6,0.5,1.2,1,1.9,1.6c0.6,0.6,1.2,1.2,1.8,1.7c0.5,0.6,1,1.2,1.3,1.7c0.3,0.6,0.5,1.1,0.5,1.5c0,0.6-0.1,1-0.3,1.1
		c-0.2,0.1-0.5,0.2-0.9,0.3c-0.5,0.1-1.2-0.1-1.8-0.5c-0.7-0.4-1.3-0.8-1.8-1.1c-0.9-0.6-1.7-1.2-2.4-1.6c-0.7-0.4-1.4-0.6-2.1-0.5
		c-0.3,0-0.7,0.1-1.1,0.2c-0.4,0.1-0.8,0.2-1.1,0.4c-0.3,0.2-0.6,0.4-0.9,0.7c-0.2,0.3-0.3,0.7-0.3,1.1c0,0.4,0,0.7,0.1,0.8
		c0.1,0.2,0.1,0.5,0.1,0.9c0,0.3,0,0.5-0.1,0.7c-0.1,0.1-0.1,0.2-0.2,0.3c-0.4-0.3-0.9-0.5-1.5-0.6c-0.5-0.1-1-0.1-1.4-0.1
		c-0.5,0.1-1,0.2-1.5,0.6c-0.5,0.3-0.7,0.9-0.7,1.6c0,0.4,0.2,0.8,0.6,1.3c0.4,0.4,0.8,0.8,1.4,1.2c0.5,0.4,1.1,0.6,1.7,0.9
		c0.6,0.2,1,0.3,1.4,0.2c0.4-0.1,0.7-0.1,0.8-0.2c0.1-0.1,0.3-0.3,0.6-0.6c0.3,0.2,0.8,0.4,1.5,0.8c0.7,0.4,1.4,0.7,2.3,1.2
		c0.8,0.4,1.7,0.9,2.7,1.3c0.9,0.5,1.8,0.9,2.6,1.3c0.8,0.4,1.5,0.7,2.1,1l1.1,0.6c0.3,0.2,0.6,0.2,0.8,0.2c0.2-0.1,0.4-0.2,0.4-0.3
		c0.1-0.2,0.1-0.4,0-0.6c-0.1-0.2-0.3-0.4-0.6-0.6C55.2,369.4,54.9,369.1,54.3,368.8 M41.1,374.7c0.2-0.2,0.6-0.2,1.1-0.2
		c0.5,0.1,1.1,0.3,1.8,0.8c0.7,0.5,1.5,1.3,2.4,2.5c0.3,0.4,0.6,0.8,0.8,1.1c0.3,0.4,0.5,0.7,0.8,1.1c-1.1-0.2-2.2-0.5-3.1-0.9
		c-0.9-0.4-1.6-0.8-2.3-1.2c-0.6-0.4-1.1-0.9-1.4-1.3c-0.3-0.5-0.5-0.8-0.5-1.2C40.7,375.1,40.8,374.9,41.1,374.7 M46.2,364.6
		c-0.2,0-0.4,0.1-0.5,0.2c-0.1,0.1-0.1,0.3-0.1,0.5c0,0.2,0.2,0.4,0.4,0.6c0.7,0.5,1.4,1.2,2.3,2.1c0.9,0.8,1.8,1.7,2.6,2.7
		s1.5,2,2.1,3c0.6,1,0.9,2,0.9,2.9c0,0.4-0.1,0.9-0.2,1.3c-0.1,0.4-0.3,0.8-0.6,1.1c-0.3,0.3-0.7,0.6-1.1,0.8
		c-0.5,0.2-1,0.3-1.7,0.4c-0.3-0.4-0.6-0.9-1-1.4c-0.4-0.5-0.8-1.1-1.2-1.7c-0.4-0.5-0.8-1.1-1.3-1.7c-0.5-0.6-1-1.2-1.6-1.7
		c-0.6-0.5-1.2-1-1.9-1.4c-0.7-0.4-1.5-0.6-2.3-0.7c-0.8-0.1-1.4,0.2-1.9,0.6c-0.5,0.5-0.8,1.2-0.8,2.3c0,1.1,0.3,2.2,1,3.3
		c0.7,1.1,1.5,2.1,2.6,2.9c1,0.9,2.2,1.6,3.4,2.2c1.2,0.6,2.4,0.9,3.5,1c1.4,0.1,2.5,0,3.5-0.3c1-0.3,1.7-0.8,2.3-1.4
		c0.6-0.6,1-1.2,1.3-1.9c0.3-0.7,0.4-1.3,0.4-1.9c0-1.1-0.3-2.3-0.8-3.5c-0.5-1.2-1.3-2.4-2.2-3.6c-0.9-1.2-1.9-2.3-3-3.3
		c-1.1-1-2.3-2-3.5-2.8C46.7,364.7,46.5,364.6,46.2,364.6 M46.3,381.9c0.5,0.4,1.1,0.9,1.8,1.4s1.3,1.1,2,1.8
		c0.7,0.6,1.3,1.3,1.9,1.9c0.6,0.6,1,1.2,1.4,1.8c0.3,0.6,0.5,1.1,0.4,1.5c0,0.5-0.2,1-0.5,1.3c-0.3,0.3-0.7,0.6-1.3,0.8
		c-0.6,0.2-1.5,0.2-2.7,0.1c-1.6-0.7-3.2-1.4-4.6-1.9c-1.4-0.6-2.7-1.1-3.9-1.5c-1.3-0.5-2.5-0.9-3.6-1.2c-0.5-0.2-0.9-0.3-1.3-0.4
		c-0.4-0.1-0.9-0.2-1.3-0.3c0-0.2,0-0.4,0-0.6c0-0.2,0-0.4,0-0.6c0-0.9,0-1.6,0.1-2.3c0.1-0.7,0.1-1.2,0.2-1.7
		c0.1-0.5,0.1-0.9,0.2-1.2c0.1-0.3,0.1-0.6,0.2-0.9c0.1-0.3,0-0.5-0.2-0.7c-0.2-0.2-0.4-0.4-0.6-0.5c-0.2-0.1-0.5-0.1-0.7-0.1
		c-0.2,0-0.4,0.1-0.4,0.3c-0.1,0.2-0.2,0.5-0.3,0.9c-0.2,0.4-0.3,0.9-0.5,1.5c-0.1,0.6-0.3,1.4-0.4,2.3c-0.1,0.9-0.2,1.9-0.2,3.1
		c-1.4-0.3-2.5-0.4-3.4-0.5c-0.9,0-1.5,0-1.7,0.2c-0.2,0.1-0.3,0.4-0.3,0.7c0,0.3,0,0.6,0,0.9c0,0.3,0.1,0.6,0.2,0.9
		c0.1,0.3,0.2,0.5,0.3,0.6c0.4,0.3,1.1,0.6,2,0.9c1,0.3,2.1,0.7,3.4,1c0.1,0.5,0.2,0.9,0.2,1.4c0.1,0.5,0.1,1,0.1,1.5
		c0,0.7,0,1.4,0,2c0,0.6-0.1,1.2-0.1,1.7c0,0.2,0.1,0.3,0.2,0.6c0.1,0.2,0.3,0.4,0.5,0.5c0.2,0.1,0.4,0.2,0.6,0.2
		c0.2,0,0.4-0.1,0.5-0.3c0.2-0.4,0.4-1,0.6-1.7c0.2-0.8,0.3-1.6,0.3-2.5c0-0.4,0-0.8-0.1-1.3c-0.1-0.5-0.1-0.9-0.2-1.4
		c1.6,0.4,3.2,0.7,4.9,1.1c1.7,0.3,3.3,0.7,4.8,0.9c1.5,0.3,2.8,0.5,3.9,0.7c1.1,0.2,1.9,0.3,2.4,0.3c0.5,0.1,1.1,0,1.7-0.1
		c0.6-0.1,1.2-0.4,1.7-0.7c0.5-0.3,1-0.8,1.3-1.4c0.4-0.6,0.5-1.4,0.5-2.3c0-0.6-0.3-1.4-1-2.3c-0.7-0.9-1.6-1.9-2.6-2.9
		c-1.1-1-2.2-1.9-3.4-2.8c-1.2-0.9-2.3-1.6-3.4-2.2c-0.3-0.2-0.6-0.2-0.8-0.2c-0.2,0-0.3,0.1-0.4,0.2c-0.1,0.1-0.1,0.3-0.1,0.4
		c0,0.2,0.1,0.3,0.3,0.4C45.4,381.2,45.8,381.5,46.3,381.9 M56,401.5c-0.4-0.7-0.8-1.3-1.4-2c-0.6-0.7-1.2-1.3-2-2
		c-0.7-0.6-1.4-1.2-2.2-1.8s-1.4-1-2-1.4c-0.6-0.4-1.1-0.7-1.5-0.9c-0.4-0.2-0.8-0.3-1.1-0.3s-0.5,0.1-0.6,0.2
		c-0.1,0.1-0.1,0.3,0,0.5c0.1,0.2,0.3,0.5,0.7,0.7c0.5,0.4,1.3,0.9,2.2,1.6c0.9,0.7,1.8,1.4,2.6,2.2c0.8,0.8,1.6,1.5,2.2,2.3
		c0.6,0.8,0.9,1.4,0.9,1.9c0,0.5-0.2,0.8-0.7,0.8c-0.4,0-1,0-1.6-0.2c-0.9-0.3-1.8-0.6-2.6-0.8c-0.8-0.2-1.5-0.4-2-0.5l-1.8-0.5
		c-0.9-0.2-1.7-0.3-2.4-0.3c-0.7,0-1.4,0.2-1.9,0.4c-0.5,0.2-0.9,0.6-1.3,1c-0.3,0.4-0.5,0.9-0.5,1.4c0,0.6,0.1,1.2,0.4,1.8
		c0.3,0.6,0.6,1.2,1,1.7c0.4,0.5,0.9,1,1.4,1.5c0.5,0.5,1,0.9,1.5,1.2c-0.5-0.2-0.9-0.3-1.4-0.4c-0.4-0.1-0.7-0.2-1.1-0.3
		c-0.3-0.1-0.6-0.2-0.8-0.3c-0.1,0.2-0.2,0.3-0.3,0.6c-0.1,0.2-0.1,0.4-0.1,0.6c0,0.2,0,0.4,0,0.7c0,0.2,0.1,0.5,0.2,0.7
		c0.1,0.2,0.1,0.4,0.2,0.6c0.1,0.2,0.2,0.4,0.4,0.6c1,0.3,2,0.5,2.9,0.7c0.9,0.2,1.6,0.4,2.3,0.5c0.8,0.2,1.5,0.3,2.1,0.5
		c0.8,0.2,1.6,0.4,2.5,0.6s1.7,0.4,2.5,0.6c0.8,0.2,1.5,0.4,2,0.5c0.6,0.1,0.9,0.2,1.1,0.3c0.2,0.1,0.4-0.1,0.4-0.4
		c0-0.3-0.1-0.7-0.2-1.2s-0.4-0.9-0.6-1.3c-0.3-0.4-0.5-0.7-0.8-0.7c-0.4-0.1-0.8-0.2-1.2-0.3c-0.4-0.1-0.9-0.2-1.5-0.3
		c-0.6-0.1-1.2-0.3-1.9-0.4c-0.7-0.2-1.5-0.4-2.4-0.6c-0.7-0.5-1.3-0.9-2-1.4c-0.6-0.5-1.2-1-1.7-1.4c-0.5-0.5-0.9-1-1.2-1.4
		c-0.3-0.5-0.4-0.9-0.4-1.4c0-0.4,0.2-0.6,0.6-0.7c0.4-0.1,0.9-0.1,1.5-0.1c0.6,0.1,1.3,0.2,2.1,0.3s1.5,0.4,2.3,0.6
		s1.4,0.4,2.1,0.6c0.6,0.2,1.2,0.3,1.5,0.4c0.6,0.1,1.1,0.2,1.6,0.1s0.9-0.3,1.3-0.5c0.4-0.3,0.7-0.6,0.9-1.1c0.2-0.5,0.3-1,0.3-1.6
		C56.6,402.8,56.4,402.2,56,401.5 M42.6,424.9c1.1,0.3,2.3,0.6,3.5,0.8c1.2,0.2,2.5,0.4,3.6,0.5c1.2,0.1,2.1,0.1,2.8,0
		c0.5,0,0.9-0.2,1.3-0.4s0.8-0.6,1.1-0.9c0.3-0.4,0.6-0.8,0.7-1.2c0.2-0.5,0.3-0.9,0.2-1.4c0-0.6-0.4-1.3-1.1-2.2
		c-0.7-0.9-1.5-1.9-2.5-2.8c-1-1-2-1.9-3-2.7c-1.1-0.8-2-1.5-2.7-1.9c-0.3-0.2-0.6-0.3-0.9-0.3c-0.2,0-0.4,0.1-0.5,0.2
		c-0.1,0.1-0.1,0.3,0,0.6c0.1,0.2,0.3,0.5,0.5,0.7c0.5,0.4,1.2,0.9,2.1,1.6c0.9,0.7,1.7,1.5,2.5,2.4c0.8,0.9,1.6,1.7,2.2,2.5
		c0.6,0.8,0.9,1.5,0.9,2.1c0,0.2-0.1,0.4-0.2,0.5c-0.1,0.2-0.3,0.3-0.7,0.5c-0.3,0.1-0.7,0.2-1.2,0.1c-0.5-0.1-1.1-0.2-1.7-0.3
		c-0.6-0.1-1.2-0.3-1.8-0.5c-0.6-0.2-1.2-0.4-1.7-0.5c-0.5-0.1-1.1-0.3-1.9-0.6c-0.8-0.3-1.5-0.5-2.3-0.8c-0.7-0.2-1.4-0.5-1.9-0.6
		s-0.8-0.2-0.9-0.2c0,0.1,0,0.3,0,0.6c0,0.3,0.1,0.7,0.1,1.1c0.1,0.4,0.2,0.8,0.3,1.2c0.1,0.4,0.2,0.6,0.4,0.8
		C40.7,424.2,41.5,424.6,42.6,424.9 M30.5,418c-0.4,0-0.7,0.1-1,0.2c-0.3,0.1-0.5,0.3-0.7,0.5c-0.2,0.2-0.2,0.5-0.2,0.8
		c0.1,0.3,0.2,0.7,0.6,1.1c0.3,0.4,0.7,0.8,1.1,1c0.5,0.3,0.9,0.4,1.4,0.4c0.5,0,1-0.3,1.4-0.9c0.2-0.2,0.2-0.4,0.2-0.7
		c-0.1-0.3-0.2-0.6-0.3-0.9c-0.2-0.3-0.4-0.5-0.7-0.8c-0.3-0.2-0.6-0.4-0.9-0.5C31.1,418,30.8,418,30.5,418 M62.4,453.1
		c-0.7-0.8-1.6-1.6-2.7-2.4c-1.1-0.8-2.4-1.5-3.8-2.3c-1.4-0.7-2.9-1.4-4.4-2c1.2,0,2.5,0,3.9-0.1c1.4-0.1,2.7-0.3,3.9-0.6
		c1.2-0.3,2.2-0.7,3-1.3c0.8-0.6,1.2-1.3,1.2-2.3c0-0.9-0.4-1.9-1.3-2.9c-0.8-1-2-2-3.6-3c-1.5-1-3.3-2-5.4-2.9
		c-2.1-0.9-4.4-1.8-6.9-2.6c-2.5-0.8-5.1-1.4-7.9-1.9c-2.8-0.5-5.6-0.9-8.5-1.1c-0.7-0.1-1.4-0.1-2.1,0c-0.6,0-1.2,0.1-1.8,0.1
		c-0.6,0.1-1.1,0.2-1.5,0.3c-0.1,0.2-0.1,0.4-0.1,0.6c0,0.2,0,0.4,0.1,0.7c0,0.2,0.1,0.5,0.1,0.7c0.1,0.4,0.2,0.7,0.3,1
		c0.2,0.6,0.4,1.1,0.7,1.4c0.9-0.2,1.9-0.4,3-0.5c1.1-0.1,2.2-0.1,3.2-0.1c1.1,0,2.3,0,3.5,0.1c1.4,0.1,3,0.3,4.8,0.7
		c1.8,0.3,3.6,0.7,5.4,1.3c1.8,0.5,3.6,1.1,5.3,1.7c1.7,0.6,3.3,1.3,4.6,1.9c1.4,0.7,2.4,1.3,3.3,2c0.8,0.7,1.2,1.3,1.2,1.9
		c0,0.5-0.4,1-1.3,1.3c-0.9,0.4-2.1,0.6-3.8,0.8c-1.6,0.2-3.6,0.2-5.9,0.1c-2.3-0.1-4.8-0.4-7.7-0.9c-1.1-0.3-2.2-0.6-3.3-0.9
		c-1.2-0.3-2.3-0.6-3.4-0.9c-1.1-0.3-2.2-0.5-3.2-0.7c-1-0.2-1.9-0.3-2.6-0.4c-0.5,0-1,0-1.3,0.2c-0.3,0.2-0.5,0.4-0.5,0.8
		c0,0.5,0.4,1.2,1.1,1.9c0.7,0.7,1.8,1.4,3.3,1.9c0.8,0.3,1.6,0.5,2.5,0.7c0.9,0.2,1.8,0.3,2.8,0.4c0.9,0.1,1.9,0.2,2.8,0.2
		c0.9,0,1.8,0,2.6,0c0.7,0.2,1.4,0.5,2.2,0.7c0.8,0.3,1.6,0.6,2.4,0.8c0.8,0.3,1.6,0.6,2.4,0.9c0.8,0.3,1.5,0.6,2.1,0.8
		c1,0.4,2,0.8,3,1.3c1,0.5,1.9,0.9,2.7,1.4c0.8,0.5,1.5,1,2,1.4c0.5,0.5,0.8,0.9,0.8,1.3c0,0.8-0.8,1.5-2.5,2
		c-1.7,0.5-4.2,0.6-7.5,0.4c-1.7-0.1-3.5-0.4-5.4-0.8c-1.9-0.4-3.8-0.9-5.6-1.4c-1.8-0.5-3.6-1.1-5.2-1.7c-1.6-0.6-3-1.2-4.2-1.7
		c-0.6-0.2-1.1-0.5-1.6-0.8c-0.4-0.2-0.9-0.5-1.3-0.8c-0.4-0.3-0.7-0.6-0.9-0.9c-0.1,0.2-0.2,0.4-0.2,0.6c-0.1,0.2-0.1,0.4-0.1,0.7
		c0,0.2,0,0.5,0,0.8c0,0.3,0,0.7,0.1,1c0.1,0.4,0.2,0.7,0.3,1c0.1,0.3,0.2,0.6,0.4,0.8c0.2,0.2,0.3,0.4,0.4,0.5
		c0.1,0.1,0.5,0.2,1.1,0.5c0.7,0.3,1.5,0.6,2.6,1c1.1,0.4,2.3,0.8,3.7,1.3c1.4,0.5,2.9,0.9,4.4,1.3c1.6,0.4,3.2,0.8,4.9,1.1
		c1.7,0.3,3.3,0.5,4.9,0.7c2.4,0.2,4.6,0.2,6.5,0c1.9-0.2,3.5-0.5,4.8-0.9c1.3-0.4,2.3-1,3-1.6c0.7-0.7,1-1.4,1-2.2
		C63.4,454.7,63.1,453.9,62.4,453.1"/>
</g>
</svg>
