<?xml version="1.0" encoding="utf-8"?>
<!-- Generator: Adobe Illustrator 15.1.0, SVG Export Plug-In . SVG Version: 6.00 Build 0)  -->
<!DOCTYPE svg PUBLIC "-//W3C//DTD SVG 1.1//EN" "http://www.w3.org/Graphics/SVG/1.1/DTD/svg11.dtd">
<svg version="1.1" id="Layer_1" xmlns="http://www.w3.org/2000/svg" xmlns:xlink="http://www.w3.org/1999/xlink" x="0px" y="0px"
	 width="483.1px" height="512.4px" viewBox="0 0 483.1 512.4" style="enable-background:new 0 0 483.1 512.4;" xml:space="preserve"
	>
<style type="text/css">
<![CDATA[
	.st0{clip-path:url(#SVGID_4_);fill:#D8CDC6;}
	.st1{clip-path:url(#SVGID_2_);fill:#D8CDC6;}
]]>
</style>
<g>
	<defs>
		<rect id="SVGID_1_" x="-40.6" y="-45.3" width="563" height="599.3"/>
	</defs>
	<clipPath id="SVGID_2_">
		<use xlink:href="#SVGID_1_"  style="overflow:visible;"/>
	</clipPath>
	<path class="st1" d="M258.3,413.7c88.9,0,160.9-72,160.9-160.9c0-88.9-72-160.9-160.9-160.9c-88.9,0-160.9,72.1-160.9,160.9
		C97.4,341.7,169.5,413.7,258.3,413.7"/>
</g>
<g>
	<defs>
		<rect id="SVGID_3_" x="-40.6" y="-41.3" width="563" height="599.3"/>
	</defs>
	<clipPath id="SVGID_4_">
		<use xlink:href="#SVGID_3_"  style="overflow:visible;"/>
	</clipPath>
	<path class="st0" d="M397.2,433.8c1-0.9,2.1-1.8,3.5-3C397.4,430.3,396.8,430.9,397.2,433.8 M382.3,444.9c0.8,0.3,1.1,0.5,1.6,0.7
		c-0.3,0.5-0.5,0.9-0.9,1.5c2.9-1,5.8-3.4,5.4-4.3c-0.5,0.3-1,0.5-1.6,0.8c0-0.4,0-0.6,0-0.7c0-0.1-0.1-0.3-0.2-0.4
		C385.2,443.2,383.9,443.9,382.3,444.9 M376.5,448.2c-1.1,0.8-2.1,1.6-3.4,2.5C376.2,450.6,376.7,450.2,376.5,448.2 M344,478.5
		c0,0.2,0.1,0.3,0.1,0.5c-1.4,0.3-2.8,0.5-4.7,0.9c4.2,0.8,8-1.1,7.6-3.8c-1.1,0.5-2.1,1.1-3.1,1.6c-0.8-1.9-5.8-0.9-8.6,1.9
		c0.4-0.1,0.8-0.3,1.2-0.5c0.4-0.2,0.8-0.5,1.2-0.5c0.8,0,1.6,0.3,2.4,0.3C341.4,478.9,342.7,478.7,344,478.5 M346.1,490.5
		c-0.2,0.1-0.3,0.3-0.5,0.5l-0.1,0.8c0.3-0.2,0.6-0.5,1-0.9C346.3,490.8,346.2,490.7,346.1,490.5 M315.1,495.5
		c-3.1,0.4-6.1,1.1-9.2,1.6c0.4,0.8,0.6,1.4,0.9,1.9c0.2,0.3,0.6,0.9,0.8,0.9c2.5-0.5,4.9-1.1,7.4-1.6c0,0,0-0.2,0-0.3
		c-0.5-0.1-1-0.2-1.4-0.3c0.7-0.6,1.4-1,2.2-1.1c0.7,0,1.5,0.7,2.1,0.6c3.8-0.7,7.5-1.7,11.3-2.4c2.1-0.4,4-1.9,6.5-0.7
		c0.8,0.4,2.2-0.4,3.4-0.6c1.3-0.2,2.7,0,3.9-0.5c1-0.4,1.7-1.3,2.5-2l0.3-1.6c-0.9,0.2-1.8,0.1-2.6,0.3c-0.9,0.2-1.7,0.7-2.6,0.9
		c-5.3,1.4-11,1.3-15.7,5.1c-0.2-0.5-0.3-0.9-0.4-1.3C321.6,496.3,318.3,495.2,315.1,495.5 M331.8,480.5c1.6,0.3,2-0.1,2.3-2.2
		c-0.7,0.1-1.3,0.1-2.4,0.2C334,479.7,331.4,479.8,331.8,480.5 M88.5,444.3c-0.2,0.1-0.3,0.3-0.5,0.4c0.3,0.5,0.5,1.2,1,1.6
		c1.6,1.1,3.4,2.1,5.1,3.2c0.2-1-2.2-4.7-3-4.5c0.2,0.5,0.4,0.9,0.7,1.4c-0.1,0.1-0.3,0.3-0.4,0.4C90.4,445.9,89.5,445.1,88.5,444.3
		 M69.1,426.3c1.7,1.8,3.4,3.5,5,5.3c-0.7-2.6-3.3-3.6-4.4-5.8C69.5,425.9,69.3,426.1,69.1,426.3 M74.1,431.7
		C74.1,431.7,74.2,431.6,74.1,431.7c0-0.1,0-0.1,0-0.1S74.1,431.6,74.1,431.7 M74.1,431.7C74.2,431.7,74.2,431.7,74.1,431.7
		C74.2,431.7,74.2,431.7,74.1,431.7L74.1,431.7z M60.6,404.7c-0.1,0.6-0.4,1.4-0.1,1.8c1.6,2.4,3.3,4.6,5,6.9
		c0.2,0.2,0.3,0.6,0.4,0.8c0.7,1.4,1.4,2.9,2.1,4.3c1.2,2.3,2.4,4.6,3.7,6.8c0.7,1.2,1.1,2.9,3.1,2.8c0.3,0,0.7,0.2,0.8,0.2
		c0.1,1.6,0.2,3,0.4,4.4c-0.6-0.4-1-0.7-1.5-1.1c0.3,0.8,0.6,1.5,0.9,2.3c0.1-0.1,0.3-0.3,0.4-0.4c0.6,0.2,1.4,0.2,1.8,0.7
		c1.2,1.4,2.1,3,3.2,4.4c1.6,2.1,3.3,4.1,4.9,6.1c0.2-0.2,0.4-0.3,0.6-0.5c-1.4-2.2-2.8-4.3-4.2-6.6c0.2-0.3,0.6-0.7,0.9-1.2
		c0.1-0.3,0.1-0.8,0-0.9c-0.2-0.2-0.8-0.4-1-0.3c-1.5,1.5-1.9-0.4-3-0.9c0.6-0.7,1.1-1.3,1.6-1.9c-3.6-5-7.3-10.2-11-15.4
		c0.2,0,0.6,0.1,1.1,0.1v-2.2c-0.1,0.2-0.3,0.3-0.4,0.5c-0.9-0.4-2.1-0.5-2.7-1.2c-1.2-1.3-2.1-2.9-3-4.3c0.4-0.5,0.7-0.8,1-1.2
		c-1-0.9-1.2-2.7-2.8-1.6c-0.6-0.9-1-1.7-1.5-2.5C60.9,404.7,60.7,404.7,60.6,404.7 M13.3,325.7c-1-3.1,0.1-6.5-1.9-9.5
		c-0.9-1.3-0.7-3.4-0.9-5.1c-0.2-1.7-0.3-3.5-0.7-5.2c-0.8-2.9-1.6-5.6-0.1-8.5c0.2-0.4-0.1-1-0.2-1.5c-0.5,0.3-0.9,0.6-1.3,0.9
		c-0.4-5.7-0.9-11.2-1.3-16.9c1.3-0.7,0.6-2.3,0.6-3.6c0-2.6-0.4-5.2-0.5-7.8c-0.1-2.2,0-4.5,0-6.7c-0.2,0-0.4,0-0.6,0
		c0,0.3-0.1,0.6-0.1,0.9c-0.1,4.2-0.2,8.4-0.3,12.7c-0.1,5.1-0.4,10.3-0.3,15.4c0.1,3.8,0.7,7.6,1.1,11.5c0.4,4.6,0.7,9.3,1.2,13.9
		c0.4,3.8,1,7.5,1.7,11.2c1,5.1,2,10.3,3.4,15.4c1,3.7,2.5,7.2,4,10.8c0.9,2.2,2.1,4.3,3.1,6.4c0.5,1.1,0.7,2.4,2.4,2.1
		c0.2,0,0.8,0.9,0.7,1.1c-1.7,2.6,1.4,3.7,1.9,5.7s2.2,3.8,3.4,5.7c0.4,0.6,1,1,1.4,1.5c0.2-0.2,0.4-0.3,0.6-0.5
		c-4.6-6.7-6.8-14.4-9.4-22.2c-0.2,0.7-0.3,1.1-0.5,1.7c-0.3-0.4-0.6-0.6-0.7-0.9c-0.6-2.8-1.1-5.5-1.7-8.3c0-0.2,0.1-0.4,0.1-0.6
		c-0.1-1.1-0.2-2.3-0.5-3.4C16.4,336.4,15.1,331,13.3,325.7 M17.1,221.5c0.1-0.6,0.2-1.2,0.3-2.2c-1.8,1.4-2.2,2.7-0.9,4.6
		C16.8,222.9,17,222.2,17.1,221.5 M16.1,230.6c0-1.9,2.4-3.3,0.5-5.3C14.9,226.9,14.2,228.5,16.1,230.6 M29.3,180.5
		c1.1-1.3,1.9-2.3,2.7-3.3C30.2,177,29.6,177.5,29.3,180.5 M93,84.8c-1.2,1.5-2.2,2.6-3.1,3.7c0.3,0.2,0.5,0.4,0.8,0.6
		C91,87.6,93.5,87.7,93,84.8 M312.1,20.2c0.6-1.3-3-0.9-0.7-2.6c-2-0.4-3.7-0.7-5.4-1.1c-0.2-0.6-0.6-1.1-1.1-1.2
		c-2.1-0.7-4.3-1.2-6.4-1.8c-2.4-0.7-4.9-1.4-7.2-2.4c-3.2-1.4-6.7-0.6-9.9-2.4c-2.1-1.1-5.1-0.7-7.7-1c-0.7-0.6-1.4-1.1-2.2-1.2
		c-4.6-0.6-9.2-1.1-13.8-1.6c-0.5-0.1-1,0-1.5,0.1c-1.3,0.3-2.5,0.8-3.8,1.2c0-0.2-0.1-0.3-0.1-0.5c-0.3,0.4-0.6,0.8-1.2,1.6
		c-0.6-1.9-1.7-2.5-3.4-2.4c-2,0.2-4.1,0-6.1,0.3c-3.7,0.4-7.3,1-10.9,1.5c0.1,0.2,0.3,0.5,0.2,0.4c-3.4,0.5-6.8,1-10.2,1.5
		c0,0.3,0,0.6,0,0.9c1.5,0.1,3,0.3,4.4,0.4c-2.2,0-1.3,1.4-1.2,2.6c2.4-0.5,4.3-2.6,7-1.9c0.6,0.2,1.4-0.1,2.1-0.2
		c0,0,0-0.5-0.1-0.7c-0.7,0.1-1.3,0.1-2,0.2c0.2-0.6,0.6-0.9,1.1-1c2.6-0.7,4.9,0.9,7.5,1.7c-1.2,0.5-2.3,0.9-3.5,1.4
		c0,0.2,0,0.5,0,0.7c4.2,0.6,8.4-0.4,12.7,0.4c3,0.5,6.2-0.1,9.3-0.2c0-0.2,0-0.5,0-0.7c-0.4-0.1-0.8-0.3-1.2-0.4
		c0.1-0.2,0.1-0.4,0.2-0.6c1.5,0.3,3,0.6,4.5,0.9c0,0.1-0.1,0.3-0.1,0.4c-0.9,0.1-1.8,0.2-2.7,0.3c0,0.2,0,0.4,0,0.6
		c1.7,0.3,3.4,0.5,5.3,0.8c1.4-0.8,3,0.4,4.6,0.5c-0.1-0.2-0.1-0.4-0.2-0.6c0.8-0.2,1.6-0.5,2.5-0.8c-0.1,0.9-0.1,1.3-0.1,1.8
		c1.3-0.3,2.9-1.1,3.7-0.6c2.6,1.7,5.5,1,8.3,1.6c0.5,0.1,1.1-0.4,1.7-0.6c0-0.2-0.1-0.3-0.1-0.5c-1.3,0-2.6,0-3.9,0.1
		c-1.4,0.1-2.7,0.5-3.3-1.6C289.1,14.6,300.6,17.5,312.1,20.2 M293.8,19.8c1.5,1.9-0.6,1.5-1.4,2.8c1.6,0.1,2.7,0.1,3.8,0.2
		c0.3-0.9,0.4-1.6,0.6-2.2C295.9,20.3,295.1,20.1,293.8,19.8 M463.4,157c0.2-0.1,0.4-0.2,0.5-0.3c-0.6-1.5-1.1-3-1.7-4.5
		c-0.3,0.1-0.5,0.2-0.8,0.3C462.2,153.9,462.8,155.4,463.4,157 M22,312.1c-0.4-1.7-0.8-3.2-1.2-4.7C19.7,308.8,20.2,310.9,22,312.1
		 M59,396.3L59,396.3C59,396.4,59,396.5,59,396.3 M151.2,478.7c-0.9-0.8-1.9-1.5-2.8-2.3c-0.4,0.3-0.8,0.7-1.2,1
		c1.3,0.6,2.5,1.1,3.7,1.7C151,479,151.1,478.9,151.2,478.7 M465.8,224.7c-1.1,1.1-1.8,1.9-2.6,2.7c1.3,2.4,2.1,5,2.7,7.7
		c0.1,0.6,0.5,1.1,0.7,1.7c0.1,0,0.3-0.1,0.4-0.1v-3.4c-0.4,0.3-0.6,0.5-0.6,0.5C466.2,231,466,228.1,465.8,224.7 M463.2,227.4
		C463.2,227.4,463.1,227.5,463.2,227.4C463.1,227.5,463.2,227.5,463.2,227.4L463.2,227.4 M463.2,227.4
		C463.2,227.5,463.1,227.5,463.2,227.4C463.1,227.5,463.1,227.5,463.2,227.4L463.2,227.4z M464.3,220.5c-0.1-0.6-0.1-1.1-0.2-1.7
		c0,2,0,4,0,6.3c1.3-1.2,1.3-1.2,1.3-5.6c0-0.1-0.1-0.2-0.3-0.3c-0.2,0.5-0.3,0.9-0.5,1.3C464.5,220.5,464.4,220.5,464.3,220.5
		 M464.1,218.6L464.1,218.6c0,0.1,0,0.1,0,0.2C464.1,218.7,464.1,218.7,464.1,218.6 M464.1,218.6L464.1,218.6L464.1,218.6
		L464.1,218.6z M454.3,173.8c-0.3,0.1-0.6,0.2-0.8,0.3c-0.5-1.4-0.9-2.8-1.4-4.3c0.3-0.1,0.6-0.2,0.8-0.3
		C453.4,171,453.8,172.4,454.3,173.8 M379.3,56.4c-0.2,0.2-0.3,0.3-0.5,0.5c-1.6,0.1-2-1.3-2.5-2.4c0.2-0.2,0.3-0.3,0.5-0.5
		C377.6,54.8,378.4,55.6,379.3,56.4 M349.1,47.9c-3.8-0.2-3.8-0.3-3.5-2.8C346.8,46.1,347.9,47,349.1,47.9 M298.5,54.7
		c-2.5,1.1-5.3,0.7-7.4-1.2C293.7,53.9,296,54.3,298.5,54.7 M281.8,51.7c-0.8,1.7-1.8,1.5-2.8,1.3c-0.7-0.2-1.5-0.3-2.5-0.5
		c-1.3-0.7-2.8-1.5-4.3-2.4c0.1-0.2,0.2-0.5,0.3-0.7C275.5,50.1,278.6,50.9,281.8,51.7 M250.1,51h-6.6c0-0.2,0-0.4,0-0.6h6.6
		C250.1,50.6,250.1,50.8,250.1,51 M232.6,50.9c-1,0.1-1.9,0.2-3.2,0.3c0.9,0.2,1.6,0.3,2.3,0.5c0,0.2-0.1,0.5-0.1,0.7
		c-1.7-0.3-3.4-0.6-5.1-0.9c0.1-0.3,0.1-0.6,0.2-0.8c2-0.1,3.9-0.2,5.9-0.3C232.5,50.6,232.6,50.8,232.6,50.9 M119.9,106.9
		c-1.1,0.9-2.1,1.8-3.2,2.7C117.1,107.8,117.9,106.6,119.9,106.9 M81.4,153c-1.6,2.6-3.2,5.2-4.8,7.8c-0.2-0.1-0.3-0.1-0.5-0.2
		C77,157.5,78.7,154.9,81.4,153 M72.9,166.2c0.7-1.3,1.3-2.4,2.1-3.9C75.3,164.9,74.7,166,72.9,166.2 M53.4,339.3
		c-0.9-0.8-2.1-1.5-2.6-2.5c-0.5-1.2-0.4-2.7-0.6-4.6C52.2,334,53.8,338.2,53.4,339.3 M50.8,328c0.1,0.6-0.5,1.4-0.9,2.1
		c-0.5-0.4-1.3-0.7-1.6-1.2c-0.4-1-0.7-2.1-0.7-3.2c0-0.6,0.6-1.1,0.9-1.7c0.2,0.1,0.4,0.2,0.7,0.3C49.8,325.5,50.5,326.7,50.8,328
		 M39.2,267.5v-1.7c0.4-0.1,0.7-0.2,1-0.2c1.4,0.1,2.3-0.3,2.1-1.9c0-0.3,0.5-0.7,0.8-1.1c0.3,0.4,0.9,0.7,0.9,1.1
		C44.5,266.7,43,267.9,39.2,267.5 M41.6,169.8c-0.1,0-0.3,0-0.4,0.1c-0.1-0.7-0.3-1.3-0.5-2.4c-0.7,1-1.2,1.8-1.8,2.7
		c-0.2-2.1,0.5-3,2.7-3.7V169.8z M40.8,257.8c-0.4,0.7-0.7,1.6-1,1.6c-2.1,0-2.3,1.3-2.1,3.2c-0.7-0.1-1.6-0.1-1.6-0.3
		c-0.1-1.1-0.3-2.3,0.1-3.2C37,257.4,38.7,257.5,40.8,257.8 M36,183.7c-0.4,1.4,0.9,3.7-2.4,3.7c0.6-1.6,1.1-3.1,1.8-5.2
		C35.7,183,36.1,183.4,36,183.7 M30,195.1c-0.2,0-0.5,0.1-0.7,0.1c-0.6-1.2-1.8-2.3-0.2-4.2C29.4,192.7,29.7,193.9,30,195.1
		 M27.7,202.2c1.4,2.7,0.2,5-0.9,7.4C25.6,208.3,26.4,203.1,27.7,202.2 M57.1,388.4c0.2-0.1,0.4-0.3,0.6-0.4
		c0.9,1.7,1.8,3.4,2.7,5.1c-0.3,0.1-0.5,0.3-0.8,0.4C58.7,391.8,57.9,390.1,57.1,388.4 M58.9,339.2c0.2-0.1,0.4-0.1,0.5-0.2
		c0.5,0.4,1,0.7,1.4,1.1c0.1-0.1,0.2-0.1,0.3-0.2c-0.4-0.8-0.8-1.6-1.2-2.5c1.7,0.7,1.7,1.2,1,7.5C60.1,342.6,59.5,340.9,58.9,339.2
		 M61.5,361.4c1.5,0.3,2.6,0.5,3.6,0.7c-0.6,0.6-1.1,1.2-1.9,2C62.7,363.2,62.1,362.4,61.5,361.4 M72.9,353.5
		c-1.2-2.7-2.4-5.3-3.6-7.9c0.1-0.1,0.3-0.1,0.4-0.2c0.7,1.2,1.2,2.3,2,3.4c0.4,0.7,0.6,2,2.1,1.2c0.3-0.2,1.2,0.8,1.8,1.2
		c-0.1,0.1-0.2,0.3-0.3,0.4c-0.5-0.2-1-0.5-1.4-0.4c-0.3,0.1-0.7,0.9-0.6,1.1c2.3,3.6,4.7,7.1,7,10.6c0,0,0.1,0,0.4-0.1
		c-0.2-1-0.3-2.1-0.5-3.1c0.1,0,0.1-0.1,0.2-0.1c0.4,0.6,0.9,1.3,1.2,2c1.7,3.3,3.9,6.4,6,9.5c1.2,1.9,2.2,4,3.1,6.1
		c0.2,0.5-0.2,1.3-0.3,2.2c0.4,0,0.9,0.1,2,0.2c-1,0.5-1.4,0.8-1.7,0.9c-1.8-1.5-3.6-3-5.4-4.5c0.8-0.2,2.1-0.5,2.1-0.6
		c-0.1-1-0.3-2-0.7-2.8c-0.5-0.9-1.3-1.6-2-2.4c-0.5-0.6-1.5-1.2-0.4-2.2c0.2-0.2,0-1-0.3-1.2c-1.4-0.9-3.1-1.4-4.3-2.5
		c-1.1-0.9-1.8-2.3-2.6-3.6c-0.5-0.7-1-1.4-1.2-2.2c-0.5-2.3-3.3-2.3-4-4.6C72.2,353.8,72.5,353.6,72.9,353.5 M84.8,379.2
		c0.6-0.3,1.5-0.8,1.6-0.7c0.6,0.8,1.1,1.7,1.6,2.6c-0.2,0.1-0.4,0.2-0.5,0.3c-0.5-0.3-1-0.6-1.4-0.9
		C85.6,380.2,85.3,379.8,84.8,379.2 M90.7,381.6c1.6-0.2,3-0.7,3.6,1.1c-0.6,0.4-1.1,0.6-1.8,1C92,383.3,91.4,382.5,90.7,381.6
		 M94.5,380.3c0.1-0.2,0.2-0.4,0.3-0.7c1,0.3,2.1,0.5,2.9,1c2.2,1.6,3.8,4.8,3.4,6.9c-1.7-2.4-3.1-4.5-4.9-7c0.1,1,0.2,1.4,0.3,1.9
		c-0.1,0-0.2,0.1-0.3,0.1C95.7,381.8,95.1,381.1,94.5,380.3 M97.9,385.8c0.2-0.1,0.4-0.3,0.5-0.4c1.3,2,2.6,4,3.9,6.1
		C100,390.2,99,388,97.9,385.8 M97.7,424.7c0.2-0.1,0.3-0.2,0.5-0.4c1,1.2,1.9,2.5,2.9,3.7c-0.2,0.2-0.4,0.3-0.6,0.5
		C99.5,427.3,98.6,426,97.7,424.7 M106,402.3c0.5-0.1,0.9-0.2,1.3-0.3v-2c1.9,0.1,2.2,0.4,2.1,1.9c0,0.3,0.3,0.5,0.5,0.8
		c2.6,2.9,5.2,5.8,7.8,8.7c-0.1,0.1-0.3,0.3-0.4,0.4c-1.4-1-2.8-2.1-4.3-3c-2-1.2-3-3.5-4.8-5C107.7,403.3,106.9,402.8,106,402.3
		 M94,379.3c-2.8-3-4.4-6.5-6.2-10.3C91,370,94.1,375.5,94,379.3 M88.1,367.8c-0.2,0.1-0.4,0.2-0.5,0.3c-1.7-2.2-4-4.1-4.8-6.5
		c-0.9-2.6-2.2-4.8-3.6-7c-0.5-0.9-0.7-1.9-1.1-2.9c0.3-0.1,0.5-0.2,0.8-0.3C81.5,357,85.4,362.1,88.1,367.8 M122.4,410.8
		c3.1,2.9,5.8,5.4,8.6,8c-0.1,0.2-0.2,0.4-0.3,0.6c-1.4-0.5-3.7-0.6-4.1-1.5C125.5,415.3,121.5,414.8,122.4,410.8 M202.5,459.1
		c2.3-0.2,3.5,0.4,4.4,2.1C204.4,462.1,202.7,461.3,202.5,459.1 M254.5,471.5c-0.1-0.1,0.3-0.7,0.4-0.7c1.2,0.1,2.4,0.2,3.6,0.3
		c0,0.1-0.1,0.3-0.1,0.4c-1,0.2-2,0.5-3,0.6C255.2,472.2,254.8,471.8,254.5,471.5 M269.3,467.4c3.1-0.7,6.1-1.8,9.3-0.4
		c-3.1,0.3-6.1,0.6-9.2,0.9C269.3,467.8,269.3,467.6,269.3,467.4 M276.6,484.9c1.8-0.2,3.7-0.4,5.7-0.6
		C281.5,485.6,279.1,485.9,276.6,484.9 M285,471c-1.2,0.2-2.4,0.5-3.6,0.7c-0.2,0-0.5-0.3-0.9-0.6c1.7-0.4,3.1-0.8,4.6-1.2
		c0-0.2-0.1-0.3-0.1-0.5c-0.7-0.2-1.3-0.4-2.5-0.8c1.8-0.3,3-1.7,4.5-0.4c0.2,0.1,0.9-0.4,1.3-0.5c0.8-0.2,1.6-0.3,2.5-0.5
		c-0.3,1.4-0.4,2.3-0.6,3.3C288.6,470.6,286.8,470.8,285,471 M306.9,488.3c0.7-0.4,1.6-1.1,2.5-1.4c1.3-0.3,2.6-0.4,4-0.4
		c0.6,0,1.2,0.3,2,0.5c-5.1,0.7-5.6,1-4.6,2.4c-1,0.3-1.8,0.6-2.1,0.7C307.7,489.2,307.1,488.6,306.9,488.3 M302.6,469.6
		c0-0.3,0-0.5,0.1-0.8c2.4,1.4,4.1-0.2,6-0.8c0.2-0.1,0.4-0.2,0.6-0.1c3.4,1.2,4.1-2.4,6.8-3.2c2.6,1.6,5-2.5,8.5-1.3
		c-1,0.7-1.7,1.2-2.4,1.7c0,0.1,0.1,0.2,0.1,0.2c1.6-0.4,3.2-0.7,4.8-1.1c0,0.1,0,0.2,0.1,0.3c-0.9,0.3-1.9,0.4-2.7,0.9
		c-0.7,0.3-2,0.1-1.8,1.5c0,0.2-1.2,0.7-1.6,0.6c-2.3-0.7-4.4-0.1-6.6,0.7c0.6,0.1,1.3,0.1,1.9,0.2c-1.6,0.6-3.1,1.6-4.9,0.3
		c-0.3-0.2-0.9,0.1-1.3,0.2c-1.5,0.5-3,1.3-4.6,1.5C304.5,470.7,303.5,470,302.6,469.6 M311.1,458.4c-1.7,0.4-3.4,0.8-5.1,1.1
		c-0.1-0.3-0.2-0.6-0.2-0.8c1.7-0.4,3.4-0.8,5.1-1.3C310.9,457.7,311,458.1,311.1,458.4 M330.2,464c2.3-0.6,4.6-1.1,7.1-1.8
		c-0.8,1.4-4.5,2.6-6.9,2.3C330.3,464.4,330.2,464.2,330.2,464 M338.3,461.5c1-0.4,1.6-0.7,2.2-0.8c1.4-0.1,2.7,0,4.4,0
		c0,0.2,0.2,0.8,0.4,1.5c-0.8,0.4-1.6,0.9-2.4,1.3C341.6,463,340.2,462.4,338.3,461.5 M412.3,415.4c1.2-0.8,2.4-1.7,3.8-2.6
		C416,415.2,414.3,416.4,412.3,415.4 M435.7,386.7c0.2-3.5,1.4-6.2,4.7-7.6c-0.7,1.7-1,1.8-2.1,2.8c-0.5,0.5-0.8,1.5-0.7,2.2
		C437.6,385.7,436.7,386.2,435.7,386.7 M445,370c0.5-0.8,0.9-1.8,1.5-2.5c0.7-0.9,2-1.3,1.7-2.8c0-0.1,0.7-0.4,1.1-0.5
		c0.2,0.2,0.3,0.4,0.5,0.6c-1.4,1.9-2.8,3.7-4.2,5.6C445.4,370.2,445.2,370.1,445,370 M469,316.5c-0.2,1.9-0.4,3.6-0.6,5.4
		C467.1,318.6,467.6,316.6,469,316.5 M473.9,204c0.2-0.6,0.6-1.3,0.5-1.3c-1.2-0.8-0.3-1.5-0.1-2.3c0.2-0.6-0.1-1.4-0.1-2.1
		c-0.1-1-0.1-2-0.2-3c-0.1-0.8-0.2-1.7-0.6-2.4c-0.4-0.9-1.2-1.6-1.6-2.4c-0.2-0.4,0-1.1,0-1.6c0-1.7,0.2-3.8-0.8-5.1
		c-1.8-2.4-0.6-4.8-0.8-7.2c-0.1-1.1,0-1.4-1-2.2c-1.1-0.8-1.6-2.6-2.5-4.3h1.5c-0.2-1-0.5-1.9-0.7-3c-0.6,0.5-0.9,0.8-1.8,1.6
		c0-2.6,0.1-4.8-0.1-6.9c-0.1-0.8-0.8-1.6-1.3-2.3c-0.2-0.2-0.9-0.1-1-0.3c-0.7-1.6-1.6-3.2-1.9-4.9c-0.4-2.4-1.6-4.3-3.5-5.7
		c-1.3-1-0.9-1.5,0.6-2.1c-0.8-1-1.5-1.7-2.2-2.5c0-0.4,0.2-1.2-0.1-1.6c-1.2-1.8-2.7-3.5-3.9-5.3c-0.5-0.6-0.8-1.5-0.9-2.2
		c-0.1-1.1-0.1-2-1.2-2.8c-1.4-1-2.4-2.6-3.5-3.9c0.9,0.4,1.7,0.7,2.5,1c0.2-0.2,0.4-0.5,0.5-0.7c-1-1.3-2.1-2.7-3.2-4.2h2.9
		c-1.5-1-3.2-1.6-2.2-3.6c0.1-0.2-0.2-0.7-0.4-1c-1-1.6-2.3-3.2-3.1-4.9c-0.9-1.9-2.2-3.2-3.7-4.5c-1-0.9-1.3-2.5-2.2-4.3
		c1.3,0.6,2,0.9,2.7,1.2c-1.6-2.1-3.3-4-5.1-5.8c-0.9-0.8-2.3-1.1-3-2c-1.4-1.7-2.5-3.7-3.7-5.6c-0.2,0.3-0.5,0.6-0.5,0.6
		c-1.9-1.6-1.4-5-4.8-5.2c-0.3,0-0.7-0.4-0.9-0.7c-0.7-1-1.3-2.1-2-3.1c-0.2,0.1-0.3,0.2-0.5,0.3c0.6,0.8,1.2,1.6,2.1,2.9
		c-0.9,0.1-1.8,0.5-2.3,0.3c-1-0.5-1.8-1.5-2.7-2.2c-1.1-0.9-2.3-1.9-3.4-2.8c-0.1-0.1-0.5,0.1-0.7,0.1c-0.3,0-0.7,0-1-0.2
		c-0.5-0.3-1-0.7-1.7-1.1c-0.1,1.1-0.2,1.8-0.3,2.5c-1.1-0.2-2.3-0.1-3.2-0.5c-0.7-0.3-1.7-1.2-0.2-2.2c-1.4-1.3-2.7-2.5-4.3-3.9
		c0.7-0.2,1.2-0.3,1.8-0.5c-5.6-2.8-5.6-2.8-5.8-4.4c0.7,0.9,1.3,1.5,1.9,2.2c0-1.8-4.6-5-5.8-4.9c-1.6-1.5-2.8-2.6-3.8-3.5
		c-0.8,0.6-1.3,1-2,1.5c-0.1-0.6-0.2-0.8-0.1-1c1-2.5-0.3-2.9-2.5-3.1c-1.6-0.1-3.4-0.4-4.5-2.7c1.3,0.5,2.1,0.8,2.8,1
		c-0.9-2-1.8-4.1-2.7-6.1c-0.2-0.5-0.3-1.1-0.6-1.3c-2.1-1.7-4.3-3.4-7.2-3.6c-0.4,0-0.7-0.3-1-0.5c0.2,0.1,0.4,0.2,0.6,0.3
		c0.6-0.4,1.3-0.7,1.9-1.1c-0.4-0.2-0.8-0.5-1.1-0.7c0.4,0.2,0.8,0.4,1.2,0.7l0,0c1.1,0.7,2.3,1.4,3.4,2.1c0.1-0.2,0.2-0.3,0.3-0.5
		c-1.1-0.8-2.3-1.7-3.4-2.5c-0.8-0.6-1.6-1.3-2.4-1.9c-3.1-1.9-6.3-3.8-9.4-5.7c-0.3-0.2-0.7-0.6-0.8-1c-0.5-3.2-0.6-3.3-2.9-2.6
		c-1.8-1.1-3.1-1.9-4.5-2.7c-1.5-0.9-3-1.7-4.6-2.6c0.1,0.6,0.1,1,0.1,1.6c-0.6-0.1-0.9-0.2-1.7-0.4c0.7,0.6,1.1,0.9,1.5,1.3
		c-1.4,0-3.5-0.1-3.7-0.8c-0.8-2.3-2.9-2-4.3-3.2c-0.5,1.4-0.4,1.3-1.5,0.6c-1.3-0.8-2.6-1.7-4.1-2.1c-3.2-0.9-6.2-2.5-9.7-1.9
		c-0.5,0.1-1.1-0.4-2-0.8c0.8-0.2,1.2-0.3,1.6-0.4c0-0.2,0-0.4-0.1-0.5c-0.6,0.1-1.1,0.2-1.7,0.4c-0.7,0.2-1.3,0.5-2,0.6
		c-0.8,0.1-1.6,0.1-2.4,0.1v-1.6c0.8,0.1,1.5,0.2,2.3,0.3c0.1-0.2,0.1-0.3,0.2-0.5c-0.9-0.3-1.7-0.7-2.6-1c-1-0.3-2-0.7-3-1
		c-0.4-0.1-0.8,0-1.2,0.1c0,0.2,0,0.3,0,0.5c0.4,0.2,0.8,0.5,1.4,0.8c-0.8,0.2-1.4,0.3-2.3,0.5c1.2,0.4,1.9,0.7,3,1.2
		c-0.8,0.2-1.1,0.3-1.4,0.4c0,0.1,0,0.2,0,0.4c1,0.1,1.9,0.2,2.9,0.2c0,0.3,0,0.7,0.1,0.7c2.3,0.6,3.5,3.2,6.1,3.5
		c0.4,0,0.7,0.4,1.1,0.6c0,0.1-0.1,0.3-0.1,0.4h-2.1c0.6,1.2,2.4,0.8,2.4,2.4c0.3-0.1,0.6-0.2,0.9-0.2c0.7,0,1.5-0.1,2.1,0.1
		c0.6,0.2,1,0.8,1.5,1.2c0.1-0.1,0.2-0.2,0.4-0.3c0.2,0.6,0.4,1.2,0.5,1.7c-1.7,0.4-3.4,0.9-5.1,1.3c-0.9-2.1-2.7-1.8-4.4-1.8
		c-1.7,0-3.4,0-4.9,0c0.2,0.3,0.5,0.7,1,1.3c-0.8,0-1.2,0-1.6,0c-0.4,0-0.7,0-1.3,0.1c0.4,0.4,0.6,0.6,0.9,1c-1.9-0.3-2.5-1.1-2-2.7
		c-0.6-0.2-1.2-0.3-2.3-0.6c1.2-0.1,1.9-0.2,2.6-0.3c0.1-0.2,0.1-0.4,0.2-0.6c-1.5-0.5-3.1-1.1-4.6-1.6c-1.7-0.5-3.3-0.9-5.1-1.4
		c0.3-0.6,0.5-1.1,0.7-1.8c-0.8-0.1-1.5-0.1-2-0.3c-1.1-0.3-2.2-1.3-3.1-1.1c-0.7,0.2-1.2,1.6-1.8,2.5c0,0.1,0,0.2,0.1,0.3
		c2.5-0.7,8.8,1.1,11.4,5.1c-0.1,0-0.3,0.1-0.4,0c-0.5-0.2-1-0.5-1.6-0.7c-0.4-0.2-1-0.4-1.4-0.3c-1.2,0.3-1,0.2-1.6-0.8
		c-0.5-0.9-1.5-1.7-2.4-2c-1-0.2-2.1,0.3-2.8,0.5c-0.2,0.8-0.2,1.7-0.5,1.8c-1.3,0.5-2.3,2.4-4.1,1c-0.1-0.1-0.1-0.3-0.2-0.6
		c0.5-0.1,1-0.2,1.5-0.3c-0.6-0.4-1.1-0.7-1.6-1.1c0.5-0.2,1-0.5,1.4-0.7c0-0.2-0.1-0.4-0.1-0.6c-1.9,0-3.7,0-5.6,0
		c-0.3,0-0.7-0.1-0.9-0.3c-0.9-1-1.5-0.4-2.3,0.3c-0.6,0.6-1.8,1.3-2.4,1.1c-1.4-0.5-2.7-1.4-4.4-2.4c1.3-0.4,2.4-0.7,3.7-1.1
		c-1.5-0.9-3-1.7-4.4-2.6c-2.8-1.7-3.2-2.6-1.7-4.4c-3.5-0.7-6.4-3.5-10.2-2.2c-0.1,0-0.3-0.1-0.4-0.2c0-0.1,0-0.3,0-0.4
		c1.2-0.3,2.4-0.5,4.1-0.9c-1-0.1-1.7-0.1-2.2-0.3c-2-0.8-3.6,1.8-5.8,0.5c-1.1-0.6-2.7-0.4-4.1-0.6c-2.2-0.4-4,0.9-6.1,1.2
		c-0.1,0-0.1,0.4-0.1,0.7c1.1,0.1,2.1,0.2,3.1,0.3c0,0.2,0,0.4,0,0.6c-4,0.3-8,0.7-12,1c0.4,0.9,0.8,1.8,1.3,2.9
		c-2.2,0-4.4-0.1-6.6,0c-2.2,0.2-4.5,0.7-6.9,1.1c-1.6-1.6-1.6-1.6-11.4-0.3c0.2-0.3,0.4-0.5,0.8-0.9c-1.7,0.1-3-1.1-4.8,0.4
		c-1.5,1.3-3.9,1.4-5.9,2c0,0.1,0,0.3-0.1,0.4c0.8,0.3,1.5,0.6,2.3,0.9c0,0.2,0,0.3,0,0.5h-4.7c0,0.1,0,0.2,0,0.3
		c0.8,0.4,1.6,0.7,2.4,1.1c0,0.2,0,0.4,0,0.6c-1,0-2.2,0.3-3-0.1c-0.5-0.3-0.5-1.6-0.8-2.6c-1,0.5-2.8-0.3-3.7,1.5
		c-0.1,0.2-0.8,0.1-1.3,0c-0.1,0,0-0.5-0.1-0.9c-2.5,0.7-5,0.4-7.2-1.2c-0.1,0.2-0.2,0.5-0.3,0.7c0.6,0.5,1.2,0.9,2.2,1.8h-5
		c0.4-0.9,0.6-1.3,0.9-2c-3.7,1.1-7.2,2.1-10.7,3.1c-0.1-0.2-0.1-0.3-0.2-0.5c0.3-0.4,0.6-0.8,0.9-1.2c0-0.2-0.1-0.3-0.1-0.5
		c-1,0.2-2.1,0.3-3,0.6c-0.6,0.2-1,0.8-1.4,1.2c-0.1-0.1-0.2-0.3-0.3-0.4c0.1-0.3,0.1-0.6,0.2-1.1c-2.7,1.2-5.6,0.5-7.9,2.4
		c-0.2,0.2-0.7,0-1,0.1c-0.6,0.2-1.2,0.5-1.7,0.7c0.2,0.5,0.4,1.1,0.8,1.6c0.2,0.3,0.7,0.4,1.2,0.7c-1.2,0.4-1.9,0.7-2.5,0.9
		c-0.7,0.3-1.4,0.6-2.3,0.9c1,1.6-0.2,2-1.3,2.3c0.2,0.5,0.3,0.9,0.6,1.5c-1.4-0.2-2.6-0.5-3.7-0.6c-1.1-0.1-2.2-0.1-3.3-0.2
		c-0.4,0-2.5,0.1-2.6,0.2c0.4,0.1,0.7,0.1,1.3,0.2c-0.4,0.4-0.6,0.7-0.8,0.9c1.7,2.2,3.6,0.1,5.5,0.3c-4.4,3.9-9.9,4.8-14.8,5.9
		c-0.5,0.8-0.8,1.3-1.2,1.8c-0.1-0.1-0.2-0.1-0.3-0.2c0.3-0.9,0.6-1.8,0.9-2.6c-0.2-0.1-0.3-0.2-0.5-0.3c-2.2,1.5-4.4,3.1-6.6,4.6
		c0,0.1,0.1,0.2,0.1,0.3c0.6-0.1,1.1-0.3,2.1-0.5c-2,1.9-2.9,1.8-4.9,1.9c-1.4,0-2.9,1.2-4.3,1.9c0.9,0.8,0,1.5-0.4,1.8
		c-1.6,1.2-3.3,2.2-5,3.3c-0.1,0.1-0.4,0-1.2-0.2c2.3-0.8,1.9-1.9,1.1-3.3c-2.3,1.6-4.5,3.2-6.8,4.8c-0.7,0.5-1.4,0.9-2.2,1.2
		c-1.4,0.6-3.1,2.9-3.3,4.7c0.9-0.9,1.8-2,2-1.2c-1.3,1.3-2.6,2.6-3.8,3.9c-1.1-1.4-2.3,1.4-3.9,1.4c-0.2,0-0.4,1.2-0.7,1.7
		c-0.2,0.4-0.4,0.8-0.7,1.1c-0.8,0.7-1.7,1.3-2.4,1.8c-2.9,0.7-2.7,4.2-4.7,5.4c-0.1-0.1-0.3-0.2-0.4-0.3c0.6-1.4,1.3-2.8,1.9-4.3
		c-0.3,0-0.4-0.1-0.4,0c-0.2,0.2-0.3,0.4-0.5,0.6c-1.2,1.3-1.8,3.2-4.2,3c-0.6-0.1-1.3,0.8-2,1.3c0.8,0.7,1.3,1.2,1.9,1.8
		c-1.9,1.8-3.7,3.4-5.4,5.1c-0.9,0.9-1.6,2.1-2.5,3.2c-0.4,0.5-0.9,1.3-1.4,1.4c-1.2,0.1-2.1,0.3-1.7,1.8c0,0.2-0.4,0.5-0.7,0.7
		c-0.5,0.5-1.1,1-1.5,1.4c0.6,0.8,1,1.3,1.6,1.9c-0.9,0.2-1.7,0.1-2,0.4c-0.8,0.9-1.5,1.7-2.9,0.9c-0.2-0.1-1.4,1.6-2.1,2.4
		c-0.4,0.4-0.9,0.8-1.3,1.2c-0.1,0.1-0.2,0.3-0.2,0.5c0.3,0.1,0.6,0.2,0.9,0.4c-1.1,0.9-2.3,1.6-3.3,2.6c-0.9,0.9-1.6,2-2.4,3
		c-0.6,0.7-1,1.6-1.6,2.3c-1.1,1-2.8,1.7-3.6,2.9c-0.8,1.2-1.6,2.2-2.9,2.9c-0.6,0.3-1.2,1.2-1.2,1.8c0.1,1.8-0.5,2.6-2.2,2.7
		c-0.3,0-0.8,0.2-1,0.4c-1.8,2-3.5,4.1-5.3,6.3c0.6-0.1,1-0.1,1.2-0.1c1.2,3.5,0,6.2-2.6,8.7c-0.2-0.6-0.3-0.9-0.6-1.8
		c-0.6,1.1-1.2,1.8-1.5,2.5c-1.3,3.2-2,6.7-4.7,9.2c-0.6,0.5-1,1.5-1.6,1.5c-2.6,0.3-1.7,2.4-2.3,3.8c0.5-0.1,0.8-0.4,1.1-0.7
		c0.4-0.4,0.9-0.7,1.3-1.1c-0.1,0.6-0.1,1.3-0.3,1.9c-0.9,2.3-2,4.5-2.9,6.8c-0.6,1.5-0.8,3.1-2.6,3.9c-0.6,0.3-0.9,1.5-1.1,2.3
		c-0.3,1.2-0.2,2.5-0.7,3.6c-1.1,2.5-2.1,5.2-4.9,6.5c-0.2,0.1-0.4,0.7-0.3,0.9c0.7,1.3,0.4,2.4-0.6,3.4c-0.1,0.1,0.1,0.5,0,0.7
		c-0.1,0.8-0.2,1.5-0.4,2.3c-0.2,0.9-1.1,2.1-0.8,2.4c1.5,1.6,0.2,1.9-0.9,2.4c-0.1-0.6-0.2-1.1-0.4-1.8c-0.6,0.4-1.1,0.7-1.6,1
		c0.2,0,0.3,0.1,0.5,0.1c-0.3,2.1-0.6,4.3-0.9,6.6c-1.2,0.2-1.9,1.1-2.1,2.6c-0.3,2.3-0.7,4.6-1.1,6.9c-0.1,0.4-0.5,0.7-0.8,1.1
		c-0.2,0.2-0.5,0.6-0.5,0.7c0.1,0.3,0.5,0.5,0.8,0.6c0.5,0.2,1.4,0,1.6,0.3c0.8,1.2,1.4,2.5,1.7,3.1c-0.6-0.7-1.6-1.8-2.6-2.9
		c-1.9,1.2-0.5,3.4-2.4,3.2c-0.1,1.2,0,2.5-0.2,3.7c-0.1,0.7-0.5,1.4-0.8,2.2c-0.4,1.3-0.9,2.7,1,3.3c0.2,0.1,0.4,0.4,0.5,0.7
		c0.4,0.6,0.7,1.2,1.2,2.1c-0.8,0.8-1.8,1.9-2.9,3c-0.2-0.5-0.3-0.9-0.5-1.8c-0.4,2.2-0.7,4-1,5.8c-0.3-0.3-0.6-0.5-0.9-0.7
		c-0.5,4.9-1,9.7-1.5,14.5c-2.5-1.2-0.4-3.5-1.6-5.7c-0.3,2.3-0.2,4.1-0.8,5.7c-0.9,2.7-0.8,5.4-0.8,8.1c0,2.5-0.3,4.9-0.3,7.4
		c0,1.2,0.1,2.5,0.5,3.6c0.5,1.4,1,2.4-1.1,3c0.4,0.7,0.8,1.2,1,1.8c0.2,0.5,0.7,1.2,0.5,1.5c-1.6,2.2-0.1,4.4,0,6.5
		c0,0.3,0.7,0.6,1.3,1.1c-0.1,0.8-0.2,2.1-0.4,3.4c-0.2,0-0.4-0.1-0.5-0.1c-0.1-0.8-0.2-1.6-0.2-2.4c-0.2,0-0.4,0-0.6,0
		c-0.1,1-0.3,2.1-0.2,3.1c0.2,2.7,0.7,5.5,0.7,8.2c0,3.2-0.2,6.3,2.6,9c-0.6-3-1.1-5.7-1.6-8.5c-0.1-0.6,0.2-1.2,0.3-1.9
		c0.6,0.3,1.4,0.5,1.6,1c0.4,0.9,0.4,2.1,0.6,3.1c0.4,1.4,0.8,2.7,1.3,4.3c-0.1,1.1-0.3,2.5-0.4,4c0,0.2,0.9,0.4,1.2,0.5
		c0.2,1,0.5,2.1,0.7,3.2c0.2,0.9,0.3,1.9,0.5,2.8l0,0l0,0l0,0c2.5,2.5,2.6,9.4,1.8,10.7c0.7,3,1.3,5.6,1.9,8.2
		c0.1,0.5,0.3,1,0.5,1.5c0.7,1.8,2.5,3.4,0.8,5.5c1.8,0.3,3.7,2.9,3.9,4.6c0.2,1.7,0.1,3.6,1,4.9c1.8,2.9,2.9,5.9,3.1,9.3
		c0,0.4,0.1,0.9,0.3,1.3c0.8,1.7,1.5,3.4,2.4,5c0.9,1.6,2,3,2.8,4.6c0.5,1,1.1,2.4,0.8,3.4c-0.5,1.6-0.9,3.2,0,4.5
		c1.1,1.7,2.7,3.1,4.1,4.6c0.1-0.1,0.3-0.2,0.4-0.3c-0.2-0.6-0.4-1.2-0.6-1.8c2.1,0.4,2.6,2.8,2.2,3.4c-1.2,1.5-0.2,2.3,0.3,3.3
		c1.2,2.4,2.4,4.8,3.8,7.2c2.1,3.5,4.3,6.8,6.4,10.1c0.8-0.3,1.5-0.7,2.4-1.1V396c0-0.1,0-0.3,0.1-0.5c1.8,1.4,3.2,4,3.4,6
		c0,0.7,0.2,1.6,0.6,2.1c1.7,2.2,3.5,4.4,5.4,6.4c1.1,1.1,2.5,1.8,3.9,2.7c-0.6,1.1-0.5,1.2,0.6,1.3c0.4,0,0.9,0.2,1.2,0.4
		c1.3,1.5,2.6,3.1,3.9,4.6c1.5,1.7,3,3.4,4.5,5.1c0.8,0.9,1.7,1.9,2.6,2.8c0.8,0.8,2,1.3,2.6,2.1c0.9,1.3,1.7,2.4,3.3,2.9
		c0.5,0.1,0.8,0.7,1.1,1.1c0.4,0.5,0.6,1.2,1.1,1.6c1.5,1.5,3.1,2.9,4.7,4.3c3.3,3,6.7,6,10,8.9c0.4,0.4,1.1,0.9,1,1.2
		c-0.2,1.4,0.6,1.2,1.5,1.3c3.7,0.5,5.8,3.5,9,5.4c-0.7,0.2-1.1,0.3-1.4,0.4c1.4,1,2.8,2.1,4.2,3c1,0.6,2.1,1.3,3.3,1.5
		c2.1,0.4,2.3,0.6,1.8,2.6c1.2,0.6,2.9,0.8,3.5,1.8c0.9,1.5,1.7,1.3,2.9,0.5c1,2,2.1,3.6,4.4,3.7c0.4,0,0.7,0.3,1,0.5
		c1.1,0.6,2.3,1.1,3.4,1.8c0.8,0.5,1.4,1.2,2.2,1.9c0.6,0.1,1.7,0.2,2.9,0.4c-0.5,0.4-0.8,0.7-1,0.9c0.7,0.5,1.3,0.9,1.9,1.3l0,0
		l0,0l0,0c1.2,0.5,2.3,1.1,3.5,1.6c1.9,0.7,4,1,5.9,1.8c6.5,2.9,12.9,6.1,19.4,9c4.5,1.9,9.2,3.4,13.8,5c0.7,0.3,2.2-0.1,2.3,0.3
		c0.9,2,2,1.7,3.4,0.8c0.2-0.1,0.6,0.1,1,0.2c-0.9,1.3-0.3,1.6,0.8,1.6c0.6,0,1.3-0.2,1.6,0c2.3,1.6,5.1,1.7,7.6,1.8
		c3.2,0.1,5.5,1.4,7.9,3.3c0.9-1.1,1.6-0.7,2.8-0.1c1.5,0.8,3.3,0.8,5,1.2c0.6,0.1,1.3-0.1,1.9,0c0.8,0.2,1.5,0.9,2.2,0.8
		c2.5-0.1,4.8,0.4,7,1.5c0.5,0.2,1.1,0.3,1.6,0.2c2-0.2,4-0.6,6,0.3c0.5,0.2,1.1,0.2,1.7,0.3c4,0.2,8,0.5,12,0.7
		c1,0,2.1-0.3,3.1-0.4c-1.1-0.7-2.1-1-3.1-1.2c-1.1-0.2-2.2-0.2-3.2-0.3c0.7-0.2,1.5-0.3,2.2-0.3c5.1,0.3,10.3,0.6,15.4,0.8
		c2.3,0.1,4.6-0.2,6.9-0.3c0-0.3,0-0.6,0-1c-0.9-0.1-1.9-0.1-2.8-0.2c0-0.2,0-0.4,0-0.6c1.9-0.1,3.9-0.2,5.8-0.3
		c0.2,0,0.5,0.6,0.8,1.1c1.3,0.2,2.9,0.4,4.5,0.6c-0.1-0.2-0.1-0.3-0.2-0.5c0.9-0.4,1.8-1,2.7-1.2c1.5-0.4,3-0.6,4.5-0.8
		c0.4-0.1,0.9,0.2,1.2,0.4c1.1,0.6,3.2-0.1,3.3-0.6c1.7-0.6,3.2-1.2,4.8-1.7c0.4-0.1,0.8-0.1,1.2-0.1c0.6,0,1.2-0.1,1.7-0.1
		c-0.1-0.7-0.2-1.5-0.4-2.2c-0.1-0.3-0.3-0.6-0.6-1c1-0.4,1.8-0.8,2.9-1.2c-0.3-0.6-0.6-1.1-0.8-1.5c-0.8,0.5-1.3,1.1-1.9,1.1
		c-3,0-3-0.1-4.1,3.1c-4.3-2.7-9.1-1.6-13.8-2.1c3.4-2.4,6.7-4.6,11.5-3c-1.2,0.2-2.1,0.3-3,0.4c0,0.2,0,0.4,0,0.6
		c0.6,0,1.3,0.3,1.8,0.1c1.5-0.3,2.9-0.9,4.4-1.3c2.4-0.6,4.8-1.2,7.2-1.8c0.6-0.1,1.2-0.2,1.9-0.2c3.2-0.2,5.8-1.2,7.7-4
		c1.3,0.2,2.5,0.5,3.8,0.7c0.5,0.1,1-0.1,1.4-0.1c0-0.2,0-0.4,0-0.7h-3.2c0.6-0.5,0.9-0.8,1.2-1.1l-0.2-0.3
		c-0.9,0.2-1.7,0.4-2.6,0.6c0.5-0.9,2.4-0.9,2-2.2h-7.5c-0.1,1.1-1,1.4-2.4,1.1c-0.6-0.1-1.8,0.1-2,0.5c-0.8,1.6-2.1,1.6-3.7,1.5
		c0.9-1,1.6-1.8,2.4-2.6c-2.9-0.5-6.7,0.9-8.6,2.9c-0.6,0.6-1.7,0.7-2.5,1c-0.1-0.2-0.1-0.3-0.2-0.5c0.2-0.3,0.4-0.5,0.6-0.8
		c-0.6-0.4-1.1-0.9-1.6-1.2c-0.5-0.3-1.3-0.3-1.6-0.7c-0.6-0.7-3.3-1.1-3.8-0.3c-0.9,1.4-2,1.5-3.8,1.1c1.5-1,2.6-2.1,3.9-2.6
		c2.9-1,5.9,0,9-1.2c2.3-0.9,5.3-0.3,8-0.4c0.3,0,0.5-0.3,1-0.5c-0.7-0.3-1.2-0.5-1.7-0.7c1.8-1,3.7-0.6,3.3-3c0-0.3,0.6-0.7,0.9-1
		c1.3-1.3,2.9-1.6,4.8-1.1c0,0.4,0,0.8-0.1,1.4c2-1,4.6-1.5,5.5-2.9c1.4-2.2,2.6-1.1,4-1c0.4-0.3,0.9-0.4,1.4-0.4s1,0.1,1.5,0
		c1.2-0.4,2.3-0.9,3.4-1.3c0.1,0.2,0.1,0.4,0.2,0.6c-1.4,0.5-2.8,1-4.2,1.5c0.1,0.2,0.1,0.5,0.2,0.7c1-0.2,2.1-0.2,3-0.6
		c2.5-1,4.9-2.1,7.3-3.2c0.4-0.2,0.7-0.7,1-1l-0.3-0.4c-0.4,0.2-0.8,0.5-1.6,1c0.1-0.7,0.1-1.4,0.3-1.5c0.7-0.3,1.5-0.4,2.3-0.5
		c0.7-0.1,1.5-0.1,2.2-0.2c0.5-0.1,0.9-0.3,1.4-0.5c0.8-0.4,1.6-0.8,2.4-1.2c-0.1-0.2-0.1-0.3-0.2-0.5c-0.7,0.1-1.4,0.3-2.4,0.5
		c2-2.2,6.2,0.2,6.7-3.6c0.8-0.1,1.5-0.2,2.2-0.3c0-0.1,0-0.3,0-0.4c-0.5-0.2-0.9-0.5-1.8-0.9c1.3-1,2.3-1.8,3.1-2.5
		c-0.4-0.6-0.7-1.1-0.9-1.5c-1.4,0.6-2.9,1.4-4.5,1.7c-1.6,0.3-3.3,0.1-5.2,0.1c0,0-0.1-0.4-0.2-0.7c-1.1,0.4-2.1,0.8-3.2,1.2
		c-0.1-0.2-0.2-0.5-0.2-0.7c2.5-0.8,4.9-1.7,7.5-2.4c1.5-0.4,3.1-0.9,4.7-0.9c1.3,0,6-1.4,6.2-2.5c0.2-1.3,1-1.4,1.8-1.8
		c1.1-0.5,2.1-1.1,3.2-1.5c0.8-0.4,1.7-0.6,2.5-0.9c0.1,0.2,0.2,0.4,0.2,0.6c-1.5,0.8-3.1,1.5-4.9,2.4c0.9,0.3,1.6,0.6,2,0.7
		c0.7-0.5,1.2-1,1.8-1.4c0.1,0.3,0.1,0.6,0.2,1c1.1-0.4,2.1-0.8,3.2-1.3c0-0.1-0.1-0.3-0.1-0.4c-0.7,0.1-1.4,0.2-2.7,0.4
		c2-1.1,3.6-1.9,5.1-2.8c1.3-0.8,2.2-1,2.9,0.8c0.1-0.3,0.3-0.5,0.3-0.6c0.2-1.8,0.2-3.8,2.4-4.2c2.8-0.5,4.2-2.8,6-4.5
		c0.3-0.3,0.9-0.8,1.3-0.7c1.9,0.3,2.5-0.9,3.1-2.3c-0.9,0-1.6-0.1-2.9-0.2c1.7-1.3,3.1-2.4,4.4-3.4c0.1,0.1,0.2,0.3,0.3,0.4
		c-0.4,0.4-0.9,0.8-1.5,1.4c1.3,1,2.4,1.8,3.4,2.6c0.7-0.2,1.3-0.3,2.1-0.5c-0.6,1.2-1.1,2.1-1.6,3.1c0.2,0.1,0.4,0.2,0.6,0.3
		c2.6-1.2,2-4.6,4-6.3c-0.3,0-0.6-0.1-1.4-0.2c1.1-0.7,1.7-1.1,2.3-1.5c1.2-0.9,2.5-1.7,3.7-2.8c0.8-0.8,1.3-1.7,2.8-1.5
		c1.2,0.1,2.5-0.6,3.7-1c0.3-0.1,0.8-0.6,0.8-0.8c-0.6-1.4,0.6-1.4,1.3-1.7c0.5-0.2,0.9-0.6,1.3-0.9c-0.1-0.2-0.2-0.4-0.3-0.6
		c-0.8,0.4-1.7,0.6-2.5,1.1c-0.9,0.5-1.7,1.2-2.8,2c0.5-2.3,1.7-3.3,3.4-3.9c0.5-0.2,1-0.4,1.3-0.8c0.9-1.2,1.8-2.4,2.7-3.5
		c0.3-0.3,0.9-0.3,1.3-0.4c0,0.5,0.1,1,0,1.4c-0.2,0.7-0.6,1.4-1,2.3c1.7-0.4,2.3-2.8,4.2-1.2c0.8-0.8,1.5-1.6,2.6-2.8
		c-0.4,1.2-0.7,1.9-0.9,2.6c1.4-1.5,2.1-3.3,3.4-4.7c1.4-1.5,3.3-2.6,5-3.9c-0.1-0.1-0.2-0.2-0.2-0.3c-0.5,0.3-0.9,0.5-1.4,0.8
		c1.2-1.2,0.5-3.6,2.7-4c0.1,0,0.1-1,0.1-1.5c-0.5,0-1.2-0.3-1.5,0c-0.9,0.6-1.6,1.4-2.4,2.1c-0.1-0.6,0-1,0.3-1.2
		c1.7-1.2,3.4-2.3,5-3.6c0.7-0.5,1.7-1.3,1.7-2c0.1-1.7,0.1-2,1.6-2.9c-0.1,0.5-0.1,0.9-0.2,1.4c1.2-1.2,1.9-2.5,2.7-3.8
		c0.2-0.4,0.8-1.1,1-1c1.2,0.5,1.3-0.1,1.4-1.1c0.1-0.7,0.4-1.6,0.9-1.9c2-1.2,2.9-3.2,4-5c0.2-0.4-0.1-1.1-0.2-2
		c1.2-1.1,2.7-2.5,4.1-4c0.4-0.5,0.3-1.4,0.5-2.1c0.2-0.8,0.3-2.1,0.8-2.4c3.4-1.8,2.7-5.9,5.2-8.3c-0.5-0.2-0.9-0.3-1.6-0.5
		c1.9-1.3,0.9-4,3.1-5.1c0.1-0.1-0.2-1.1-0.4-1.8c-0.2,0-0.5,0-0.7,0c0.5-0.6,0.9-1.5,1.5-1.7c2.3-0.7,3.6-1.9,3-4.4
		c0-0.2,0.3-0.5,0.6-0.9c0.7,0.5,1.3,0.9,1.9,1.4c1.4-1.8,3.9-2.6,4.2-5.7c-0.8,1-1.3,1.7-2.2,2.8c-0.3-4.4,3.6-6.1,4.6-9.1
		c-0.9-0.4-1.6-0.6-2.3-0.9c0.3-1.1,0.6-2.2,0.9-3.2c0.5-0.5,1.1-0.9,1.3-1.5c0.7-1.9,0.4-4.3,2.9-5.3c0.2-0.1,0.1-0.9,0.1-1.3
		c-0.5,0.1-1.2,0-1.5,0.3c-0.5,0.4-0.8,1.1-1.2,1.7c-0.1-0.1-0.3-0.1-0.4-0.2c0.5-1.9,0.9-3.9,1.6-5.8c0.2-0.5,1.2-0.6,1.8-0.9
		c0.1,0.2,0.3,0.3,0.4,0.5c1.7-3.9,3.5-7.9,5.2-11.8c-0.3-0.1-0.5-0.2-0.8-0.3c-0.6,1.1-1.2,2.3-1.8,3.5c0.2-2.3,0.9-4.6,0.3-6.3
		c-0.9-2.7,2.7-3.2,2-5.5c0-0.1,0-0.1,0-0.2c-1.1-2.9,0.5-5.5,1-8.3c0.5-3.2,2.1-6.5-0.2-9.8c-0.4-0.6,0.3-2.2,0.7-3.2
		c0.5-1.2,0.8-2.2-0.8-2.7c1.7-2.1,1.7-2.1-0.7-3.3c-0.1,1.2-0.2,2.3-0.2,3c-0.7,0.2-1.3,0.3-2,0.5c-0.2-0.2-0.5-0.6-1.2-1.4v4.4
		c-0.2,0-0.4,0-0.6,0c-0.1-1.3-0.1-2.6-0.2-4.1c-0.9,0.3-1.5,0.5-2.2,0.7c-0.4-2-0.9-3.8-1.2-5.7c-0.2-1.2,0.1-2.5,0.1-3.7
		c0-0.2-0.1-0.3-0.2-0.6c-0.5,0.2-1,0.5-1.5,0.7c-0.1-1.2-0.2-2.2-0.3-3.1c-0.5,1.5-1.7,3.1-1.5,4.6c0.3,2.3-0.7,4.1-1.2,6.1
		c-0.8,3.2-0.8,6.6-1.4,9.9c-0.5,2.9-1.1,5.8-1.8,8.6c-0.4,1.7-1.1,3.3-1.6,5c-2.5,8.3-5.1,16.7-7.6,25c-1.6,5.1-4.5,9.6-5.5,14.9
		c-0.4,2.1-1.9,4-3,5.9c-0.8,1.4-0.5,1.8,1,1.7c-0.1,0.3-0.2,0.5-0.3,0.6c-1.7,2.6-3.4,5.1-5.2,7.6c-0.4,0.5-1.1,0.7-2.1,1.2
		c0.4,0.3,0.8,0.7,1.4,1.3c-0.1,0.3-0.2,1.3-0.5,1.4c-1.8,0.4-1,1.5-0.3,3c-1.3-0.5-2.1-0.8-2.9-1.1c-0.2-0.4-0.3-0.8-0.5-1.2
		c-0.3,0.7-0.6,1.3-0.9,2c-0.7,1.5-1.1,3.4-2.3,4.4c-2.6,2.3-2.8,5.6-4.5,8.3c-0.6,0.9-1.3,1.8-1.9,2.6c-0.1-0.1-0.2-0.2-0.4-0.3
		c0.1-0.4,0.2-0.8,0.4-1.6c-0.7,0.6-1.2,1-1.5,1.4c-2.4,2.7-4.8,5.5-7.1,8.3c-1.6,2-2.9,4.5-4.8,6.1c-2.6,2.1-5.2,4.2-6.8,7.2
		c-0.2,0.4-0.7,0.6-1,0.8c-1.6,1.2-3.2,2.3-4.8,3.4c0.1,0.2,0.3,0.4,0.4,0.6l1.8-1.1c-0.2,0.5-0.5,0.9-0.9,1.1
		c-2,1.2-4.5,1.7-6.1,3.7c-0.6,0.8-1.3,1.7-2.1,2.3c-3.9,2.9-7.8,5.6-11.6,8.5c-0.4,0.3-0.4,1.1-0.8,1.6c-0.5,0.6-1.1,1-1.7,1.5
		c-0.6-1.2-1.3-0.2-1.8,0.1c-1.9,1.1-3.7,2.4-5.6,3.6c-0.1,0-0.1,0.2-0.1,0.3c0.3,0.2,0.6,0.3,1.2,0.6c-0.6,0.3-0.9,0.6-1.2,0.7
		c-2.4,0.4-4.2,1.7-5.9,3.2c-0.5,0.4-1.2,0.7-1.9,1c-1.8,0.7-3.6,1.1-5.3,1.9c-7.2,3.2-14.3,6.6-21.5,9.8c-2.8,1.2-5.7,2.3-8.7,3
		c-2.9,0.7-5.3,2.5-8.5,2.9c-7,0.9-13.8,2.9-20.6,4.5c-0.4,0.1-0.8,0.6-1.1,1c-0.2,0.2-0.4,0.6-0.7,0.7c-1.7,0.4-3.4,1.1-5.2-0.3
		c-0.5-0.4-1.7-0.9-2.2,0.6c-0.2,0.5-1.5,0.6-2.2,0.9c0-0.1-0.1-0.2-0.1-0.4c0.3-0.2,0.5-0.4,1.3-1c-1.2,0.1-1.8,0.2-2.4,0.3
		c-1.3,0.3-2.6,0.8-4,1c-1.3,0.2-2.6,0.3-3.9,0.5c-0.7,0.1-1.5,0.2-2.1,0c-1.1-0.4-2-0.8-2.9,0.5c-0.2,0.3-1.4,0.3-1.6,0.1
		c-1.4-1.7-3.1-0.8-4.8-1c0.2,0.4,0.4,0.7,0.5,0.9c-3.1,0.8-6.1,0.3-9-0.8c-0.3-0.1-1,0.3-1.4,0.6c-1,0.7-1.8,0.9-2.7-0.1
		c-0.2-0.3-0.7-0.5-1-0.6c-4.5-0.4-9-0.7-13.5-1.3c-5.6-0.7-11.3-1.7-16.9-2.7c-4.2-0.8-8.3-1.8-12.4-3.1
		c-8.6-2.8-17.3-5.5-25.7-8.8c-6.7-2.7-13-6.2-19.4-9.4c-0.1,0-0.2,0-0.4,0c0.1,0.3,0.2,0.5,0.5,1.2c-1.1-0.6-1.9-0.9-2.7-1.3
		c0.1-0.2,0.2-0.4,0.3-0.6c0.4,0.1,0.9,0.2,1.3,0.3c0-0.1,0.1-0.2,0.1-0.3c-1.2-0.6-2.3-1.3-3.6-2c0.1,0.6,0.1,1,0.2,1.7
		c-1.1-0.4-2-0.6-2.9-0.9c0.1-0.2,0.1-0.3,0.2-0.5c0.7-0.1,1.4-0.2,2.4-0.3c-2.2-1.4-4-2.6-5.9-3.7c-2-1.2-4-2.3-6-3.4
		c-0.6-0.4-1-1.1-1.6-1.7c-7.3-5.9-14.8-11.5-21.7-17.7c-11.5-10.5-21.7-22.1-30-35.3c-4.8-7.6-9.4-15.4-13.6-23.4
		c-3.4-6.4-6.2-13.2-8.7-20c-3.7-10.3-6.9-20.7-8.5-31.6c-1.2-7.9-2.7-15.8-3.2-23.8c-0.8-14.4-0.7-28.9,1.6-43.2
		c1.3-7.8,2.9-15.6,4.8-23.3c3-11.9,7.3-23.4,12.6-34.5c6.3-13.5,14.2-26,23.4-37.7c14.1-18.2,31-33.4,50.3-46
		c10.6-6.9,21.7-12.8,33.5-17.3c7.5-2.8,15.1-5.5,22.8-7.8c4.8-1.4,9.6-2.8,14.6-3.6c2.6-0.4,5.1-1,7.7-1.3c8-0.8,16.1-1.6,24.1-2.2
		c4.2-0.3,8.4-0.5,12.6-0.3c4.1,0.1,8.3,0.7,12.4,1.2c6.7,0.8,13.5,1.3,20.1,2.7c9.1,2,18.2,4.4,27,7.2c10.9,3.4,21.2,8.2,31.3,13.5
		c2.3,1.2,4.1,3.5,7.1,2.8c0.2,2.5,2.5,2.3,3.8,3.5c0.3-0.5,0.5-0.9,0.6-1.2c0.2,0,0.3,0,0.5,0c0.1,0.7,0.2,1.4,0.4,2.2
		c1.6,1.6,4.2,2.1,6,3.9c1.5,1.5,3.4,2.6,5.2,3.7c3.5,2.1,5.9,6.2,10.5,6.6c0.1,0,0.2,0.4,0.3,0.6c0.9,1.3,1.8,2.7,2.9,3.9
		c0.5,0.6,1.3,0.8,1.9,1.4c6.6,6.9,13.3,13.8,19.9,20.8c1.6,1.8,3.2,3.7,4.5,5.7c1.2,2,4,2.7,4.2,5.5c0,0.6,1.2,1,1.7,1.7
		c1.3,1.7,2.5,3.5,3.7,5.2c0.6,0.8,1.2,1.6,1.5,2.5c1.2,3.1,2.6,6,5.3,8.1c0.3,0.2,0.4,0.6,0.5,1c0.2,0.6,0.3,1.3,0.6,1.8
		c1.4,2.3,2.8,4.5,4.2,6.7c0.1,0.2,0.2,0.5,0.2,0.5c-1.3,0.9,0,1.3,0.4,1.8c0.2,0.3,0.4,0.6,0.6,0.9c2,5.1,4,10.2,6,15.3
		c0.6,1.4,1.5,2.7,2.2,4.1h0.1c0.3-0.8,0.5-1.5,1-2.9c0.8,2.1,1.4,3.8,2,5.4c-0.2,0.1-0.4,0.2-0.7,0.2c-0.2-0.9-0.5-1.8-0.8-2.8
		c-0.5,0-1,0-1.6,0c0,0,0,0,0,0.1c0,0,0,0,0-0.1l0,0c0.6,2.3,1.2,4.6,1.8,6.8c0.6-0.3,1-0.5,1.4-0.7c0.2,0.4,0.5,0.7,0.4,1.1
		c-0.1,1.4,0,2.6,1.8,2.9c0.3,0.1,0.5,1,0.7,1.5c-0.2,0.1-0.4,0.2-0.6,0.4c-0.7-0.6-1.5-1.2-2.3-1.9c0,0.4-0.2,0.8-0.1,1.1
		c1,3.5,2.1,7.1,3.1,10.6c0.2,0.8,0.2,1.7,0.6,2.3c0.9,1.3,1.1,2.5,0.9,4c-0.1,0.8,0,1.7,0.2,2.5c0.5,2.7,1,5.3,1.5,8
		c0.3,1.6,0,3.2,1.1,4.8c0.5,0.7,0.2,2.2,1.1,3.3c0.5,0.6,0.5,2.7,0,3.1c-1.4,1.1-0.8,2.4-0.8,3.6c0.1,2.8,0.4,5.6,0.6,8.4
		c0,0.6,0.1,1.3,0.1,2.1c0.4-0.3,0.5-0.4,0.6-0.5c0.2-2.3,0.3-4.6,0.4-6.9c0-0.2-0.1-0.4-0.2-0.6c-0.7-2,0.2-5.4,2.1-6.6
		c-0.5-0.3-1-0.5-1.2-0.9c-0.3-0.4-0.8-1.2-0.7-1.4c1.2-1.9,0.8-3.5-0.6-5c0.5-0.6,0.9-1.2,1.3-1.7c0-0.5,0.1-1,0-1.5
		c-0.4-2.4-1.3-4.9-1.1-7.2c0.2-2.5-0.8-4.5-1.7-6.5c-0.6-1.3-0.8-2.1,0.3-2.7c-0.8-2-1.6-3.9-2.3-5.8c-0.1-0.2,0.6-0.6,1-0.9
		c0.3,0.7,2.9,0.6,0.9,2.3c-0.2,0.1-0.1,0.7,0,0.9c1.6,3.8,2.7,7.8,2.9,12c0,0.2,0.7,0.4,1,0.6c-0.2-1.8-0.6-3.7-0.7-5.5
		c-0.1-1.9,0.1-3.7,0.2-5.6c1,2.9,1.8,5.8,2.2,8.7c0.7,5.2,1.2,10.5,1.9,15.7c0.1,0.8,0.6,1.5,1,2.3c-1.3,1.4,0.5,3.2,0.5,4.7
		c0.7,0.5,1.5,1.2,1.4,1.7c-0.2,1.2,0.2,2.4-1.1,3.7c-1.6,1.6,0,3.9,0.5,5.9c0,0.1,0.4,0.3,0.6,0.3s0.5-0.3,0.5-0.5
		c0-1.7,0-3.4,0-5.1c0.1-0.1,0.2-0.1,0.4-0.2c0.4,0.8,0.8,1.7,1.2,2.5c0.4-2.5,0.8-5,1.2-7.5c0.3,0.1,0.8,0.2,1.2,0.2
		c-0.4-2.5-0.7-5-1.1-7.4c0.1,0,0.3-0.1,0.4-0.1c0.3,0.3,0.5,0.5,1.2,1.1c0.6-5.4,0.8-10.3-0.3-15.4c-0.6,0.2-1.1,0.3-1.7,0.4
		c0.1-0.4,0-0.8,0.2-0.9c1.1-1.2,1.6-2.4,0.5-3.8c-0.2-0.2,0.1-0.7,0.1-1.1c0-1-0.1-2-0.2-3c0-0.4-0.2-1.1,0-1.3
		C476.4,206.6,474.9,205.2,473.9,204"/>
</g>
</svg>
